<?xml version="1.0" standalone="no"?><!DOCTYPE svg PUBLIC "-//W3C//DTD SVG 1.1//EN" "http://www.w3.org/Graphics/SVG/1.1/DTD/svg11.dtd"><svg class="Hive Plot Module 2" width="600" height="500" version="1.1" xmlns="http://www.w3.org/2000/svg" xmlns:xlink="http://www.w3.org/1999/xlink" style="background-color: white;"><defs><style type="text/css"><![CDATA[]]></style></defs><g transform="translate(300,250)"><line class="axis" transform="rotate(-110.05352282957881)" x1="40" x2="240" stroke-width="0.7" stroke="black"></line><line class="axis" transform="rotate(-69.94647717042119)" x1="40" x2="240" stroke-width="0.7" stroke="black"></line><line class="axis" transform="rotate(10.26761414789408)" x1="40" x2="240" stroke-width="0.7" stroke="black"></line><line class="axis" transform="rotate(49.80170201192087)" x1="40" x2="240" stroke-width="0.7" stroke="black"></line><line class="axis" transform="rotate(130.0157933302361)" x1="40" x2="240" stroke-width="0.7" stroke="black"></line><line class="axis" transform="rotate(170.12283898939376)" x1="40" x2="240" stroke-width="0.7" stroke="black"></line><path class="link" d="M220.4128520997616,39.927116465486186C205.50610198312538,89.12486772894118 178.17077670677762,132.43554782498333 143.2865696302303,169.56697486126586" style="fill: none; stroke-opacity: 0.8; stroke: rgb(1, 102, 94); stroke-width: 0.8px;"></path><path class="link" d="M218.44488020601375,39.5706243541872C203.67122607256175,88.32910998136136 179.7759188392711,133.62866086845165 144.57743962689904,171.0946052654214" style="fill: none; stroke-opacity: 0.8; stroke: rgb(1, 102, 94); stroke-width: 0.8px;"></path><path class="link" d="M206.63704884352651,37.431671686393294C192.66197060918003,83.55456349588236 178.17077670677762,132.43554782498333 143.2865696302303,169.56697486126586" style="fill: none; stroke-opacity: 0.8; stroke: rgb(1, 102, 94); stroke-width: 0.8px;"></path><path class="link" d="M218.44488020601375,39.5706243541872C203.67122607256175,88.32910998136136 168.53992391181666,125.27686956417342 135.54134965021785,160.40119243633256" style="fill: none; stroke-opacity: 0.8; stroke: rgb(1, 102, 94); stroke-width: 0.8px;"></path><path class="link" d="M194.82921748103928,35.29271901859939C181.6527151457983,78.78001701040337 178.17077670677762,132.43554782498333 143.2865696302303,169.56697486126586" style="fill: none; stroke-opacity: 0.8; stroke: rgb(1, 102, 94); stroke-width: 0.8px;"></path><path class="link" d="M218.44488020601375,39.5706243541872C203.67122607256175,88.32910998136136 158.9090711168557,118.11819130336352 127.79612967020539,151.23541001139927" style="fill: none; stroke-opacity: 0.8; stroke: rgb(1, 102, 94); stroke-width: 0.8px;"></path><path class="link" d="M171.21355475606484,31.01481368301159C159.6342042190349,69.23092403944538 152.48850258688174,113.34573912949024 122.63264968353043,145.1248883947771" style="fill: none; stroke-opacity: 0.8; stroke: rgb(1, 102, 94); stroke-width: 0.8px;"></path><path class="link" d="M186.95732990604782,33.86675057340346C174.31321150354384,75.59698602008403 139.6473655269338,103.8008347817437 112.3056897101805,132.9038451615327" style="fill: none; stroke-opacity: 0.8; stroke: rgb(1, 102, 94); stroke-width: 0.8px;"></path><path class="link" d="M186.95732990604782,33.86675057340346C174.31321150354384,75.59698602008403 152.48850258688174,113.34573912949024 122.63264968353043,145.1248883947771" style="fill: none; stroke-opacity: 0.8; stroke: rgb(1, 102, 94); stroke-width: 0.8px;"></path><path class="link" d="M186.95732990604782,33.86675057340346C174.31321150354384,75.59698602008403 152.48850258688174,113.34573912949024 122.63264968353043,145.1248883947771" style="fill: none; stroke-opacity: 0.8; stroke: rgb(1, 102, 94); stroke-width: 0.8px;"></path><path class="link" d="M204.66907694977866,37.07517957509431C190.8270946986164,82.75880574830252 158.9090711168557,118.11819130336352 127.79612967020539,151.23541001139927" style="fill: none; stroke-opacity: 0.8; stroke: rgb(1, 102, 94); stroke-width: 0.8px;"></path><path class="link" d="M194.82921748103928,35.29271901859939C181.6527151457983,78.78001701040337 166.93478177932317,124.08375652070511 134.2504796535491,158.873562032177" style="fill: none; stroke-opacity: 0.8; stroke: rgb(1, 102, 94); stroke-width: 0.8px;"></path><path class="link" d="M141.69397634984676,25.66743201352683C132.11106556058058,57.2945578257479 158.9090711168557,118.11819130336352 127.79612967020539,151.23541001139927" style="fill: none; stroke-opacity: 0.8; stroke: rgb(1, 102, 94); stroke-width: 0.8px;"></path><path class="link" d="M194.82921748103928,35.29271901859939C181.6527151457983,78.78001701040337 115.57023353953143,85.90413912971893 92.94263976014938,109.98938909919947" style="fill: none; stroke-opacity: 0.8; stroke: rgb(1, 102, 94); stroke-width: 0.8px;"></path><path class="link" d="M204.66907694977866,37.07517957509431C190.8270946986164,82.75880574830252 158.9090711168557,118.11819130336352 127.79612967020539,151.23541001139927" style="fill: none; stroke-opacity: 0.8; stroke: rgb(1, 102, 94); stroke-width: 0.8px;"></path><path class="link" d="M194.82921748103928,35.29271901859939C181.6527151457983,78.78001701040337 166.93478177932317,124.08375652070511 134.2504796535491,158.873562032177" style="fill: none; stroke-opacity: 0.8; stroke: rgb(1, 102, 94); stroke-width: 0.8px;"></path><path class="link" d="M220.4128520997616,39.927116465486186C205.50610198312538,89.12486772894118 158.9090711168557,118.11819130336352 127.79612967020539,151.23541001139927" style="fill: none; stroke-opacity: 0.8; stroke: rgb(1, 102, 94); stroke-width: 0.8px;"></path><path class="link" d="M194.82921748103928,35.29271901859939C181.6527151457983,78.78001701040337 179.7759188392711,133.62866086845165 144.57743962689904,171.0946052654214" style="fill: none; stroke-opacity: 0.8; stroke: rgb(1, 102, 94); stroke-width: 0.8px;"></path><path class="link" d="M206.63704884352651,37.431671686393294C192.66197060918003,83.55456349588236 158.9090711168557,118.11819130336352 127.79612967020539,151.23541001139927" style="fill: none; stroke-opacity: 0.8; stroke: rgb(1, 102, 94); stroke-width: 0.8px;"></path><path class="link" d="M194.82921748103928,35.29271901859939C181.6527151457983,78.78001701040337 168.53992391181666,125.27686956417342 135.54134965021785,160.40119243633256" style="fill: none; stroke-opacity: 0.8; stroke: rgb(1, 102, 94); stroke-width: 0.8px;"></path><path class="link" d="M186.95732990604782,33.86675057340346C174.31321150354384,75.59698602008403 158.9090711168557,118.11819130336352 127.79612967020539,151.23541001139927" style="fill: none; stroke-opacity: 0.8; stroke: rgb(1, 102, 94); stroke-width: 0.8px;"></path><path class="link" d="M194.82921748103928,35.29271901859939C181.6527151457983,78.78001701040337 152.48850258688174,113.34573912949024 122.63264968353043,145.1248883947771" style="fill: none; stroke-opacity: 0.8; stroke: rgb(1, 102, 94); stroke-width: 0.8px;"></path><path class="link" d="M192.86124558729142,34.93622690730041C179.81783923523471,77.98425926282353 158.9090711168557,118.11819130336352 127.79612967020539,151.23541001139927" style="fill: none; stroke-opacity: 0.8; stroke: rgb(1, 102, 94); stroke-width: 0.8px;"></path><path class="link" d="M194.82921748103928,35.29271901859939C181.6527151457983,78.78001701040337 157.30392898436222,116.9250782598952 126.50525967353666,149.7077796072437" style="fill: none; stroke-opacity: 0.8; stroke: rgb(1, 102, 94); stroke-width: 0.8px;"></path><path class="link" d="M194.82921748103928,35.29271901859939C181.6527151457983,78.78001701040337 158.9090711168557,118.11819130336352 127.79612967020539,151.23541001139927" style="fill: none; stroke-opacity: 0.8; stroke: rgb(1, 102, 94); stroke-width: 0.8px;"></path><path class="link" d="M194.82921748103928,35.29271901859939C181.6527151457983,78.78001701040337 158.9090711168557,118.11819130336352 127.79612967020539,151.23541001139927" style="fill: none; stroke-opacity: 0.8; stroke: rgb(1, 102, 94); stroke-width: 0.8px;"></path><path class="link" d="M141.69397634984676,25.66743201352683C132.11106556058058,57.2945578257479 157.30392898436222,116.9250782598952 126.50525967353666,149.7077796072437" style="fill: none; stroke-opacity: 0.8; stroke: rgb(1, 102, 94); stroke-width: 0.8px;"></path><path class="link" d="M192.86124558729142,34.93622690730041C179.81783923523471,77.98425926282353 115.57023353953143,85.90413912971893 92.94263976014938,109.98938909919947" style="fill: none; stroke-opacity: 0.8; stroke: rgb(1, 102, 94); stroke-width: 0.8px;"></path><path class="link" d="M206.63704884352651,37.431671686393294C192.66197060918003,83.55456349588236 157.30392898436222,116.9250782598952 126.50525967353666,149.7077796072437" style="fill: none; stroke-opacity: 0.8; stroke: rgb(1, 102, 94); stroke-width: 0.8px;"></path><path class="link" d="M192.86124558729142,34.93622690730041C179.81783923523471,77.98425926282353 168.53992391181666,125.27686956417342 135.54134965021785,160.40119243633256" style="fill: none; stroke-opacity: 0.8; stroke: rgb(1, 102, 94); stroke-width: 0.8px;"></path><path class="link" d="M206.63704884352651,37.431671686393294C192.66197060918003,83.55456349588236 150.88336045438825,112.15262608602193 121.34177968686168,143.59725799062153" style="fill: none; stroke-opacity: 0.8; stroke: rgb(1, 102, 94); stroke-width: 0.8px;"></path><path class="link" d="M184.98935801229993,33.510258462104474C172.47833559298022,74.8012282725042 168.53992391181666,125.27686956417342 135.54134965021785,160.40119243633256" style="fill: none; stroke-opacity: 0.8; stroke: rgb(1, 102, 94); stroke-width: 0.8px;"></path><path class="link" d="M194.82921748103928,35.29271901859939C181.6527151457983,78.78001701040337 150.88336045438825,112.15262608602193 121.34177968686168,143.59725799062153" style="fill: none; stroke-opacity: 0.8; stroke: rgb(1, 102, 94); stroke-width: 0.8px;"></path><path class="link" d="M184.98935801229993,33.510258462104474C172.47833559298022,74.8012282725042 158.9090711168557,118.11819130336352 127.79612967020539,151.23541001139927" style="fill: none; stroke-opacity: 0.8; stroke: rgb(1, 102, 94); stroke-width: 0.8px;"></path><path class="link" d="M175.14949854356058,31.727797905609556C163.30395604016212,70.82243953460505 121.99080206950539,90.67659130359219 98.10611974682435,116.09991071582166" style="fill: none; stroke-opacity: 0.8; stroke: rgb(1, 102, 94); stroke-width: 0.8px;"></path><path class="link" d="M149.56586392483825,27.09340045872277C139.45056920283508,60.47758881606723 142.85764979192078,106.18706086868033 114.88742970351798,135.9591059698438" style="fill: none; stroke-opacity: 0.8; stroke: rgb(1, 102, 94); stroke-width: 0.8px;"></path><path class="link" d="M196.79718937478717,35.649211129898376C183.48759105636194,79.5757747579832 121.99080206950539,90.67659130359219 98.10611974682435,116.09991071582166" style="fill: none; stroke-opacity: 0.8; stroke: rgb(1, 102, 94); stroke-width: 0.8px;"></path><path class="link" d="M149.56586392483825,27.09340045872277C139.45056920283508,60.47758881606723 160.5142132493492,119.31130434683183 129.08699966687414,152.76304041555483" style="fill: none; stroke-opacity: 0.8; stroke: rgb(1, 102, 94); stroke-width: 0.8px;"></path><path class="link" d="M137.75803256235102,24.954447790928864C128.44131373945336,55.70304233058824 152.48850258688174,113.34573912949024 122.63264968353043,145.1248883947771" style="fill: none; stroke-opacity: 0.8; stroke: rgb(1, 102, 94); stroke-width: 0.8px;"></path><path class="link" d="M186.95732990604782,33.86675057340346C174.31321150354384,75.59698602008403 112.35994927454445,83.51791304278228 90.3608997668119,106.93412829088837" style="fill: none; stroke-opacity: 0.8; stroke: rgb(1, 102, 94); stroke-width: 0.8px;"></path><path class="link" d="M173.1815266498127,31.371305794310572C161.46908012959852,70.02668178702521 141.2525076594273,104.99394782521202 113.59655970684923,134.43147556568823" style="fill: none; stroke-opacity: 0.8; stroke: rgb(1, 102, 94); stroke-width: 0.8px;"></path><path class="link" d="M173.1815266498127,31.371305794310572C161.46908012959852,70.02668178702521 141.2525076594273,104.99394782521202 113.59655970684923,134.43147556568823" style="fill: none; stroke-opacity: 0.8; stroke: rgb(1, 102, 94); stroke-width: 0.8px;"></path><path class="link" d="M192.86124558729142,34.93622690730041C179.81783923523471,77.98425926282353 141.2525076594273,104.99394782521202 113.59655970684923,134.43147556568823" style="fill: none; stroke-opacity: 0.8; stroke: rgb(1, 102, 94); stroke-width: 0.8px;"></path><path class="link" d="M173.1815266498127,31.371305794310572C161.46908012959852,70.02668178702521 157.30392898436222,116.9250782598952 126.50525967353666,149.7077796072437" style="fill: none; stroke-opacity: 0.8; stroke: rgb(1, 102, 94); stroke-width: 0.8px;"></path><path class="link" d="M220.4128520997616,39.927116465486186C205.50610198312538,89.12486772894118 179.7759188392711,133.62866086845165 144.57743962689904,171.0946052654214" style="fill: none; stroke-opacity: 0.8; stroke: rgb(1, 102, 94); stroke-width: 0.8px;"></path><path class="link" d="M220.4128520997616,39.927116465486186C205.50610198312538,89.12486772894118 179.7759188392711,133.62866086845165 144.57743962689904,171.0946052654214" style="fill: none; stroke-opacity: 0.8; stroke: rgb(1, 102, 94); stroke-width: 0.8px;"></path><path class="link" d="M236.1566272497446,42.779053355878055C220.18510926763435,95.49092970957983 179.7759188392711,133.62866086845165 144.57743962689904,171.0946052654214" style="fill: none; stroke-opacity: 0.8; stroke: rgb(1, 102, 94); stroke-width: 0.8px;"></path><path class="link" d="M220.4128520997616,39.927116465486186C205.50610198312538,89.12486772894118 192.61705589921905,143.1735652161982 154.90439960024895,183.31564849866578" style="fill: none; stroke-opacity: 0.8; stroke: rgb(1, 102, 94); stroke-width: 0.8px;"></path><path class="link" d="M202.70110505603077,36.71868746379533C188.9922187880528,81.9630480007227 157.30392898436222,116.9250782598952 126.50525967353666,149.7077796072437" style="fill: none; stroke-opacity: 0.8; stroke: rgb(1, 102, 94); stroke-width: 0.8px;"></path><path class="link" d="M192.86124558729142,34.93622690730041C179.81783923523471,77.98425926282353 165.3296396468297,122.8906434772368 132.95960965688036,157.34593162802148" style="fill: none; stroke-opacity: 0.8; stroke: rgb(1, 102, 94); stroke-width: 0.8px;"></path><path class="link" d="M204.66907694977866,37.07517957509431C190.8270946986164,82.75880574830252 107.54452287706397,79.93857391237734 86.48828977680567,102.35123707842173" style="fill: none; stroke-opacity: 0.8; stroke: rgb(1, 102, 94); stroke-width: 0.8px;"></path><path class="link" d="M131.8541168811074,23.884971457031913C122.9366860077625,53.31576908784874 166.93478177932317,124.08375652070511 134.2504796535491,158.873562032177" style="fill: none; stroke-opacity: 0.8; stroke: rgb(1, 102, 94); stroke-width: 0.8px;"></path><path class="link" d="M141.69397634984676,25.66743201352683C132.11106556058058,57.2945578257479 107.54452287706397,79.93857391237734 86.48828977680567,102.35123707842173" style="fill: none; stroke-opacity: 0.8; stroke: rgb(1, 102, 94); stroke-width: 0.8px;"></path><path class="link" d="M131.8541168811074,23.884971457031913C122.9366860077625,53.31576908784874 115.57023353953143,85.90413912971893 92.94263976014938,109.98938909919947" style="fill: none; stroke-opacity: 0.8; stroke: rgb(1, 102, 94); stroke-width: 0.8px;"></path><path class="link" d="M141.69397634984676,25.66743201352683C132.11106556058058,57.2945578257479 107.54452287706397,79.93857391237734 86.48828977680567,102.35123707842173" style="fill: none; stroke-opacity: 0.8; stroke: rgb(1, 102, 94); stroke-width: 0.8px;"></path><path class="link" d="M131.8541168811074,23.884971457031913C122.9366860077625,53.31576908784874 115.57023353953143,85.90413912971893 92.94263976014938,109.98938909919947" style="fill: none; stroke-opacity: 0.8; stroke: rgb(1, 102, 94); stroke-width: 0.8px;"></path><path class="link" d="M194.82921748103928,35.29271901859939C181.6527151457983,78.78001701040337 168.53992391181666,125.27686956417342 135.54134965021785,160.40119243633256" style="fill: none; stroke-opacity: 0.8; stroke: rgb(1, 102, 94); stroke-width: 0.8px;"></path><path class="link" d="M206.63704884352651,37.431671686393294C192.66197060918003,83.55456349588236 158.9090711168557,118.11819130336352 127.79612967020539,151.23541001139927" style="fill: none; stroke-opacity: 0.8; stroke: rgb(1, 102, 94); stroke-width: 0.8px;"></path><path class="link" d="M141.69397634984676,25.66743201352683C132.11106556058058,57.2945578257479 115.57023353953143,85.90413912971893 92.94263976014938,109.98938909919947" style="fill: none; stroke-opacity: 0.8; stroke: rgb(1, 102, 94); stroke-width: 0.8px;"></path><path class="link" d="M141.69397634984676,25.66743201352683C132.11106556058058,57.2945578257479 115.57023353953143,85.90413912971893 92.94263976014938,109.98938909919947" style="fill: none; stroke-opacity: 0.8; stroke: rgb(1, 102, 94); stroke-width: 0.8px;"></path><path class="link" d="M204.66907694977866,37.07517957509431C190.8270946986164,82.75880574830252 179.7759188392711,133.62866086845165 144.57743962689904,171.0946052654214" style="fill: none; stroke-opacity: 0.8; stroke: rgb(1, 102, 94); stroke-width: 0.8px;"></path><path class="link" d="M220.4128520997616,39.927116465486186C205.50610198312538,89.12486772894118 166.93478177932317,124.08375652070511 134.2504796535491,158.873562032177" style="fill: none; stroke-opacity: 0.8; stroke: rgb(1, 102, 94); stroke-width: 0.8px;"></path><path class="link" d="M206.63704884352651,37.431671686393294C192.66197060918003,83.55456349588236 179.7759188392711,133.62866086845165 144.57743962689904,171.0946052654214" style="fill: none; stroke-opacity: 0.8; stroke: rgb(1, 102, 94); stroke-width: 0.8px;"></path><path class="link" d="M220.4128520997616,39.927116465486186C205.50610198312538,89.12486772894118 168.53992391181666,125.27686956417342 135.54134965021785,160.40119243633256" style="fill: none; stroke-opacity: 0.8; stroke: rgb(1, 102, 94); stroke-width: 0.8px;"></path><path class="link" d="M236.1566272497446,42.779053355878055C220.18510926763435,95.49092970957983 179.7759188392711,133.62866086845165 144.57743962689904,171.0946052654214" style="fill: none; stroke-opacity: 0.8; stroke: rgb(1, 102, 94); stroke-width: 0.8px;"></path><path class="link" d="M220.4128520997616,39.927116465486186C205.50610198312538,89.12486772894118 192.61705589921905,143.1735652161982 154.90439960024895,183.31564849866578" style="fill: none; stroke-opacity: 0.8; stroke: rgb(1, 102, 94); stroke-width: 0.8px;"></path><path class="link" d="M194.82921748103928,35.29271901859939C181.6527151457983,78.78001701040337 179.7759188392711,133.62866086845165 144.57743962689904,171.0946052654214" style="fill: none; stroke-opacity: 0.8; stroke: rgb(1, 102, 94); stroke-width: 0.8px;"></path><path class="link" d="M220.4128520997616,39.927116465486186C205.50610198312538,89.12486772894118 158.9090711168557,118.11819130336352 127.79612967020539,151.23541001139927" style="fill: none; stroke-opacity: 0.8; stroke: rgb(1, 102, 94); stroke-width: 0.8px;"></path><path class="link" d="M202.70110505603077,36.71868746379533C188.9922187880528,81.9630480007227 160.5142132493492,119.31130434683183 129.08699966687414,152.76304041555483" style="fill: none; stroke-opacity: 0.8; stroke: rgb(1, 102, 94); stroke-width: 0.8px;"></path><path class="link" d="M196.79718937478717,35.649211129898376C183.48759105636194,79.5757747579832 165.3296396468297,122.8906434772368 132.95960965688036,157.34593162802148" style="fill: none; stroke-opacity: 0.8; stroke: rgb(1, 102, 94); stroke-width: 0.8px;"></path><path class="link" d="M173.1815266498127,31.371305794310572C161.46908012959852,70.02668178702521 160.5142132493492,119.31130434683183 129.08699966687414,152.76304041555483" style="fill: none; stroke-opacity: 0.8; stroke: rgb(1, 102, 94); stroke-width: 0.8px;"></path><path class="link" d="M196.79718937478717,35.649211129898376C183.48759105636194,79.5757747579832 141.2525076594273,104.99394782521202 113.59655970684923,134.43147556568823" style="fill: none; stroke-opacity: 0.8; stroke: rgb(1, 102, 94); stroke-width: 0.8px;"></path><path class="link" d="M171.21355475606484,31.01481368301159C159.6342042190349,69.23092403944538 166.93478177932317,124.08375652070511 134.2504796535491,158.873562032177" style="fill: none; stroke-opacity: 0.8; stroke: rgb(1, 102, 94); stroke-width: 0.8px;"></path><path class="link" d="M204.66907694977866,37.07517957509431C190.8270946986164,82.75880574830252 139.6473655269338,103.8008347817437 112.3056897101805,132.9038451615327" style="fill: none; stroke-opacity: 0.8; stroke: rgb(1, 102, 94); stroke-width: 0.8px;"></path><path class="link" d="M220.4128520997616,39.927116465486186C205.50610198312538,89.12486772894118 166.93478177932317,124.08375652070511 134.2504796535491,158.873562032177" style="fill: none; stroke-opacity: 0.8; stroke: rgb(1, 102, 94); stroke-width: 0.8px;"></path><path class="link" d="M204.66907694977866,37.07517957509431C190.8270946986164,82.75880574830252 179.7759188392711,133.62866086845165 144.57743962689904,171.0946052654214" style="fill: none; stroke-opacity: 0.8; stroke: rgb(1, 102, 94); stroke-width: 0.8px;"></path><path class="link" d="M186.95732990604782,33.86675057340346C174.31321150354384,75.59698602008403 139.6473655269338,103.8008347817437 112.3056897101805,132.9038451615327" style="fill: none; stroke-opacity: 0.8; stroke: rgb(1, 102, 94); stroke-width: 0.8px;"></path><path class="link" d="M171.21355475606484,31.01481368301159C159.6342042190349,69.23092403944538 152.48850258688174,113.34573912949024 122.63264968353043,145.1248883947771" style="fill: none; stroke-opacity: 0.8; stroke: rgb(1, 102, 94); stroke-width: 0.8px;"></path><path class="link" d="M137.75803256235102,24.954447790928864C128.44131373945336,55.70304233058824 139.6473655269338,103.8008347817437 112.3056897101805,132.9038451615327" style="fill: none; stroke-opacity: 0.8; stroke: rgb(1, 102, 94); stroke-width: 0.8px;"></path><path class="link" d="M171.21355475606484,31.01481368301159C159.6342042190349,69.23092403944538 112.35994927454445,83.51791304278228 90.3608997668119,106.93412829088837" style="fill: none; stroke-opacity: 0.8; stroke: rgb(1, 102, 94); stroke-width: 0.8px;"></path><path class="link" d="M224.34879588725735,40.64010068808415C209.17585380425263,90.71638322410085 139.6473655269338,103.8008347817437 112.3056897101805,132.9038451615327" style="fill: none; stroke-opacity: 0.8; stroke: rgb(1, 102, 94); stroke-width: 0.8px;"></path><path class="link" d="M171.21355475606484,31.01481368301159C159.6342042190349,69.23092403944538 182.9862031042581,136.0148869553883 147.15917962023653,174.14986607373248" style="fill: none; stroke-opacity: 0.8; stroke: rgb(1, 102, 94); stroke-width: 0.8px;"></path><path class="link" d="M204.66907694977866,37.07517957509431C190.8270946986164,82.75880574830252 115.57023353953143,85.90413912971893 92.94263976014938,109.98938909919947" style="fill: none; stroke-opacity: 0.8; stroke: rgb(1, 102, 94); stroke-width: 0.8px;"></path><path class="link" d="M141.69397634984676,25.66743201352683C132.11106556058058,57.2945578257479 166.93478177932317,124.08375652070511 134.2504796535491,158.873562032177" style="fill: none; stroke-opacity: 0.8; stroke: rgb(1, 102, 94); stroke-width: 0.8px;"></path><path class="link" d="M137.75803256235102,24.954447790928864C128.44131373945336,55.70304233058824 115.57023353953143,85.90413912971893 92.94263976014938,109.98938909919947" style="fill: none; stroke-opacity: 0.8; stroke: rgb(1, 102, 94); stroke-width: 0.8px;"></path><path class="link" d="M141.69397634984676,25.66743201352683C132.11106556058058,57.2945578257479 112.35994927454445,83.51791304278228 90.3608997668119,106.93412829088837" style="fill: none; stroke-opacity: 0.8; stroke: rgb(1, 102, 94); stroke-width: 0.8px;"></path><path class="link" d="M206.63704884352651,37.431671686393294C192.66197060918003,83.55456349588236 166.93478177932317,124.08375652070511 134.2504796535491,158.873562032177" style="fill: none; stroke-opacity: 0.8; stroke: rgb(1, 102, 94); stroke-width: 0.8px;"></path><path class="link" d="M204.66907694977866,37.07517957509431C190.8270946986164,82.75880574830252 168.53992391181666,125.27686956417342 135.54134965021785,160.40119243633256" style="fill: none; stroke-opacity: 0.8; stroke: rgb(1, 102, 94); stroke-width: 0.8px;"></path><path class="link" d="M194.82921748103928,35.29271901859939C181.6527151457983,78.78001701040337 166.93478177932317,124.08375652070511 134.2504796535491,158.873562032177" style="fill: none; stroke-opacity: 0.8; stroke: rgb(1, 102, 94); stroke-width: 0.8px;"></path><path class="link" d="M204.66907694977866,37.07517957509431C190.8270946986164,82.75880574830252 158.9090711168557,118.11819130336352 127.79612967020539,151.23541001139927" style="fill: none; stroke-opacity: 0.8; stroke: rgb(1, 102, 94); stroke-width: 0.8px;"></path><path class="link" d="M141.69397634984676,25.66743201352683C132.11106556058058,57.2945578257479 113.96509140703793,84.7110260862506 91.65176976348063,108.46175869504393" style="fill: none; stroke-opacity: 0.8; stroke: rgb(1, 102, 94); stroke-width: 0.8px;"></path><path class="link" d="M139.72600445609888,25.310939902227847C130.276189650017,56.49880007816807 115.57023353953143,85.90413912971893 92.94263976014938,109.98938909919947" style="fill: none; stroke-opacity: 0.8; stroke: rgb(1, 102, 94); stroke-width: 0.8px;"></path><path class="link" d="M171.21355475606484,31.01481368301159C159.6342042190349,69.23092403944538 113.96509140703793,84.7110260862506 91.65176976348063,108.46175869504393" style="fill: none; stroke-opacity: 0.8; stroke: rgb(1, 102, 94); stroke-width: 0.8px;"></path><path class="link" d="M139.72600445609888,25.310939902227847C130.276189650017,56.49880007816807 139.6473655269338,103.8008347817437 112.3056897101805,132.9038451615327" style="fill: none; stroke-opacity: 0.8; stroke: rgb(1, 102, 94); stroke-width: 0.8px;"></path><path class="link" d="M186.95732990604782,33.86675057340346C174.31321150354384,75.59698602008403 113.96509140703793,84.7110260862506 91.65176976348063,108.46175869504393" style="fill: none; stroke-opacity: 0.8; stroke: rgb(1, 102, 94); stroke-width: 0.8px;"></path><path class="link" d="M139.72600445609888,25.310939902227847C130.276189650017,56.49880007816807 152.48850258688174,113.34573912949024 122.63264968353043,145.1248883947771" style="fill: none; stroke-opacity: 0.8; stroke: rgb(1, 102, 94); stroke-width: 0.8px;"></path><path class="link" d="M137.75803256235102,24.954447790928864C128.44131373945336,55.70304233058824 113.96509140703793,84.7110260862506 91.65176976348063,108.46175869504393" style="fill: none; stroke-opacity: 0.8; stroke: rgb(1, 102, 94); stroke-width: 0.8px;"></path><path class="link" d="M139.72600445609888,25.310939902227847C130.276189650017,56.49880007816807 112.35994927454445,83.51791304278228 90.3608997668119,106.93412829088837" style="fill: none; stroke-opacity: 0.8; stroke: rgb(1, 102, 94); stroke-width: 0.8px;"></path><path class="link" d="M175.14949854356058,31.727797905609556C163.30395604016212,70.82243953460505 123.59594420199889,91.86970434706052 99.39698974349308,117.62754111997721" style="fill: none; stroke-opacity: 0.8; stroke: rgb(1, 102, 94); stroke-width: 0.8px;"></path><path class="link" d="M151.5338358185861,27.449892570021753C141.2854451133987,61.27334656364706 142.85764979192078,106.18706086868033 114.88742970351798,135.9591059698438" style="fill: none; stroke-opacity: 0.8; stroke: rgb(1, 102, 94); stroke-width: 0.8px;"></path><path class="link" d="M171.21355475606484,31.01481368301159C159.6342042190349,69.23092403944538 123.59594420199889,91.86970434706052 99.39698974349308,117.62754111997721" style="fill: none; stroke-opacity: 0.8; stroke: rgb(1, 102, 94); stroke-width: 0.8px;"></path><path class="link" d="M151.5338358185861,27.449892570021753C141.2854451133987,61.27334656364706 139.6473655269338,103.8008347817437 112.3056897101805,132.9038451615327" style="fill: none; stroke-opacity: 0.8; stroke: rgb(1, 102, 94); stroke-width: 0.8px;"></path><path class="link" d="M196.79718937478717,35.649211129898376C183.48759105636194,79.5757747579832 123.59594420199889,91.86970434706052 99.39698974349308,117.62754111997721" style="fill: none; stroke-opacity: 0.8; stroke: rgb(1, 102, 94); stroke-width: 0.8px;"></path><path class="link" d="M151.5338358185861,27.449892570021753C141.2854451133987,61.27334656364706 160.5142132493492,119.31130434683183 129.08699966687414,152.76304041555483" style="fill: none; stroke-opacity: 0.8; stroke: rgb(1, 102, 94); stroke-width: 0.8px;"></path><path class="link" d="M149.56586392483825,27.09340045872277C139.45056920283508,60.47758881606723 123.59594420199889,91.86970434706052 99.39698974349308,117.62754111997721" style="fill: none; stroke-opacity: 0.8; stroke: rgb(1, 102, 94); stroke-width: 0.8px;"></path><path class="link" d="M151.5338358185861,27.449892570021753C141.2854451133987,61.27334656364706 121.99080206950539,90.67659130359219 98.10611974682435,116.09991071582166" style="fill: none; stroke-opacity: 0.8; stroke: rgb(1, 102, 94); stroke-width: 0.8px;"></path><path class="link" d="M137.75803256235102,24.954447790928864C128.44131373945336,55.70304233058824 123.59594420199889,91.86970434706052 99.39698974349308,117.62754111997721" style="fill: none; stroke-opacity: 0.8; stroke: rgb(1, 102, 94); stroke-width: 0.8px;"></path><path class="link" d="M151.5338358185861,27.449892570021753C141.2854451133987,61.27334656364706 112.35994927454445,83.51791304278228 90.3608997668119,106.93412829088837" style="fill: none; stroke-opacity: 0.8; stroke: rgb(1, 102, 94); stroke-width: 0.8px;"></path><path class="link" d="M171.21355475606484,31.01481368301159C159.6342042190349,69.23092403944538 142.85764979192078,106.18706086868033 114.88742970351798,135.9591059698438" style="fill: none; stroke-opacity: 0.8; stroke: rgb(1, 102, 94); stroke-width: 0.8px;"></path><path class="link" d="M175.14949854356058,31.727797905609556C163.30395604016212,70.82243953460505 139.6473655269338,103.8008347817437 112.3056897101805,132.9038451615327" style="fill: none; stroke-opacity: 0.8; stroke: rgb(1, 102, 94); stroke-width: 0.8px;"></path><path class="link" d="M196.79718937478717,35.649211129898376C183.48759105636194,79.5757747579832 142.85764979192078,106.18706086868033 114.88742970351798,135.9591059698438" style="fill: none; stroke-opacity: 0.8; stroke: rgb(1, 102, 94); stroke-width: 0.8px;"></path><path class="link" d="M175.14949854356058,31.727797905609556C163.30395604016212,70.82243953460505 160.5142132493492,119.31130434683183 129.08699966687414,152.76304041555483" style="fill: none; stroke-opacity: 0.8; stroke: rgb(1, 102, 94); stroke-width: 0.8px;"></path><path class="link" d="M175.14949854356058,31.727797905609556C163.30395604016212,70.82243953460505 173.35535030929714,128.85620869457838 139.41395964022408,164.9840836487992" style="fill: none; stroke-opacity: 0.8; stroke: rgb(1, 102, 94); stroke-width: 0.8px;"></path><path class="link" d="M212.54096452477015,38.50114802029025C198.1665983408709,85.94183673862186 142.85764979192078,106.18706086868033 114.88742970351798,135.9591059698438" style="fill: none; stroke-opacity: 0.8; stroke: rgb(1, 102, 94); stroke-width: 0.8px;"></path><path class="link" d="M171.21355475606484,31.01481368301159C159.6342042190349,69.23092403944538 173.35535030929714,128.85620869457838 139.41395964022408,164.9840836487992" style="fill: none; stroke-opacity: 0.8; stroke: rgb(1, 102, 94); stroke-width: 0.8px;"></path><path class="link" d="M212.54096452477015,38.50114802029025C198.1665983408709,85.94183673862186 139.6473655269338,103.8008347817437 112.3056897101805,132.9038451615327" style="fill: none; stroke-opacity: 0.8; stroke: rgb(1, 102, 94); stroke-width: 0.8px;"></path><circle class="node" transform="rotate(10.26761414789408)" cx="144" r="5" stroke-width="0.4" stroke="grey" style="fill-opacity: 0.24; fill: rgb(1, 102, 94);"></circle><circle class="node" transform="rotate(10.26761414789408)" cx="134" r="5" stroke-width="0.4" stroke="grey" style="fill-opacity: 0.24; fill: rgb(1, 102, 94);"></circle><circle class="node" transform="rotate(10.26761414789408)" cx="208" r="5" stroke-width="0.4" stroke="grey" style="fill-opacity: 0.24; fill: rgb(1, 102, 94);"></circle><circle class="node" transform="rotate(10.26761414789408)" cx="208" r="5" stroke-width="0.4" stroke="grey" style="fill-opacity: 0.24; fill: rgb(1, 102, 94);"></circle><circle class="node" transform="rotate(10.26761414789408)" cx="224" r="5" stroke-width="0.4" stroke="grey" style="fill-opacity: 0.24; fill: rgb(1, 102, 94);"></circle><circle class="node" transform="rotate(10.26761414789408)" cx="210" r="5" stroke-width="0.4" stroke="grey" style="fill-opacity: 0.24; fill: rgb(1, 102, 94);"></circle><circle class="node" transform="rotate(10.26761414789408)" cx="224" r="5" stroke-width="0.4" stroke="grey" style="fill-opacity: 0.24; fill: rgb(1, 102, 94);"></circle><circle class="node" transform="rotate(10.26761414789408)" cx="188" r="5" stroke-width="0.4" stroke="grey" style="fill-opacity: 0.24; fill: rgb(1, 102, 94);"></circle><circle class="node" transform="rotate(10.26761414789408)" cx="196" r="5" stroke-width="0.4" stroke="grey" style="fill-opacity: 0.24; fill: rgb(1, 102, 94);"></circle><circle class="node" transform="rotate(10.26761414789408)" cx="198" r="5" stroke-width="0.4" stroke="grey" style="fill-opacity: 0.24; fill: rgb(1, 102, 94);"></circle><circle class="node" transform="rotate(10.26761414789408)" cx="198" r="5" stroke-width="0.4" stroke="grey" style="fill-opacity: 0.24; fill: rgb(1, 102, 94);"></circle><circle class="node" transform="rotate(10.26761414789408)" cx="222" r="5" stroke-width="0.4" stroke="grey" style="fill-opacity: 0.24; fill: rgb(1, 102, 94);"></circle><circle class="node" transform="rotate(10.26761414789408)" cx="154" r="5" stroke-width="0.4" stroke="grey" style="fill-opacity: 0.24; fill: rgb(1, 102, 94);"></circle><circle class="node" transform="rotate(10.26761414789408)" cx="142" r="5" stroke-width="0.4" stroke="grey" style="fill-opacity: 0.24; fill: rgb(1, 102, 94);"></circle><circle class="node" transform="rotate(10.26761414789408)" cx="144" r="5" stroke-width="0.4" stroke="grey" style="fill-opacity: 0.24; fill: rgb(1, 102, 94);"></circle><circle class="node" transform="rotate(10.26761414789408)" cx="176" r="5" stroke-width="0.4" stroke="grey" style="fill-opacity: 0.24; fill: rgb(1, 102, 94);"></circle><circle class="node" transform="rotate(10.26761414789408)" cx="196" r="5" stroke-width="0.4" stroke="grey" style="fill-opacity: 0.24; fill: rgb(1, 102, 94);"></circle><circle class="node" transform="rotate(10.26761414789408)" cx="240" r="5" stroke-width="0.4" stroke="grey" style="fill-opacity: 0.24; fill: rgb(1, 102, 94);"></circle><circle class="node" transform="rotate(10.26761414789408)" cx="176" r="5" stroke-width="0.4" stroke="grey" style="fill-opacity: 0.24; fill: rgb(1, 102, 94);"></circle><circle class="node" transform="rotate(10.26761414789408)" cx="190" r="5" stroke-width="0.4" stroke="grey" style="fill-opacity: 0.24; fill: rgb(1, 102, 94);"></circle><circle class="node" transform="rotate(10.26761414789408)" cx="152" r="5" stroke-width="0.4" stroke="grey" style="fill-opacity: 0.24; fill: rgb(1, 102, 94);"></circle><circle class="node" transform="rotate(10.26761414789408)" cx="190" r="5" stroke-width="0.4" stroke="grey" style="fill-opacity: 0.24; fill: rgb(1, 102, 94);"></circle><circle class="node" transform="rotate(10.26761414789408)" cx="140" r="5" stroke-width="0.4" stroke="grey" style="fill-opacity: 0.24; fill: rgb(1, 102, 94);"></circle><circle class="node" transform="rotate(-110.05352282957881)" cx="188" r="5" stroke-width="0.4" stroke="grey" style="fill-opacity: 0.24; fill: rgb(1, 102, 94);"></circle><circle class="node" transform="rotate(10.26761414789408)" cx="216" r="5" stroke-width="0.4" stroke="grey" style="fill-opacity: 0.24; fill: rgb(1, 102, 94);"></circle><circle class="node" transform="rotate(10.26761414789408)" cx="178" r="5" stroke-width="0.4" stroke="grey" style="fill-opacity: 0.24; fill: rgb(1, 102, 94);"></circle><circle class="node" transform="rotate(10.26761414789408)" cx="206" r="5" stroke-width="0.4" stroke="grey" style="fill-opacity: 0.24; fill: rgb(1, 102, 94);"></circle><circle class="node" transform="rotate(10.26761414789408)" cx="174" r="5" stroke-width="0.4" stroke="grey" style="fill-opacity: 0.24; fill: rgb(1, 102, 94);"></circle><circle class="node" transform="rotate(10.26761414789408)" cx="200" r="5" stroke-width="0.4" stroke="grey" style="fill-opacity: 0.24; fill: rgb(1, 102, 94);"></circle><circle class="node" transform="rotate(-110.05352282957881)" cx="224" r="5" stroke-width="0.4" stroke="grey" style="fill-opacity: 0.24; fill: rgb(1, 102, 94);"></circle><circle class="node" transform="rotate(10.26761414789408)" cx="228" r="5" stroke-width="0.4" stroke="grey" style="fill-opacity: 0.24; fill: rgb(1, 102, 94);"></circle><circle class="node" transform="rotate(49.80170201192087)" cx="144" r="5" stroke-width="0.4" stroke="grey" style="fill-opacity: 0.24; fill: rgb(1, 102, 94);"></circle><circle class="node" transform="rotate(49.80170201192087)" cx="134" r="5" stroke-width="0.4" stroke="grey" style="fill-opacity: 0.24; fill: rgb(1, 102, 94);"></circle><circle class="node" transform="rotate(49.80170201192087)" cx="208" r="5" stroke-width="0.4" stroke="grey" style="fill-opacity: 0.24; fill: rgb(1, 102, 94);"></circle><circle class="node" transform="rotate(49.80170201192087)" cx="208" r="5" stroke-width="0.4" stroke="grey" style="fill-opacity: 0.24; fill: rgb(1, 102, 94);"></circle><circle class="node" transform="rotate(49.80170201192087)" cx="224" r="5" stroke-width="0.4" stroke="grey" style="fill-opacity: 0.24; fill: rgb(1, 102, 94);"></circle><circle class="node" transform="rotate(49.80170201192087)" cx="210" r="5" stroke-width="0.4" stroke="grey" style="fill-opacity: 0.24; fill: rgb(1, 102, 94);"></circle><circle class="node" transform="rotate(49.80170201192087)" cx="224" r="5" stroke-width="0.4" stroke="grey" style="fill-opacity: 0.24; fill: rgb(1, 102, 94);"></circle><circle class="node" transform="rotate(49.80170201192087)" cx="188" r="5" stroke-width="0.4" stroke="grey" style="fill-opacity: 0.24; fill: rgb(1, 102, 94);"></circle><circle class="node" transform="rotate(49.80170201192087)" cx="196" r="5" stroke-width="0.4" stroke="grey" style="fill-opacity: 0.24; fill: rgb(1, 102, 94);"></circle><circle class="node" transform="rotate(49.80170201192087)" cx="198" r="5" stroke-width="0.4" stroke="grey" style="fill-opacity: 0.24; fill: rgb(1, 102, 94);"></circle><circle class="node" transform="rotate(49.80170201192087)" cx="198" r="5" stroke-width="0.4" stroke="grey" style="fill-opacity: 0.24; fill: rgb(1, 102, 94);"></circle><circle class="node" transform="rotate(49.80170201192087)" cx="222" r="5" stroke-width="0.4" stroke="grey" style="fill-opacity: 0.24; fill: rgb(1, 102, 94);"></circle><circle class="node" transform="rotate(49.80170201192087)" cx="154" r="5" stroke-width="0.4" stroke="grey" style="fill-opacity: 0.24; fill: rgb(1, 102, 94);"></circle><circle class="node" transform="rotate(49.80170201192087)" cx="142" r="5" stroke-width="0.4" stroke="grey" style="fill-opacity: 0.24; fill: rgb(1, 102, 94);"></circle><circle class="node" transform="rotate(49.80170201192087)" cx="144" r="5" stroke-width="0.4" stroke="grey" style="fill-opacity: 0.24; fill: rgb(1, 102, 94);"></circle><circle class="node" transform="rotate(49.80170201192087)" cx="176" r="5" stroke-width="0.4" stroke="grey" style="fill-opacity: 0.24; fill: rgb(1, 102, 94);"></circle><circle class="node" transform="rotate(49.80170201192087)" cx="196" r="5" stroke-width="0.4" stroke="grey" style="fill-opacity: 0.24; fill: rgb(1, 102, 94);"></circle><circle class="node" transform="rotate(49.80170201192087)" cx="240" r="5" stroke-width="0.4" stroke="grey" style="fill-opacity: 0.24; fill: rgb(1, 102, 94);"></circle><circle class="node" transform="rotate(49.80170201192087)" cx="176" r="5" stroke-width="0.4" stroke="grey" style="fill-opacity: 0.24; fill: rgb(1, 102, 94);"></circle><circle class="node" transform="rotate(49.80170201192087)" cx="190" r="5" stroke-width="0.4" stroke="grey" style="fill-opacity: 0.24; fill: rgb(1, 102, 94);"></circle><circle class="node" transform="rotate(49.80170201192087)" cx="152" r="5" stroke-width="0.4" stroke="grey" style="fill-opacity: 0.24; fill: rgb(1, 102, 94);"></circle><circle class="node" transform="rotate(49.80170201192087)" cx="190" r="5" stroke-width="0.4" stroke="grey" style="fill-opacity: 0.24; fill: rgb(1, 102, 94);"></circle><circle class="node" transform="rotate(49.80170201192087)" cx="140" r="5" stroke-width="0.4" stroke="grey" style="fill-opacity: 0.24; fill: rgb(1, 102, 94);"></circle><circle class="node" transform="rotate(-69.94647717042119)" cx="188" r="5" stroke-width="0.4" stroke="grey" style="fill-opacity: 0.24; fill: rgb(1, 102, 94);"></circle><circle class="node" transform="rotate(49.80170201192087)" cx="216" r="5" stroke-width="0.4" stroke="grey" style="fill-opacity: 0.24; fill: rgb(1, 102, 94);"></circle><circle class="node" transform="rotate(49.80170201192087)" cx="178" r="5" stroke-width="0.4" stroke="grey" style="fill-opacity: 0.24; fill: rgb(1, 102, 94);"></circle><circle class="node" transform="rotate(49.80170201192087)" cx="206" r="5" stroke-width="0.4" stroke="grey" style="fill-opacity: 0.24; fill: rgb(1, 102, 94);"></circle><circle class="node" transform="rotate(49.80170201192087)" cx="174" r="5" stroke-width="0.4" stroke="grey" style="fill-opacity: 0.24; fill: rgb(1, 102, 94);"></circle><circle class="node" transform="rotate(49.80170201192087)" cx="200" r="5" stroke-width="0.4" stroke="grey" style="fill-opacity: 0.24; fill: rgb(1, 102, 94);"></circle><circle class="node" transform="rotate(-69.94647717042119)" cx="224" r="5" stroke-width="0.4" stroke="grey" style="fill-opacity: 0.24; fill: rgb(1, 102, 94);"></circle><circle class="node" transform="rotate(49.80170201192087)" cx="228" r="5" stroke-width="0.4" stroke="grey" style="fill-opacity: 0.24; fill: rgb(1, 102, 94);"></circle></g></svg>