<?xml version="1.0" standalone="no"?><!DOCTYPE svg PUBLIC "-//W3C//DTD SVG 1.1//EN" "http://www.w3.org/Graphics/SVG/1.1/DTD/svg11.dtd"><svg class="Hive Plot Module E" width="600" height="500" version="1.1" xmlns="http://www.w3.org/2000/svg" xmlns:xlink="http://www.w3.org/1999/xlink" style="background-color: white;"><defs class="svg-crowbar"><style type="text/css"><![CDATA[]]></style></defs><g transform="translate(300,250)"><line class="axis" transform="rotate(-110.05352282957881)" x1="40" x2="240" stroke-width="0.7" stroke="black"></line><line class="axis" transform="rotate(-69.94647717042119)" x1="40" x2="240" stroke-width="0.7" stroke="black"></line><line class="axis" transform="rotate(10.26761414789408)" x1="40" x2="240" stroke-width="0.7" stroke="black"></line><line class="axis" transform="rotate(49.80170201192087)" x1="40" x2="240" stroke-width="0.7" stroke="black"></line><line class="axis" transform="rotate(130.0157933302361)" x1="40" x2="240" stroke-width="0.7" stroke="black"></line><line class="axis" transform="rotate(170.12283898939376)" x1="40" x2="240" stroke-width="0.7" stroke="black"></line><path class="link" d="M159.4057233935776,28.875861015217687C148.62494875565318,64.45637755396639 136.43708126194682,101.41460869480706 109.72394971684301,129.84858435322158" style="fill: none; stroke-opacity: 0.8; stroke: #003c30; stroke-width: 0.7px;"></path><path class="link" d="M167.2776109685691,30.30182946041362C155.96445239790765,67.63940854428571 130.01651273197285,96.64215652093378 104.56046973016805,123.7380627365994" style="fill: none; stroke-opacity: 0.8; stroke: #003c30; stroke-width: 0.7px;"></path><path class="link" d="M202.70110505603077,36.71868746379533C188.9922187880528,81.9630480007227 125.20108633449237,93.06281739052883 100.68785974016183,119.15517152413275" style="fill: none; stroke-opacity: 0.8; stroke: #003c30; stroke-width: 0.7px;"></path><path class="link" d="M153.501807712334,27.806384681320736C143.1203210239623,62.069104311226894 165.3296396468297,122.8906434772368 132.95960965688036,157.34593162802148" style="fill: none; stroke-opacity: 0.8; stroke: #003c30; stroke-width: 0.7px;"></path><path class="link" d="M163.34166718107335,29.588845237815654C152.2947005767804,66.04789304912606 150.88336045438825,112.15262608602193 121.34177968686168,143.59725799062153" style="fill: none; stroke-opacity: 0.8; stroke: #003c30; stroke-width: 0.7px;"></path><path class="link" d="M184.98935801229993,33.510258462104474C172.47833559298022,74.8012282725042 133.22679699695985,99.02838260787043 107.14220972350553,126.79332354491049" style="fill: none; stroke-opacity: 0.8; stroke: #003c30; stroke-width: 0.7px;"></path><path class="link" d="M163.34166718107335,29.588845237815654C152.2947005767804,66.04789304912606 155.69878685186873,115.73196521642689 125.21438967686791,148.18014920308818" style="fill: none; stroke-opacity: 0.8; stroke: #003c30; stroke-width: 0.7px;"></path><path class="link" d="M190.89327369354353,34.579734796001425C177.9829633246711,77.1885015152437 133.22679699695985,99.02838260787043 107.14220972350553,126.79332354491049" style="fill: none; stroke-opacity: 0.8; stroke: #003c30; stroke-width: 0.7px;"></path><path class="link" d="M163.34166718107335,29.588845237815654C152.2947005767804,66.04789304912606 150.88336045438825,112.15262608602193 121.34177968686168,143.59725799062153" style="fill: none; stroke-opacity: 0.8; stroke: #003c30; stroke-width: 0.7px;"></path><path class="link" d="M184.98935801229993,33.510258462104474C172.47833559298022,74.8012282725042 133.22679699695985,99.02838260787043 107.14220972350553,126.79332354491049" style="fill: none; stroke-opacity: 0.8; stroke: #003c30; stroke-width: 0.7px;"></path><path class="link" d="M153.501807712334,27.806384681320736C143.1203210239623,62.069104311226894 136.43708126194682,101.41460869480706 109.72394971684301,129.84858435322158" style="fill: none; stroke-opacity: 0.8; stroke: #003c30; stroke-width: 0.7px;"></path><path class="link" d="M167.2776109685691,30.30182946041362C155.96445239790765,67.63940854428571 125.20108633449237,93.06281739052883 100.68785974016183,119.15517152413275" style="fill: none; stroke-opacity: 0.8; stroke: #003c30; stroke-width: 0.7px;"></path><path class="link" d="M179.08544233105633,32.44078212820752C166.97370786128937,72.41395502976471 150.88336045438825,112.15262608602193 121.34177968686168,143.59725799062153" style="fill: none; stroke-opacity: 0.8; stroke: #003c30; stroke-width: 0.7px;"></path><path class="link" d="M184.98935801229993,33.510258462104474C172.47833559298022,74.8012282725042 146.06793405690777,108.57328695561696 117.46916969685546,139.01436677815488" style="fill: none; stroke-opacity: 0.8; stroke: #003c30; stroke-width: 0.7px;"></path><path class="link" d="M179.08544233105633,32.44078212820752C166.97370786128937,72.41395502976471 166.93478177932317,124.08375652070511 134.2504796535491,158.873562032177" style="fill: none; stroke-opacity: 0.8; stroke: #003c30; stroke-width: 0.7px;"></path><path class="link" d="M204.66907694977866,37.07517957509431C190.8270946986164,82.75880574830252 146.06793405690777,108.57328695561696 117.46916969685546,139.01436677815488" style="fill: none; stroke-opacity: 0.8; stroke: #003c30; stroke-width: 0.7px;"></path><path class="link" d="M179.08544233105633,32.44078212820752C166.97370786128937,72.41395502976471 133.22679699695985,99.02838260787043 107.14220972350553,126.79332354491049" style="fill: none; stroke-opacity: 0.8; stroke: #003c30; stroke-width: 0.7px;"></path><path class="link" d="M163.34166718107335,29.588845237815654C152.2947005767804,66.04789304912606 146.06793405690777,108.57328695561696 117.46916969685546,139.01436677815488" style="fill: none; stroke-opacity: 0.8; stroke: #003c30; stroke-width: 0.7px;"></path><path class="link" d="M216.4769083122659,39.21413224288822C201.83635016199813,87.53335223378151 187.80162950173857,139.59422608579325 151.03178961024273,178.73275728619913" style="fill: none; stroke-opacity: 0.8; stroke: #003c30; stroke-width: 0.7px;"></path><path class="link" d="M230.25271156850098,41.709577021981104C214.68048153594347,93.10365646684033 176.56563457428413,131.24243478151502 141.99569963356154,168.0393444571103" style="fill: none; stroke-opacity: 0.8; stroke: #003c30; stroke-width: 0.7px;"></path><path class="link" d="M155.46977960608186,28.16287679261972C144.95519693452593,62.86486205880673 139.6473655269338,103.8008347817437 112.3056897101805,132.9038451615327" style="fill: none; stroke-opacity: 0.8; stroke: #003c30; stroke-width: 0.7px;"></path><path class="link" d="M171.21355475606484,31.01481368301159C159.6342042190349,69.23092403944538 126.80622846698587,94.25593043399715 101.97872973683057,120.68280192828831" style="fill: none; stroke-opacity: 0.8; stroke: #003c30; stroke-width: 0.7px;"></path><path class="link" d="M155.46977960608186,28.16287679261972C144.95519693452593,62.86486205880673 125.20108633449237,93.06281739052883 100.68785974016183,119.15517152413275" style="fill: none; stroke-opacity: 0.8; stroke: #003c30; stroke-width: 0.7px;"></path><path class="link" d="M153.501807712334,27.806384681320736C143.1203210239623,62.069104311226894 126.80622846698587,94.25593043399715 101.97872973683057,120.68280192828831" style="fill: none; stroke-opacity: 0.8; stroke: #003c30; stroke-width: 0.7px;"></path><path class="link" d="M63.09319657180307,-172.8445791639177C134.11165704465768,-125.97644003835038 178.36772316577037,-52.734763985998875 183.02138611855207,33.15376635080549" style="fill: none; stroke-opacity: 0.8; stroke: #003c30; stroke-width: 0.7px;"></path><path class="link" d="M163.34166718107335,29.588845237815654C152.2947005767804,66.04789304912606 118.78051780451841,88.29036521665556 95.52437975348685,113.04464990751056" style="fill: none; stroke-opacity: 0.8; stroke: #003c30; stroke-width: 0.7px;"></path><path class="link" d="M145.6299201373425,26.3804162361248C135.78081738170783,58.88607332090756 133.22679699695985,99.02838260787043 107.14220972350553,126.79332354491049" style="fill: none; stroke-opacity: 0.8; stroke: #003c30; stroke-width: 0.7px;"></path><path class="link" d="M218.44488020601375,39.5706243541872C203.67122607256175,88.32910998136136 166.93478177932317,124.08375652070511 134.2504796535491,158.873562032177" style="fill: none; stroke-opacity: 0.8; stroke: #003c30; stroke-width: 0.7px;"></path><path class="link" d="M204.66907694977866,37.07517957509431C190.8270946986164,82.75880574830252 178.17077670677762,132.43554782498333 143.2865696302303,169.56697486126586" style="fill: none; stroke-opacity: 0.8; stroke: #003c30; stroke-width: 0.7px;"></path><path class="link" d="M218.44488020601375,39.5706243541872C203.67122607256175,88.32910998136136 187.80162950173857,139.59422608579325 151.03178961024273,178.73275728619913" style="fill: none; stroke-opacity: 0.8; stroke: #003c30; stroke-width: 0.7px;"></path><path class="link" d="M230.25271156850098,41.709577021981104C214.68048153594347,93.10365646684033 178.17077670677762,132.43554782498333 143.2865696302303,169.56697486126586" style="fill: none; stroke-opacity: 0.8; stroke: #003c30; stroke-width: 0.7px;"></path><path class="link" d="M218.44488020601375,39.5706243541872C203.67122607256175,88.32910998136136 186.19648736924506,138.40111304232494 149.740919613574,177.2051268820436" style="fill: none; stroke-opacity: 0.8; stroke: #003c30; stroke-width: 0.7px;"></path><path class="link" d="M228.2847396747531,41.35308491068212C212.84560562537985,92.3078987192605 178.17077670677762,132.43554782498333 143.2865696302303,169.56697486126586" style="fill: none; stroke-opacity: 0.8; stroke: #003c30; stroke-width: 0.7px;"></path><path class="link" d="M139.72600445609888,25.310939902227847C130.276189650017,56.49880007816807 121.99080206950539,90.67659130359219 98.10611974682435,116.09991071582166" style="fill: none; stroke-opacity: 0.8; stroke: #003c30; stroke-width: 0.7px;"></path><path class="link" d="M149.56586392483825,27.09340045872277C139.45056920283508,60.47758881606723 113.96509140703793,84.7110260862506 91.65176976348063,108.46175869504393" style="fill: none; stroke-opacity: 0.8; stroke: #003c30; stroke-width: 0.7px;"></path><path class="link" d="M188.92530179979568,34.22324268470244C176.14808741410747,76.39274376766387 192.61705589921905,143.1735652161982 154.90439960024895,183.31564849866578" style="fill: none; stroke-opacity: 0.8; stroke: #003c30; stroke-width: 0.7px;"></path><path class="link" d="M236.1566272497446,42.779053355878055C220.18510926763435,95.49092970957983 154.09364471937522,114.53885217295857 123.92351968019918,146.65251879893262" style="fill: none; stroke-opacity: 0.8; stroke: #003c30; stroke-width: 0.7px;"></path><path class="link" d="M188.92530179979568,34.22324268470244C176.14808741410747,76.39274376766387 186.19648736924506,138.40111304232494 149.740919613574,177.2051268820436" style="fill: none; stroke-opacity: 0.8; stroke: #003c30; stroke-width: 0.7px;"></path><path class="link" d="M228.2847396747531,41.35308491068212C212.84560562537985,92.3078987192605 154.09364471937522,114.53885217295857 123.92351968019918,146.65251879893262" style="fill: none; stroke-opacity: 0.8; stroke: #003c30; stroke-width: 0.7px;"></path><path class="link" d="M188.92530179979568,34.22324268470244C176.14808741410747,76.39274376766387 171.75020817680365,127.66309565111007 138.12308964355532,163.45645324464365" style="fill: none; stroke-opacity: 0.8; stroke: #003c30; stroke-width: 0.7px;"></path><path class="link" d="M210.57299263102226,38.14465590899127C196.33172243030728,85.14607899104202 154.09364471937522,114.53885217295857 123.92351968019918,146.65251879893262" style="fill: none; stroke-opacity: 0.8; stroke: #003c30; stroke-width: 0.7px;"></path><path class="link" d="M173.1815266498127,31.371305794310572C161.46908012959852,70.02668178702521 155.69878685186873,115.73196521642689 125.21438967686791,148.18014920308818" style="fill: none; stroke-opacity: 0.8; stroke: #003c30; stroke-width: 0.7px;"></path><path class="link" d="M190.89327369354353,34.579734796001425C177.9829633246711,77.1885015152437 141.2525076594273,104.99394782521202 113.59655970684923,134.43147556568823" style="fill: none; stroke-opacity: 0.8; stroke: #003c30; stroke-width: 0.7px;"></path><path class="link" d="M173.1815266498127,31.371305794310572C161.46908012959852,70.02668178702521 133.22679699695985,99.02838260787043 107.14220972350553,126.79332354491049" style="fill: none; stroke-opacity: 0.8; stroke: #003c30; stroke-width: 0.7px;"></path><path class="link" d="M163.34166718107335,29.588845237815654C152.2947005767804,66.04789304912606 141.2525076594273,104.99394782521202 113.59655970684923,134.43147556568823" style="fill: none; stroke-opacity: 0.8; stroke: #003c30; stroke-width: 0.7px;"></path><path class="link" d="M173.1815266498127,31.371305794310572C161.46908012959852,70.02668178702521 113.96509140703793,84.7110260862506 91.65176976348063,108.46175869504393" style="fill: none; stroke-opacity: 0.8; stroke: #003c30; stroke-width: 0.7px;"></path><path class="link" d="M139.72600445609888,25.310939902227847C130.276189650017,56.49880007816807 141.2525076594273,104.99394782521202 113.59655970684923,134.43147556568823" style="fill: none; stroke-opacity: 0.8; stroke: #003c30; stroke-width: 0.7px;"></path><path class="link" d="M159.4057233935776,28.875861015217687C148.62494875565318,64.45637755396639 136.43708126194682,101.41460869480706 109.72394971684301,129.84858435322158" style="fill: none; stroke-opacity: 0.8; stroke: #003c30; stroke-width: 0.7px;"></path><path class="link" d="M167.2776109685691,30.30182946041362C155.96445239790765,67.63940854428571 130.01651273197285,96.64215652093378 104.56046973016805,123.7380627365994" style="fill: none; stroke-opacity: 0.8; stroke: #003c30; stroke-width: 0.7px;"></path><path class="link" d="M159.4057233935776,28.875861015217687C148.62494875565318,64.45637755396639 136.43708126194682,101.41460869480706 109.72394971684301,129.84858435322158" style="fill: none; stroke-opacity: 0.8; stroke: #003c30; stroke-width: 0.7px;"></path><path class="link" d="M167.2776109685691,30.30182946041362C155.96445239790765,67.63940854428571 130.01651273197285,96.64215652093378 104.56046973016805,123.7380627365994" style="fill: none; stroke-opacity: 0.8; stroke: #003c30; stroke-width: 0.7px;"></path><path class="link" d="M147.59789203109037,26.736908347423785C137.61569329227146,59.6818310684874 118.78051780451841,88.29036521665556 95.52437975348685,113.04464990751056" style="fill: none; stroke-opacity: 0.8; stroke: #003c30; stroke-width: 0.7px;"></path><path class="link" d="M145.6299201373425,26.3804162361248C135.78081738170783,58.88607332090756 120.38565993701191,89.48347826012387 96.8152497501556,114.57228031166612" style="fill: none; stroke-opacity: 0.8; stroke: #003c30; stroke-width: 0.7px;"></path><path class="link" d="M147.59789203109037,26.736908347423785C137.61569329227146,59.6818310684874 171.75020817680365,127.66309565111007 138.12308964355532,163.45645324464365" style="fill: none; stroke-opacity: 0.8; stroke: #003c30; stroke-width: 0.7px;"></path><path class="link" d="M210.57299263102226,38.14465590899127C196.33172243030728,85.14607899104202 120.38565993701191,89.48347826012387 96.8152497501556,114.57228031166612" style="fill: none; stroke-opacity: 0.8; stroke: #003c30; stroke-width: 0.7px;"></path><path class="link" d="M147.59789203109037,26.736908347423785C137.61569329227146,59.6818310684874 130.01651273197285,96.64215652093378 104.56046973016805,123.7380627365994" style="fill: none; stroke-opacity: 0.8; stroke: #003c30; stroke-width: 0.7px;"></path><path class="link" d="M159.4057233935776,28.875861015217687C148.62494875565318,64.45637755396639 120.38565993701191,89.48347826012387 96.8152497501556,114.57228031166612" style="fill: none; stroke-opacity: 0.8; stroke: #003c30; stroke-width: 0.7px;"></path><path class="link" d="M51.434671118317716,-140.90590692710683C109.3301551994492,-102.69818481387259 159.18839809418216,-47.06435925632158 163.34166718107335,29.588845237815654" style="fill: none; stroke-opacity: 0.8; stroke: #003c30; stroke-width: 0.7px;"></path><path class="link" d="M177.11747043730844,32.08429001690854C165.13883195072574,71.61819728218488 155.69878685186873,115.73196521642689 125.21438967686791,148.18014920308818" style="fill: none; stroke-opacity: 0.8; stroke: #003c30; stroke-width: 0.7px;"></path><path class="link" d="M190.89327369354353,34.579734796001425C177.9829633246711,77.1885015152437 144.4627919244143,107.38017391214865 116.17829970018673,137.48673637399935" style="fill: none; stroke-opacity: 0.8; stroke: #003c30; stroke-width: 0.7px;"></path><path class="link" d="M177.11747043730844,32.08429001690854C165.13883195072574,71.61819728218488 133.22679699695985,99.02838260787043 107.14220972350553,126.79332354491049" style="fill: none; stroke-opacity: 0.8; stroke: #003c30; stroke-width: 0.7px;"></path><path class="link" d="M163.34166718107335,29.588845237815654C152.2947005767804,66.04789304912606 144.4627919244143,107.38017391214865 116.17829970018673,137.48673637399935" style="fill: none; stroke-opacity: 0.8; stroke: #003c30; stroke-width: 0.7px;"></path><path class="link" d="M177.11747043730844,32.08429001690854C165.13883195072574,71.61819728218488 139.6473655269338,103.8008347817437 112.3056897101805,132.9038451615327" style="fill: none; stroke-opacity: 0.8; stroke: #003c30; stroke-width: 0.7px;"></path><path class="link" d="M171.21355475606484,31.01481368301159C159.6342042190349,69.23092403944538 144.4627919244143,107.38017391214865 116.17829970018673,137.48673637399935" style="fill: none; stroke-opacity: 0.8; stroke: #003c30; stroke-width: 0.7px;"></path><path class="link" d="M177.11747043730844,32.08429001690854C165.13883195072574,71.61819728218488 178.17077670677762,132.43554782498333 143.2865696302303,169.56697486126586" style="fill: none; stroke-opacity: 0.8; stroke: #003c30; stroke-width: 0.7px;"></path><path class="link" d="M218.44488020601375,39.5706243541872C203.67122607256175,88.32910998136136 144.4627919244143,107.38017391214865 116.17829970018673,137.48673637399935" style="fill: none; stroke-opacity: 0.8; stroke: #003c30; stroke-width: 0.7px;"></path><path class="link" d="M65.15058341653578,-178.48081544100197C138.48486325263565,-130.08436743090527 199.4649807445174,-58.9722091886439 204.66907694977866,37.07517957509431" style="fill: none; stroke-opacity: 0.8; stroke: #003c30; stroke-width: 0.7px;"></path><path class="link" d="M51.434671118317716,-140.90590692710683C109.3301551994492,-102.69818481387259 149.59873555838806,-44.22915689148293 153.501807712334,27.806384681320736" style="fill: none; stroke-opacity: 0.8; stroke: #003c30; stroke-width: 0.7px;"></path><path class="link" d="M226.31676778100524,40.99659279938314C211.01072971481622,91.51214097168068 166.93478177932317,124.08375652070511 134.2504796535491,158.873562032177" style="fill: none; stroke-opacity: 0.8; stroke: #003c30; stroke-width: 0.7px;"></path><path class="link" d="M204.66907694977866,37.07517957509431C190.8270946986164,82.75880574830252 184.59134523675158,137.20799999885662 148.45004961690526,175.67749647788804" style="fill: none; stroke-opacity: 0.8; stroke: #003c30; stroke-width: 0.7px;"></path><path class="link" d="M226.31676778100524,40.99659279938314C211.01072971481622,91.51214097168068 187.80162950173857,139.59422608579325 151.03178961024273,178.73275728619913" style="fill: none; stroke-opacity: 0.8; stroke: #003c30; stroke-width: 0.7px;"></path><path class="link" d="M230.25271156850098,41.709577021981104C214.68048153594347,93.10365646684033 184.59134523675158,137.20799999885662 148.45004961690526,175.67749647788804" style="fill: none; stroke-opacity: 0.8; stroke: #003c30; stroke-width: 0.7px;"></path><path class="link" d="M226.31676778100524,40.99659279938314C211.01072971481622,91.51214097168068 187.80162950173857,139.59422608579325 151.03178961024273,178.73275728619913" style="fill: none; stroke-opacity: 0.8; stroke: #003c30; stroke-width: 0.7px;"></path><path class="link" d="M230.25271156850098,41.709577021981104C214.68048153594347,93.10365646684033 184.59134523675158,137.20799999885662 148.45004961690526,175.67749647788804" style="fill: none; stroke-opacity: 0.8; stroke: #003c30; stroke-width: 0.7px;"></path><path class="link" d="M226.31676778100524,40.99659279938314C211.01072971481622,91.51214097168068 178.17077670677762,132.43554782498333 143.2865696302303,169.56697486126586" style="fill: none; stroke-opacity: 0.8; stroke: #003c30; stroke-width: 0.7px;"></path><path class="link" d="M218.44488020601375,39.5706243541872C203.67122607256175,88.32910998136136 184.59134523675158,137.20799999885662 148.45004961690526,175.67749647788804" style="fill: none; stroke-opacity: 0.8; stroke: #003c30; stroke-width: 0.7px;"></path><path class="link" d="M214.508936418518,38.857640131589235C200.00147425143453,86.73759448620169 165.3296396468297,122.8906434772368 132.95960965688036,157.34593162802148" style="fill: none; stroke-opacity: 0.8; stroke: #003c30; stroke-width: 0.7px;"></path><path class="link" d="M202.70110505603077,36.71868746379533C188.9922187880528,81.9630480007227 174.96049244179062,130.0493217380467 140.7048296368928,166.51171405295474" style="fill: none; stroke-opacity: 0.8; stroke: #003c30; stroke-width: 0.7px;"></path><path class="link" d="M50.748875503406815,-139.02716150141205C107.87241979678987,-101.32887568302095 159.18839809418216,-47.06435925632158 163.34166718107335,29.588845237815654" style="fill: none; stroke-opacity: 0.8; stroke: #003c30; stroke-width: 0.7px;"></path><path class="link" d="M71.32274395073391,-195.3895242722548C151.60448187656954,-142.40814960857 157.27046558702332,-46.49731878335385 161.37369528732546,29.23235312651667" style="fill: none; stroke-opacity: 0.8; stroke: #003c30; stroke-width: 0.7px;"></path><path class="link" d="M192.86124558729142,34.93622690730041C179.81783923523471,77.98425926282353 136.43708126194682,101.41460869480706 109.72394971684301,129.84858435322158" style="fill: none; stroke-opacity: 0.8; stroke: #003c30; stroke-width: 0.7px;"></path><path class="link" d="M167.2776109685691,30.30182946041362C155.96445239790765,67.63940854428571 157.30392898436222,116.9250782598952 126.50525967353666,149.7077796072437" style="fill: none; stroke-opacity: 0.8; stroke: #003c30; stroke-width: 0.7px;"></path><path class="link" d="M192.86124558729142,34.93622690730041C179.81783923523471,77.98425926282353 130.01651273197285,96.64215652093378 104.56046973016805,123.7380627365994" style="fill: none; stroke-opacity: 0.8; stroke: #003c30; stroke-width: 0.7px;"></path><path class="link" d="M159.4057233935776,28.875861015217687C148.62494875565318,64.45637755396639 157.30392898436222,116.9250782598952 126.50525967353666,149.7077796072437" style="fill: none; stroke-opacity: 0.8; stroke: #003c30; stroke-width: 0.7px;"></path><path class="link" d="M204.66907694977866,37.07517957509431C190.8270946986164,82.75880574830252 149.27821832189477,110.95951304255361 120.05090969019295,142.06962758646597" style="fill: none; stroke-opacity: 0.8; stroke: #003c30; stroke-width: 0.7px;"></path><path class="link" d="M183.02138611855207,33.15376635080549C170.64345968241662,74.00547052492438 166.93478177932317,124.08375652070511 134.2504796535491,158.873562032177" style="fill: none; stroke-opacity: 0.8; stroke: #003c30; stroke-width: 0.7px;"></path><path class="link" d="M204.66907694977866,37.07517957509431C190.8270946986164,82.75880574830252 131.62165486446634,97.83526956440211 105.8513397268368,125.26569314075495" style="fill: none; stroke-opacity: 0.8; stroke: #003c30; stroke-width: 0.7px;"></path><path class="link" d="M161.37369528732546,29.23235312651667C150.4598246662168,65.25213530154622 166.93478177932317,124.08375652070511 134.2504796535491,158.873562032177" style="fill: none; stroke-opacity: 0.8; stroke: #003c30; stroke-width: 0.7px;"></path><path class="link" d="M61.72160534198126,-169.08708831252818C131.19618623933903,-123.23782177664711 151.51666806554687,-44.796197364450656 155.46977960608186,28.16287679261972" style="fill: none; stroke-opacity: 0.8; stroke: #003c30; stroke-width: 0.7px;"></path><path class="link" d="M198.76516126853502,36.00570324119736C185.32246696692556,80.37153250556302 178.17077670677762,132.43554782498333 143.2865696302303,169.56697486126586" style="fill: none; stroke-opacity: 0.8; stroke: #003c30; stroke-width: 0.7px;"></path><path class="link" d="M218.44488020601375,39.5706243541872C203.67122607256175,88.32910998136136 162.1193553818427,120.50441739030016 130.37786966354287,154.29067081971036" style="fill: none; stroke-opacity: 0.8; stroke: #003c30; stroke-width: 0.7px;"></path><path class="link" d="M198.76516126853502,36.00570324119736C185.32246696692556,80.37153250556302 184.59134523675158,137.20799999885662 148.45004961690526,175.67749647788804" style="fill: none; stroke-opacity: 0.8; stroke: #003c30; stroke-width: 0.7px;"></path><path class="link" d="M226.31676778100524,40.99659279938314C211.01072971481622,91.51214097168068 162.1193553818427,120.50441739030016 130.37786966354287,154.29067081971036" style="fill: none; stroke-opacity: 0.8; stroke: #003c30; stroke-width: 0.7px;"></path><path class="link" d="M214.508936418518,38.857640131589235C200.00147425143453,86.73759448620169 165.3296396468297,122.8906434772368 132.95960965688036,157.34593162802148" style="fill: none; stroke-opacity: 0.8; stroke: #003c30; stroke-width: 0.7px;"></path><path class="link" d="M202.70110505603077,36.71868746379533C188.9922187880528,81.9630480007227 174.96049244179062,130.0493217380467 140.7048296368928,166.51171405295474" style="fill: none; stroke-opacity: 0.8; stroke: #003c30; stroke-width: 0.7px;"></path><path class="link" d="M214.508936418518,38.857640131589235C200.00147425143453,86.73759448620169 192.61705589921905,143.1735652161982 154.90439960024895,183.31564849866578" style="fill: none; stroke-opacity: 0.8; stroke: #003c30; stroke-width: 0.7px;"></path><path class="link" d="M236.1566272497446,42.779053355878055C220.18510926763435,95.49092970957983 174.96049244179062,130.0493217380467 140.7048296368928,166.51171405295474" style="fill: none; stroke-opacity: 0.8; stroke: #003c30; stroke-width: 0.7px;"></path><path class="link" d="M157.43775149982974,28.519368903918703C146.79007284508955,63.660619806386556 136.43708126194682,101.41460869480706 109.72394971684301,129.84858435322158" style="fill: none; stroke-opacity: 0.8; stroke: #003c30; stroke-width: 0.7px;"></path><path class="link" d="M167.2776109685691,30.30182946041362C155.96445239790765,67.63940854428571 128.41137059947937,95.44904347746547 103.2695997334993,122.21043233244386" style="fill: none; stroke-opacity: 0.8; stroke: #003c30; stroke-width: 0.7px;"></path><path class="link" d="M157.43775149982974,28.519368903918703C146.79007284508955,63.660619806386556 130.01651273197285,96.64215652093378 104.56046973016805,123.7380627365994" style="fill: none; stroke-opacity: 0.8; stroke: #003c30; stroke-width: 0.7px;"></path><path class="link" d="M159.4057233935776,28.875861015217687C148.62494875565318,64.45637755396639 128.41137059947937,95.44904347746547 103.2695997334993,122.21043233244386" style="fill: none; stroke-opacity: 0.8; stroke: #003c30; stroke-width: 0.7px;"></path><path class="link" d="M208.6050207372744,37.78816379769228C194.49684651974366,84.35032124346219 125.20108633449237,93.06281739052883 100.68785974016183,119.15517152413275" style="fill: none; stroke-opacity: 0.8; stroke: #003c30; stroke-width: 0.7px;"></path><path class="link" d="M153.501807712334,27.806384681320736C143.1203210239623,62.069104311226894 170.14506604431014,126.46998260764175 136.83221964688659,161.9288228404881" style="fill: none; stroke-opacity: 0.8; stroke: #003c30; stroke-width: 0.7px;"></path><path class="link" d="M208.6050207372744,37.78816379769228C194.49684651974366,84.35032124346219 165.3296396468297,122.8906434772368 132.95960965688036,157.34593162802148" style="fill: none; stroke-opacity: 0.8; stroke: #003c30; stroke-width: 0.7px;"></path><path class="link" d="M202.70110505603077,36.71868746379533C188.9922187880528,81.9630480007227 170.14506604431014,126.46998260764175 136.83221964688659,161.9288228404881" style="fill: none; stroke-opacity: 0.8; stroke: #003c30; stroke-width: 0.7px;"></path><path class="link" d="M208.6050207372744,37.78816379769228C194.49684651974366,84.35032124346219 192.61705589921905,143.1735652161982 154.90439960024895,183.31564849866578" style="fill: none; stroke-opacity: 0.8; stroke: #003c30; stroke-width: 0.7px;"></path><path class="link" d="M236.1566272497446,42.779053355878055C220.18510926763435,95.49092970957983 170.14506604431014,126.46998260764175 136.83221964688659,161.9288228404881" style="fill: none; stroke-opacity: 0.8; stroke: #003c30; stroke-width: 0.7px;"></path><path class="link" d="M208.6050207372744,37.78816379769228C194.49684651974366,84.35032124346219 171.75020817680365,127.66309565111007 138.12308964355532,163.45645324464365" style="fill: none; stroke-opacity: 0.8; stroke: #003c30; stroke-width: 0.7px;"></path><path class="link" d="M210.57299263102226,38.14465590899127C196.33172243030728,85.14607899104202 170.14506604431014,126.46998260764175 136.83221964688659,161.9288228404881" style="fill: none; stroke-opacity: 0.8; stroke: #003c30; stroke-width: 0.7px;"></path><path class="link" d="M208.6050207372744,37.78816379769228C194.49684651974366,84.35032124346219 130.01651273197285,96.64215652093378 104.56046973016805,123.7380627365994" style="fill: none; stroke-opacity: 0.8; stroke: #003c30; stroke-width: 0.7px;"></path><path class="link" d="M159.4057233935776,28.875861015217687C148.62494875565318,64.45637755396639 170.14506604431014,126.46998260764175 136.83221964688659,161.9288228404881" style="fill: none; stroke-opacity: 0.8; stroke: #003c30; stroke-width: 0.7px;"></path><path class="link" d="M208.6050207372744,37.78816379769228C194.49684651974366,84.35032124346219 154.09364471937522,114.53885217295857 123.92351968019918,146.65251879893262" style="fill: none; stroke-opacity: 0.8; stroke: #003c30; stroke-width: 0.7px;"></path><path class="link" d="M188.92530179979568,34.22324268470244C176.14808741410747,76.39274376766387 170.14506604431014,126.46998260764175 136.83221964688659,161.9288228404881" style="fill: none; stroke-opacity: 0.8; stroke: #003c30; stroke-width: 0.7px;"></path><path class="link" d="M208.6050207372744,37.78816379769228C194.49684651974366,84.35032124346219 174.96049244179062,130.0493217380467 140.7048296368928,166.51171405295474" style="fill: none; stroke-opacity: 0.8; stroke: #003c30; stroke-width: 0.7px;"></path><path class="link" d="M214.508936418518,38.857640131589235C200.00147425143453,86.73759448620169 170.14506604431014,126.46998260764175 136.83221964688659,161.9288228404881" style="fill: none; stroke-opacity: 0.8; stroke: #003c30; stroke-width: 0.7px;"></path><path class="link" d="M202.70110505603077,36.71868746379533C188.9922187880528,81.9630480007227 186.19648736924506,138.40111304232494 149.740919613574,177.2051268820436" style="fill: none; stroke-opacity: 0.8; stroke: #003c30; stroke-width: 0.7px;"></path><path class="link" d="M228.2847396747531,41.35308491068212C212.84560562537985,92.3078987192605 165.3296396468297,122.8906434772368 132.95960965688036,157.34593162802148" style="fill: none; stroke-opacity: 0.8; stroke: #003c30; stroke-width: 0.7px;"></path><path class="link" d="M202.70110505603077,36.71868746379533C188.9922187880528,81.9630480007227 171.75020817680365,127.66309565111007 138.12308964355532,163.45645324464365" style="fill: none; stroke-opacity: 0.8; stroke: #003c30; stroke-width: 0.7px;"></path><path class="link" d="M210.57299263102226,38.14465590899127C196.33172243030728,85.14607899104202 165.3296396468297,122.8906434772368 132.95960965688036,157.34593162802148" style="fill: none; stroke-opacity: 0.8; stroke: #003c30; stroke-width: 0.7px;"></path><path class="link" d="M202.70110505603077,36.71868746379533C188.9922187880528,81.9630480007227 178.17077670677762,132.43554782498333 143.2865696302303,169.56697486126586" style="fill: none; stroke-opacity: 0.8; stroke: #003c30; stroke-width: 0.7px;"></path><path class="link" d="M218.44488020601375,39.5706243541872C203.67122607256175,88.32910998136136 165.3296396468297,122.8906434772368 132.95960965688036,157.34593162802148" style="fill: none; stroke-opacity: 0.8; stroke: #003c30; stroke-width: 0.7px;"></path><path class="link" d="M202.70110505603077,36.71868746379533C188.9922187880528,81.9630480007227 154.09364471937522,114.53885217295857 123.92351968019918,146.65251879893262" style="fill: none; stroke-opacity: 0.8; stroke: #003c30; stroke-width: 0.7px;"></path><path class="link" d="M188.92530179979568,34.22324268470244C176.14808741410747,76.39274376766387 165.3296396468297,122.8906434772368 132.95960965688036,157.34593162802148" style="fill: none; stroke-opacity: 0.8; stroke: #003c30; stroke-width: 0.7px;"></path><path class="link" d="M202.70110505603077,36.71868746379533C188.9922187880528,81.9630480007227 174.96049244179062,130.0493217380467 140.7048296368928,166.51171405295474" style="fill: none; stroke-opacity: 0.8; stroke: #003c30; stroke-width: 0.7px;"></path><path class="link" d="M214.508936418518,38.857640131589235C200.00147425143453,86.73759448620169 165.3296396468297,122.8906434772368 132.95960965688036,157.34593162802148" style="fill: none; stroke-opacity: 0.8; stroke: #003c30; stroke-width: 0.7px;"></path><path class="link" d="M61.72160534198126,-169.08708831252818C131.19618623933903,-123.23782177664711 157.27046558702332,-46.49731878335385 161.37369528732546,29.23235312651667" style="fill: none; stroke-opacity: 0.8; stroke: #003c30; stroke-width: 0.7px;"></path><path class="link" d="M179.08544233105633,32.44078212820752C166.97370786128937,72.41395502976471 149.27821832189477,110.95951304255361 120.05090969019295,142.06962758646597" style="fill: none; stroke-opacity: 0.8; stroke: #003c30; stroke-width: 0.7px;"></path><path class="link" d="M183.02138611855207,33.15376635080549C170.64345968241662,74.00547052492438 146.06793405690777,108.57328695561696 117.46916969685546,139.01436677815488" style="fill: none; stroke-opacity: 0.8; stroke: #003c30; stroke-width: 0.7px;"></path><path class="link" d="M179.08544233105633,32.44078212820752C166.97370786128937,72.41395502976471 171.75020817680365,127.66309565111007 138.12308964355532,163.45645324464365" style="fill: none; stroke-opacity: 0.8; stroke: #003c30; stroke-width: 0.7px;"></path><path class="link" d="M210.57299263102226,38.14465590899127C196.33172243030728,85.14607899104202 146.06793405690777,108.57328695561696 117.46916969685546,139.01436677815488" style="fill: none; stroke-opacity: 0.8; stroke: #003c30; stroke-width: 0.7px;"></path><path class="link" d="M179.08544233105633,32.44078212820752C166.97370786128937,72.41395502976471 154.09364471937522,114.53885217295857 123.92351968019918,146.65251879893262" style="fill: none; stroke-opacity: 0.8; stroke: #003c30; stroke-width: 0.7px;"></path><path class="link" d="M188.92530179979568,34.22324268470244C176.14808741410747,76.39274376766387 146.06793405690777,108.57328695561696 117.46916969685546,139.01436677815488" style="fill: none; stroke-opacity: 0.8; stroke: #003c30; stroke-width: 0.7px;"></path><path class="link" d="M179.08544233105633,32.44078212820752C166.97370786128937,72.41395502976471 165.3296396468297,122.8906434772368 132.95960965688036,157.34593162802148" style="fill: none; stroke-opacity: 0.8; stroke: #003c30; stroke-width: 0.7px;"></path><path class="link" d="M202.70110505603077,36.71868746379533C188.9922187880528,81.9630480007227 146.06793405690777,108.57328695561696 117.46916969685546,139.01436677815488" style="fill: none; stroke-opacity: 0.8; stroke: #003c30; stroke-width: 0.7px;"></path><path class="link" d="M184.98935801229993,33.510258462104474C172.47833559298022,74.8012282725042 136.43708126194682,101.41460869480706 109.72394971684301,129.84858435322158" style="fill: none; stroke-opacity: 0.8; stroke: #003c30; stroke-width: 0.7px;"></path><path class="link" d="M167.2776109685691,30.30182946041362C155.96445239790765,67.63940854428571 150.88336045438825,112.15262608602193 121.34177968686168,143.59725799062153" style="fill: none; stroke-opacity: 0.8; stroke: #003c30; stroke-width: 0.7px;"></path><path class="link" d="M184.98935801229993,33.510258462104474C172.47833559298022,74.8012282725042 174.96049244179062,130.0493217380467 140.7048296368928,166.51171405295474" style="fill: none; stroke-opacity: 0.8; stroke: #003c30; stroke-width: 0.7px;"></path><path class="link" d="M214.508936418518,38.857640131589235C200.00147425143453,86.73759448620169 150.88336045438825,112.15262608602193 121.34177968686168,143.59725799062153" style="fill: none; stroke-opacity: 0.8; stroke: #003c30; stroke-width: 0.7px;"></path><path class="link" d="M179.08544233105633,32.44078212820752C166.97370786128937,72.41395502976471 187.80162950173857,139.59422608579325 151.03178961024273,178.73275728619913" style="fill: none; stroke-opacity: 0.8; stroke: #003c30; stroke-width: 0.7px;"></path><path class="link" d="M230.25271156850098,41.709577021981104C214.68048153594347,93.10365646684033 146.06793405690777,108.57328695561696 117.46916969685546,139.01436677815488" style="fill: none; stroke-opacity: 0.8; stroke: #003c30; stroke-width: 0.7px;"></path><path class="link" d="M179.08544233105633,32.44078212820752C166.97370786128937,72.41395502976471 144.4627919244143,107.38017391214865 116.17829970018673,137.48673637399935" style="fill: none; stroke-opacity: 0.8; stroke: #003c30; stroke-width: 0.7px;"></path><path class="link" d="M177.11747043730844,32.08429001690854C165.13883195072574,71.61819728218488 146.06793405690777,108.57328695561696 117.46916969685546,139.01436677815488" style="fill: none; stroke-opacity: 0.8; stroke: #003c30; stroke-width: 0.7px;"></path><path class="link" d="M167.2776109685691,30.30182946041362C155.96445239790765,67.63940854428571 155.69878685186873,115.73196521642689 125.21438967686791,148.18014920308818" style="fill: none; stroke-opacity: 0.8; stroke: #003c30; stroke-width: 0.7px;"></path><path class="link" d="M190.89327369354353,34.579734796001425C177.9829633246711,77.1885015152437 136.43708126194682,101.41460869480706 109.72394971684301,129.84858435322158" style="fill: none; stroke-opacity: 0.8; stroke: #003c30; stroke-width: 0.7px;"></path><path class="link" d="M167.2776109685691,30.30182946041362C155.96445239790765,67.63940854428571 146.06793405690777,108.57328695561696 117.46916969685546,139.01436677815488" style="fill: none; stroke-opacity: 0.8; stroke: #003c30; stroke-width: 0.7px;"></path><path class="link" d="M179.08544233105633,32.44078212820752C166.97370786128937,72.41395502976471 136.43708126194682,101.41460869480706 109.72394971684301,129.84858435322158" style="fill: none; stroke-opacity: 0.8; stroke: #003c30; stroke-width: 0.7px;"></path><path class="link" d="M194.82921748103928,35.29271901859939C181.6527151457983,78.78001701040337 186.19648736924506,138.40111304232494 149.740919613574,177.2051268820436" style="fill: none; stroke-opacity: 0.8; stroke: #003c30; stroke-width: 0.7px;"></path><path class="link" d="M228.2847396747531,41.35308491068212C212.84560562537985,92.3078987192605 158.9090711168557,118.11819130336352 127.79612967020539,151.23541001139927" style="fill: none; stroke-opacity: 0.8; stroke: #003c30; stroke-width: 0.7px;"></path><path class="link" d="M194.82921748103928,35.29271901859939C181.6527151457983,78.78001701040337 171.75020817680365,127.66309565111007 138.12308964355532,163.45645324464365" style="fill: none; stroke-opacity: 0.8; stroke: #003c30; stroke-width: 0.7px;"></path><path class="link" d="M210.57299263102226,38.14465590899127C196.33172243030728,85.14607899104202 158.9090711168557,118.11819130336352 127.79612967020539,151.23541001139927" style="fill: none; stroke-opacity: 0.8; stroke: #003c30; stroke-width: 0.7px;"></path><path class="link" d="M194.82921748103928,35.29271901859939C181.6527151457983,78.78001701040337 165.3296396468297,122.8906434772368 132.95960965688036,157.34593162802148" style="fill: none; stroke-opacity: 0.8; stroke: #003c30; stroke-width: 0.7px;"></path><path class="link" d="M202.70110505603077,36.71868746379533C188.9922187880528,81.9630480007227 158.9090711168557,118.11819130336352 127.79612967020539,151.23541001139927" style="fill: none; stroke-opacity: 0.8; stroke: #003c30; stroke-width: 0.7px;"></path><path class="link" d="M194.82921748103928,35.29271901859939C181.6527151457983,78.78001701040337 146.06793405690777,108.57328695561696 117.46916969685546,139.01436677815488" style="fill: none; stroke-opacity: 0.8; stroke: #003c30; stroke-width: 0.7px;"></path><path class="link" d="M179.08544233105633,32.44078212820752C166.97370786128937,72.41395502976471 158.9090711168557,118.11819130336352 127.79612967020539,151.23541001139927" style="fill: none; stroke-opacity: 0.8; stroke: #003c30; stroke-width: 0.7px;"></path><path class="link" d="M198.76516126853502,36.00570324119736C185.32246696692556,80.37153250556302 155.69878685186873,115.73196521642689 125.21438967686791,148.18014920308818" style="fill: none; stroke-opacity: 0.8; stroke: #003c30; stroke-width: 0.7px;"></path><path class="link" d="M190.89327369354353,34.579734796001425C177.9829633246711,77.1885015152437 162.1193553818427,120.50441739030016 130.37786966354287,154.29067081971036" style="fill: none; stroke-opacity: 0.8; stroke: #003c30; stroke-width: 0.7px;"></path><path class="link" d="M198.76516126853502,36.00570324119736C185.32246696692556,80.37153250556302 187.80162950173857,139.59422608579325 151.03178961024273,178.73275728619913" style="fill: none; stroke-opacity: 0.8; stroke: #003c30; stroke-width: 0.7px;"></path><path class="link" d="M230.25271156850098,41.709577021981104C214.68048153594347,93.10365646684033 162.1193553818427,120.50441739030016 130.37786966354287,154.29067081971036" style="fill: none; stroke-opacity: 0.8; stroke: #003c30; stroke-width: 0.7px;"></path><path class="link" d="M198.76516126853502,36.00570324119736C185.32246696692556,80.37153250556302 141.2525076594273,104.99394782521202 113.59655970684923,134.43147556568823" style="fill: none; stroke-opacity: 0.8; stroke: #003c30; stroke-width: 0.7px;"></path><path class="link" d="M173.1815266498127,31.371305794310572C161.46908012959852,70.02668178702521 162.1193553818427,120.50441739030016 130.37786966354287,154.29067081971036" style="fill: none; stroke-opacity: 0.8; stroke: #003c30; stroke-width: 0.7px;"></path><path class="link" d="M66.52217464635758,-182.23830629239148C141.4003340579543,-132.82298569260854 193.71118322304093,-57.27108776974072 198.76516126853502,36.00570324119736" style="fill: none; stroke-opacity: 0.8; stroke: #003c30; stroke-width: 0.7px;"></path><path class="link" d="M179.08544233105633,32.44078212820752C166.97370786128937,72.41395502976471 136.43708126194682,101.41460869480706 109.72394971684301,129.84858435322158" style="fill: none; stroke-opacity: 0.8; stroke: #003c30; stroke-width: 0.7px;"></path><path class="link" d="M167.2776109685691,30.30182946041362C155.96445239790765,67.63940854428571 146.06793405690777,108.57328695561696 117.46916969685546,139.01436677815488" style="fill: none; stroke-opacity: 0.8; stroke: #003c30; stroke-width: 0.7px;"></path><path class="link" d="M179.08544233105633,32.44078212820752C166.97370786128937,72.41395502976471 174.96049244179062,130.0493217380467 140.7048296368928,166.51171405295474" style="fill: none; stroke-opacity: 0.8; stroke: #003c30; stroke-width: 0.7px;"></path><path class="link" d="M214.508936418518,38.857640131589235C200.00147425143453,86.73759448620169 146.06793405690777,108.57328695561696 117.46916969685546,139.01436677815488" style="fill: none; stroke-opacity: 0.8; stroke: #003c30; stroke-width: 0.7px;"></path><path class="link" d="M179.08544233105633,32.44078212820752C166.97370786128937,72.41395502976471 165.3296396468297,122.8906434772368 132.95960965688036,157.34593162802148" style="fill: none; stroke-opacity: 0.8; stroke: #003c30; stroke-width: 0.7px;"></path><path class="link" d="M202.70110505603077,36.71868746379533C188.9922187880528,81.9630480007227 146.06793405690777,108.57328695561696 117.46916969685546,139.01436677815488" style="fill: none; stroke-opacity: 0.8; stroke: #003c30; stroke-width: 0.7px;"></path><path class="link" d="M224.34879588725735,40.64010068808415C209.17585380425263,90.71638322410085 187.80162950173857,139.59422608579325 151.03178961024273,178.73275728619913" style="fill: none; stroke-opacity: 0.8; stroke: #003c30; stroke-width: 0.7px;"></path><path class="link" d="M230.25271156850098,41.709577021981104C214.68048153594347,93.10365646684033 182.9862031042581,136.0148869553883 147.15917962023653,174.14986607373248" style="fill: none; stroke-opacity: 0.8; stroke: #003c30; stroke-width: 0.7px;"></path><path class="link" d="M194.82921748103928,35.29271901859939C181.6527151457983,78.78001701040337 125.20108633449237,93.06281739052883 100.68785974016183,119.15517152413275" style="fill: none; stroke-opacity: 0.8; stroke: #003c30; stroke-width: 0.7px;"></path><path class="link" d="M153.501807712334,27.806384681320736C143.1203210239623,62.069104311226894 158.9090711168557,118.11819130336352 127.79612967020539,151.23541001139927" style="fill: none; stroke-opacity: 0.8; stroke: #003c30; stroke-width: 0.7px;"></path><path class="link" d="M194.82921748103928,35.29271901859939C181.6527151457983,78.78001701040337 165.3296396468297,122.8906434772368 132.95960965688036,157.34593162802148" style="fill: none; stroke-opacity: 0.8; stroke: #003c30; stroke-width: 0.7px;"></path><path class="link" d="M202.70110505603077,36.71868746379533C188.9922187880528,81.9630480007227 158.9090711168557,118.11819130336352 127.79612967020539,151.23541001139927" style="fill: none; stroke-opacity: 0.8; stroke: #003c30; stroke-width: 0.7px;"></path><path class="link" d="M194.82921748103928,35.29271901859939C181.6527151457983,78.78001701040337 130.01651273197285,96.64215652093378 104.56046973016805,123.7380627365994" style="fill: none; stroke-opacity: 0.8; stroke: #003c30; stroke-width: 0.7px;"></path><path class="link" d="M159.4057233935776,28.875861015217687C148.62494875565318,64.45637755396639 158.9090711168557,118.11819130336352 127.79612967020539,151.23541001139927" style="fill: none; stroke-opacity: 0.8; stroke: #003c30; stroke-width: 0.7px;"></path><path class="link" d="M194.82921748103928,35.29271901859939C181.6527151457983,78.78001701040337 174.96049244179062,130.0493217380467 140.7048296368928,166.51171405295474" style="fill: none; stroke-opacity: 0.8; stroke: #003c30; stroke-width: 0.7px;"></path><path class="link" d="M214.508936418518,38.857640131589235C200.00147425143453,86.73759448620169 158.9090711168557,118.11819130336352 127.79612967020539,151.23541001139927" style="fill: none; stroke-opacity: 0.8; stroke: #003c30; stroke-width: 0.7px;"></path><path class="link" d="M194.82921748103928,35.29271901859939C181.6527151457983,78.78001701040337 157.30392898436222,116.9250782598952 126.50525967353666,149.7077796072437" style="fill: none; stroke-opacity: 0.8; stroke: #003c30; stroke-width: 0.7px;"></path><path class="link" d="M192.86124558729142,34.93622690730041C179.81783923523471,77.98425926282353 158.9090711168557,118.11819130336352 127.79612967020539,151.23541001139927" style="fill: none; stroke-opacity: 0.8; stroke: #003c30; stroke-width: 0.7px;"></path><path class="link" d="M194.82921748103928,35.29271901859939C181.6527151457983,78.78001701040337 170.14506604431014,126.46998260764175 136.83221964688659,161.9288228404881" style="fill: none; stroke-opacity: 0.8; stroke: #003c30; stroke-width: 0.7px;"></path><path class="link" d="M208.6050207372744,37.78816379769228C194.49684651974366,84.35032124346219 158.9090711168557,118.11819130336352 127.79612967020539,151.23541001139927" style="fill: none; stroke-opacity: 0.8; stroke: #003c30; stroke-width: 0.7px;"></path><path class="link" d="M194.82921748103928,35.29271901859939C181.6527151457983,78.78001701040337 146.06793405690777,108.57328695561696 117.46916969685546,139.01436677815488" style="fill: none; stroke-opacity: 0.8; stroke: #003c30; stroke-width: 0.7px;"></path><path class="link" d="M179.08544233105633,32.44078212820752C166.97370786128937,72.41395502976471 158.9090711168557,118.11819130336352 127.79612967020539,151.23541001139927" style="fill: none; stroke-opacity: 0.8; stroke: #003c30; stroke-width: 0.7px;"></path><path class="link" d="M165.3096390748212,29.945337349114638C154.12957648734402,66.84365079670589 133.22679699695985,99.02838260787043 107.14220972350553,126.79332354491049" style="fill: none; stroke-opacity: 0.8; stroke: #003c30; stroke-width: 0.7px;"></path><path class="link" d="M163.34166718107335,29.588845237815654C152.2947005767804,66.04789304912606 134.83193912945333,100.22149565133874 108.43307972017428,128.32095394906605" style="fill: none; stroke-opacity: 0.8; stroke: #003c30; stroke-width: 0.7px;"></path><path class="link" d="M165.3096390748212,29.945337349114638C154.12957648734402,66.84365079670589 146.06793405690777,108.57328695561696 117.46916969685546,139.01436677815488" style="fill: none; stroke-opacity: 0.8; stroke: #003c30; stroke-width: 0.7px;"></path><path class="link" d="M179.08544233105633,32.44078212820752C166.97370786128937,72.41395502976471 134.83193912945333,100.22149565133874 108.43307972017428,128.32095394906605" style="fill: none; stroke-opacity: 0.8; stroke: #003c30; stroke-width: 0.7px;"></path><path class="link" d="M224.34879588725735,40.64010068808415C209.17585380425263,90.71638322410085 182.9862031042581,136.0148869553883 147.15917962023653,174.14986607373248" style="fill: none; stroke-opacity: 0.8; stroke: #003c30; stroke-width: 0.7px;"></path><path class="link" d="M224.34879588725735,40.64010068808415C209.17585380425263,90.71638322410085 182.9862031042581,136.0148869553883 147.15917962023653,174.14986607373248" style="fill: none; stroke-opacity: 0.8; stroke: #003c30; stroke-width: 0.7px;"></path><path class="link" d="M228.2847396747531,41.35308491068212C212.84560562537985,92.3078987192605 187.80162950173857,139.59422608579325 151.03178961024273,178.73275728619913" style="fill: none; stroke-opacity: 0.8; stroke: #003c30; stroke-width: 0.7px;"></path><path class="link" d="M230.25271156850098,41.709577021981104C214.68048153594347,93.10365646684033 186.19648736924506,138.40111304232494 149.740919613574,177.2051268820436" style="fill: none; stroke-opacity: 0.8; stroke: #003c30; stroke-width: 0.7px;"></path><path class="link" d="M228.2847396747531,41.35308491068212C212.84560562537985,92.3078987192605 155.69878685186873,115.73196521642689 125.21438967686791,148.18014920308818" style="fill: none; stroke-opacity: 0.8; stroke: #003c30; stroke-width: 0.7px;"></path><path class="link" d="M190.89327369354353,34.579734796001425C177.9829633246711,77.1885015152437 186.19648736924506,138.40111304232494 149.740919613574,177.2051268820436" style="fill: none; stroke-opacity: 0.8; stroke: #003c30; stroke-width: 0.7px;"></path><path class="link" d="M228.2847396747531,41.35308491068212C212.84560562537985,92.3078987192605 187.80162950173857,139.59422608579325 151.03178961024273,178.73275728619913" style="fill: none; stroke-opacity: 0.8; stroke: #003c30; stroke-width: 0.7px;"></path><path class="link" d="M230.25271156850098,41.709577021981104C214.68048153594347,93.10365646684033 186.19648736924506,138.40111304232494 149.740919613574,177.2051268820436" style="fill: none; stroke-opacity: 0.8; stroke: #003c30; stroke-width: 0.7px;"></path><path class="link" d="M228.2847396747531,41.35308491068212C212.84560562537985,92.3078987192605 171.75020817680365,127.66309565111007 138.12308964355532,163.45645324464365" style="fill: none; stroke-opacity: 0.8; stroke: #003c30; stroke-width: 0.7px;"></path><path class="link" d="M210.57299263102226,38.14465590899127C196.33172243030728,85.14607899104202 186.19648736924506,138.40111304232494 149.740919613574,177.2051268820436" style="fill: none; stroke-opacity: 0.8; stroke: #003c30; stroke-width: 0.7px;"></path><path class="link" d="M228.2847396747531,41.35308491068212C212.84560562537985,92.3078987192605 178.17077670677762,132.43554782498333 143.2865696302303,169.56697486126586" style="fill: none; stroke-opacity: 0.8; stroke: #003c30; stroke-width: 0.7px;"></path><path class="link" d="M218.44488020601375,39.5706243541872C203.67122607256175,88.32910998136136 186.19648736924506,138.40111304232494 149.740919613574,177.2051268820436" style="fill: none; stroke-opacity: 0.8; stroke: #003c30; stroke-width: 0.7px;"></path><path class="link" d="M228.2847396747531,41.35308491068212C212.84560562537985,92.3078987192605 144.4627919244143,107.38017391214865 116.17829970018673,137.48673637399935" style="fill: none; stroke-opacity: 0.8; stroke: #003c30; stroke-width: 0.7px;"></path><path class="link" d="M177.11747043730844,32.08429001690854C165.13883195072574,71.61819728218488 186.19648736924506,138.40111304232494 149.740919613574,177.2051268820436" style="fill: none; stroke-opacity: 0.8; stroke: #003c30; stroke-width: 0.7px;"></path><path class="link" d="M228.2847396747531,41.35308491068212C212.84560562537985,92.3078987192605 184.59134523675158,137.20799999885662 148.45004961690526,175.67749647788804" style="fill: none; stroke-opacity: 0.8; stroke: #003c30; stroke-width: 0.7px;"></path><path class="link" d="M226.31676778100524,40.99659279938314C211.01072971481622,91.51214097168068 186.19648736924506,138.40111304232494 149.740919613574,177.2051268820436" style="fill: none; stroke-opacity: 0.8; stroke: #003c30; stroke-width: 0.7px;"></path><path class="link" d="M228.2847396747531,41.35308491068212C212.84560562537985,92.3078987192605 162.1193553818427,120.50441739030016 130.37786966354287,154.29067081971036" style="fill: none; stroke-opacity: 0.8; stroke: #003c30; stroke-width: 0.7px;"></path><path class="link" d="M198.76516126853502,36.00570324119736C185.32246696692556,80.37153250556302 186.19648736924506,138.40111304232494 149.740919613574,177.2051268820436" style="fill: none; stroke-opacity: 0.8; stroke: #003c30; stroke-width: 0.7px;"></path><path class="link" d="M228.2847396747531,41.35308491068212C212.84560562537985,92.3078987192605 165.3296396468297,122.8906434772368 132.95960965688036,157.34593162802148" style="fill: none; stroke-opacity: 0.8; stroke: #003c30; stroke-width: 0.7px;"></path><path class="link" d="M202.70110505603077,36.71868746379533C188.9922187880528,81.9630480007227 186.19648736924506,138.40111304232494 149.740919613574,177.2051268820436" style="fill: none; stroke-opacity: 0.8; stroke: #003c30; stroke-width: 0.7px;"></path><path class="link" d="M228.2847396747531,41.35308491068212C212.84560562537985,92.3078987192605 158.9090711168557,118.11819130336352 127.79612967020539,151.23541001139927" style="fill: none; stroke-opacity: 0.8; stroke: #003c30; stroke-width: 0.7px;"></path><path class="link" d="M194.82921748103928,35.29271901859939C181.6527151457983,78.78001701040337 186.19648736924506,138.40111304232494 149.740919613574,177.2051268820436" style="fill: none; stroke-opacity: 0.8; stroke: #003c30; stroke-width: 0.7px;"></path><path class="link" d="M228.2847396747531,41.35308491068212C212.84560562537985,92.3078987192605 162.1193553818427,120.50441739030016 130.37786966354287,154.29067081971036" style="fill: none; stroke-opacity: 0.8; stroke: #003c30; stroke-width: 0.7px;"></path><path class="link" d="M198.76516126853502,36.00570324119736C185.32246696692556,80.37153250556302 186.19648736924506,138.40111304232494 149.740919613574,177.2051268820436" style="fill: none; stroke-opacity: 0.8; stroke: #003c30; stroke-width: 0.7px;"></path><path class="link" d="M228.2847396747531,41.35308491068212C212.84560562537985,92.3078987192605 182.9862031042581,136.0148869553883 147.15917962023653,174.14986607373248" style="fill: none; stroke-opacity: 0.8; stroke: #003c30; stroke-width: 0.7px;"></path><path class="link" d="M224.34879588725735,40.64010068808415C209.17585380425263,90.71638322410085 186.19648736924506,138.40111304232494 149.740919613574,177.2051268820436" style="fill: none; stroke-opacity: 0.8; stroke: #003c30; stroke-width: 0.7px;"></path><circle class="node" transform="rotate(10.26761414789408)" cx="142" r="7" stroke-width="0.5" stroke="grey" style="fill-opacity: 0.27; fill: #ffffff;"></circle><circle class="node" transform="rotate(-110.05352282957881)" cx="148" r="7" stroke-width="0.5" stroke="grey" style="fill-opacity: 0.27; fill: #ffffff;"></circle><circle class="node" transform="rotate(10.26761414789408)" cx="148" r="7" stroke-width="0.5" stroke="grey" style="fill-opacity: 0.27; fill: #ffffff;"></circle><circle class="node" transform="rotate(-110.05352282957881)" cx="150" r="7" stroke-width="0.5" stroke="grey" style="fill-opacity: 0.27; fill: #ffffff;"></circle><circle class="node" transform="rotate(-110.05352282957881)" cx="150" r="7" stroke-width="0.5" stroke="grey" style="fill-opacity: 0.27; fill: #ffffff;"></circle><circle class="node" transform="rotate(10.26761414789408)" cx="150" r="7" stroke-width="0.5" stroke="grey" style="fill-opacity: 0.27; fill: #ffffff;"></circle><circle class="node" transform="rotate(-110.05352282957881)" cx="152" r="7" stroke-width="0.5" stroke="grey" style="fill-opacity: 0.27; fill: #ffffff;"></circle><circle class="node" transform="rotate(10.26761414789408)" cx="152" r="7" stroke-width="0.5" stroke="grey" style="fill-opacity: 0.27; fill: #ffffff;"></circle><circle class="node" transform="rotate(-110.05352282957881)" cx="154" r="7" stroke-width="0.5" stroke="grey" style="fill-opacity: 0.27; fill: #ffffff;"></circle><circle class="node" transform="rotate(10.26761414789408)" cx="156" r="7" stroke-width="0.5" stroke="grey" style="fill-opacity: 0.27; fill: #ffffff;"></circle><circle class="node" transform="rotate(10.26761414789408)" cx="156" r="7" stroke-width="0.5" stroke="grey" style="fill-opacity: 0.27; fill: #ffffff;"></circle><circle class="node" transform="rotate(-110.05352282957881)" cx="158" r="7" stroke-width="0.5" stroke="grey" style="fill-opacity: 0.9; fill: #808080;"></circle><circle class="node" transform="rotate(10.26761414789408)" cx="158" r="7" stroke-width="0.5" stroke="grey" style="fill-opacity: 0.27; fill: #ffffff;"></circle><circle class="node" transform="rotate(10.26761414789408)" cx="158" r="7" stroke-width="0.5" stroke="grey" style="fill-opacity: 0.27; fill: #ffffff;"></circle><circle class="node" transform="rotate(10.26761414789408)" cx="160" r="7" stroke-width="0.5" stroke="grey" style="fill-opacity: 0.27; fill: #ffffff;"></circle><circle class="node" transform="rotate(10.26761414789408)" cx="162" r="7" stroke-width="0.5" stroke="grey" style="fill-opacity: 0.9; fill: #808080;"></circle><circle class="node" transform="rotate(10.26761414789408)" cx="162" r="7" stroke-width="0.5" stroke="grey" style="fill-opacity: 0.27; fill: #ffffff;"></circle><circle class="node" transform="rotate(10.26761414789408)" cx="162" r="7" stroke-width="0.5" stroke="grey" style="fill-opacity: 0.27; fill: #ffffff;"></circle><circle class="node" transform="rotate(10.26761414789408)" cx="164" r="7" stroke-width="0.5" stroke="grey" style="fill-opacity: 0.27; fill: #ffffff;"></circle><circle class="node" transform="rotate(10.26761414789408)" cx="166" r="7" stroke-width="0.5" stroke="grey" style="fill-opacity: 0.27; fill: #ffffff;"></circle><circle class="node" transform="rotate(10.26761414789408)" cx="166" r="7" stroke-width="0.5" stroke="grey" style="fill-opacity: 0.27; fill: #ffffff;"></circle><circle class="node" transform="rotate(10.26761414789408)" cx="166" r="7" stroke-width="0.5" stroke="grey" style="fill-opacity: 0.27; fill: #ffffff;"></circle><circle class="node" transform="rotate(10.26761414789408)" cx="166" r="7" stroke-width="0.5" stroke="grey" style="fill-opacity: 0.27; fill: #ffffff;"></circle><circle class="node" transform="rotate(-110.05352282957881)" cx="168" r="7" stroke-width="0.5" stroke="grey" style="fill-opacity: 0.27; fill: #ffffff;"></circle><circle class="node" transform="rotate(10.26761414789408)" cx="168" r="7" stroke-width="0.5" stroke="grey" style="fill-opacity: 0.27; fill: #ffffff;"></circle><circle class="node" transform="rotate(10.26761414789408)" cx="170" r="7" stroke-width="0.5" stroke="grey" style="fill-opacity: 0.27; fill: #ffffff;"></circle><circle class="node" transform="rotate(10.26761414789408)" cx="170" r="7" stroke-width="0.5" stroke="grey" style="fill-opacity: 0.27; fill: #ffffff;"></circle><circle class="node" transform="rotate(10.26761414789408)" cx="170" r="7" stroke-width="0.5" stroke="grey" style="fill-opacity: 0.27; fill: #ffffff;"></circle><circle class="node" transform="rotate(10.26761414789408)" cx="170" r="7" stroke-width="0.5" stroke="grey" style="fill-opacity: 0.27; fill: #ffffff;"></circle><circle class="node" transform="rotate(10.26761414789408)" cx="174" r="7" stroke-width="0.5" stroke="grey" style="fill-opacity: 0.27; fill: #ffffff;"></circle><circle class="node" transform="rotate(-110.05352282957881)" cx="174" r="7" stroke-width="0.5" stroke="grey" style="fill-opacity: 0.27; fill: #ffffff;"></circle><circle class="node" transform="rotate(10.26761414789408)" cx="176" r="7" stroke-width="0.5" stroke="grey" style="fill-opacity: 0.27; fill: #ffffff;"></circle><circle class="node" transform="rotate(-110.05352282957881)" cx="180" r="7" stroke-width="0.5" stroke="grey" style="fill-opacity: 0.27; fill: #ffffff;"></circle><circle class="node" transform="rotate(10.26761414789408)" cx="180" r="7" stroke-width="0.5" stroke="grey" style="fill-opacity: 0.27; fill: #ffffff;"></circle><circle class="node" transform="rotate(-110.05352282957881)" cx="180" r="7" stroke-width="0.5" stroke="grey" style="fill-opacity: 0.27; fill: #ffffff;"></circle><circle class="node" transform="rotate(10.26761414789408)" cx="182" r="7" stroke-width="0.5" stroke="grey" style="fill-opacity: 0.27; fill: #ffffff;"></circle><circle class="node" transform="rotate(10.26761414789408)" cx="182" r="7" stroke-width="0.5" stroke="grey" style="fill-opacity: 0.27; fill: #ffffff;"></circle><circle class="node" transform="rotate(10.26761414789408)" cx="182" r="7" stroke-width="0.5" stroke="grey" style="fill-opacity: 0.9; fill: #808080;"></circle><circle class="node" transform="rotate(10.26761414789408)" cx="182" r="7" stroke-width="0.5" stroke="grey" style="fill-opacity: 0.27; fill: #ffffff;"></circle><circle class="node" transform="rotate(-110.05352282957881)" cx="184" r="7" stroke-width="0.5" stroke="grey" style="fill-opacity: 0.27; fill: #ffffff;"></circle><circle class="node" transform="rotate(10.26761414789408)" cx="186" r="7" stroke-width="0.5" stroke="grey" style="fill-opacity: 0.27; fill: #ffffff;"></circle><circle class="node" transform="rotate(-110.05352282957881)" cx="186" r="7" stroke-width="0.5" stroke="grey" style="fill-opacity: 0.9; fill: #808080;"></circle><circle class="node" transform="rotate(10.26761414789408)" cx="188" r="7" stroke-width="0.5" stroke="grey" style="fill-opacity: 0.27; fill: #ffffff;"></circle><circle class="node" transform="rotate(10.26761414789408)" cx="188" r="7" stroke-width="0.5" stroke="grey" style="fill-opacity: 0.27; fill: #ffffff;"></circle><circle class="node" transform="rotate(-110.05352282957881)" cx="190" r="7" stroke-width="0.5" stroke="grey" style="fill-opacity: 0.27; fill: #ffffff;"></circle><circle class="node" transform="rotate(10.26761414789408)" cx="192" r="7" stroke-width="0.5" stroke="grey" style="fill-opacity: 0.27; fill: #ffffff;"></circle><circle class="node" transform="rotate(10.26761414789408)" cx="194" r="7" stroke-width="0.5" stroke="grey" style="fill-opacity: 0.27; fill: #ffffff;"></circle><circle class="node" transform="rotate(-110.05352282957881)" cx="194" r="7" stroke-width="0.5" stroke="grey" style="fill-opacity: 0.27; fill: #ffffff;"></circle><circle class="node" transform="rotate(10.26761414789408)" cx="196" r="7" stroke-width="0.5" stroke="grey" style="fill-opacity: 0.9; fill: #808080;"></circle><circle class="node" transform="rotate(10.26761414789408)" cx="198" r="7" stroke-width="0.5" stroke="grey" style="fill-opacity: 0.27; fill: #ffffff;"></circle><circle class="node" transform="rotate(10.26761414789408)" cx="198" r="7" stroke-width="0.5" stroke="grey" style="fill-opacity: 0.27; fill: #ffffff;"></circle><circle class="node" transform="rotate(-110.05352282957881)" cx="202" r="7" stroke-width="0.5" stroke="grey" style="fill-opacity: 0.27; fill: #ffffff;"></circle><circle class="node" transform="rotate(10.26761414789408)" cx="202" r="7" stroke-width="0.5" stroke="grey" style="fill-opacity: 0.9; fill: #808080;"></circle><circle class="node" transform="rotate(10.26761414789408)" cx="202" r="7" stroke-width="0.5" stroke="grey" style="fill-opacity: 0.27; fill: #ffffff;"></circle><circle class="node" transform="rotate(10.26761414789408)" cx="206" r="7" stroke-width="0.5" stroke="grey" style="fill-opacity: 0.9; fill: #808080;"></circle><circle class="node" transform="rotate(10.26761414789408)" cx="206" r="7" stroke-width="0.5" stroke="grey" style="fill-opacity: 0.27; fill: #ffffff;"></circle><circle class="node" transform="rotate(10.26761414789408)" cx="206" r="7" stroke-width="0.5" stroke="grey" style="fill-opacity: 0.27; fill: #ffffff;"></circle><circle class="node" transform="rotate(10.26761414789408)" cx="208" r="7" stroke-width="0.5" stroke="grey" style="fill-opacity: 0.27; fill: #ffffff;"></circle><circle class="node" transform="rotate(10.26761414789408)" cx="208" r="7" stroke-width="0.5" stroke="grey" style="fill-opacity: 0.27; fill: #ffffff;"></circle><circle class="node" transform="rotate(-110.05352282957881)" cx="208" r="7" stroke-width="0.5" stroke="grey" style="fill-opacity: 0.27; fill: #ffffff;"></circle><circle class="node" transform="rotate(10.26761414789408)" cx="212" r="7" stroke-width="0.5" stroke="grey" style="fill-opacity: 0.27; fill: #ffffff;"></circle><circle class="node" transform="rotate(10.26761414789408)" cx="214" r="7" stroke-width="0.5" stroke="grey" style="fill-opacity: 0.27; fill: #ffffff;"></circle><circle class="node" transform="rotate(10.26761414789408)" cx="218" r="7" stroke-width="0.5" stroke="grey" style="fill-opacity: 0.27; fill: #ffffff;"></circle><circle class="node" transform="rotate(-110.05352282957881)" cx="218" r="7" stroke-width="0.5" stroke="grey" style="fill-opacity: 0.27; fill: #ffffff;"></circle><circle class="node" transform="rotate(10.26761414789408)" cx="218" r="7" stroke-width="0.5" stroke="grey" style="fill-opacity: 0.27; fill: #ffffff;"></circle><circle class="node" transform="rotate(10.26761414789408)" cx="220" r="7" stroke-width="0.5" stroke="grey" style="fill-opacity: 0.27; fill: #ffffff;"></circle><circle class="node" transform="rotate(10.26761414789408)" cx="222" r="7" stroke-width="0.5" stroke="grey" style="fill-opacity: 0.27; fill: #ffffff;"></circle><circle class="node" transform="rotate(-110.05352282957881)" cx="226" r="7" stroke-width="0.5" stroke="grey" style="fill-opacity: 0.27; fill: #ffffff;"></circle><circle class="node" transform="rotate(10.26761414789408)" cx="228" r="7" stroke-width="0.5" stroke="grey" style="fill-opacity: 0.27; fill: #ffffff;"></circle><circle class="node" transform="rotate(10.26761414789408)" cx="228" r="7" stroke-width="0.5" stroke="grey" style="fill-opacity: 0.27; fill: #ffffff;"></circle><circle class="node" transform="rotate(10.26761414789408)" cx="230" r="7" stroke-width="0.5" stroke="grey" style="fill-opacity: 0.27; fill: #ffffff;"></circle><circle class="node" transform="rotate(10.26761414789408)" cx="232" r="7" stroke-width="0.5" stroke="grey" style="fill-opacity: 0.27; fill: #ffffff;"></circle><circle class="node" transform="rotate(10.26761414789408)" cx="232" r="7" stroke-width="0.5" stroke="grey" style="fill-opacity: 0.27; fill: #ffffff;"></circle><circle class="node" transform="rotate(10.26761414789408)" cx="234" r="7" stroke-width="0.5" stroke="grey" style="fill-opacity: 0.27; fill: #ffffff;"></circle><circle class="node" transform="rotate(10.26761414789408)" cx="234" r="7" stroke-width="0.5" stroke="grey" style="fill-opacity: 0.9; fill: #808080;"></circle><circle class="node" transform="rotate(10.26761414789408)" cx="240" r="7" stroke-width="0.5" stroke="grey" style="fill-opacity: 0.9; fill: #808080;"></circle><circle class="node" transform="rotate(49.80170201192087)" cx="142" r="7" stroke-width="0.5" stroke="grey" style="fill-opacity: 0.27; fill: #ffffff;"></circle><circle class="node" transform="rotate(-69.94647717042119)" cx="148" r="7" stroke-width="0.5" stroke="grey" style="fill-opacity: 0.27; fill: #ffffff;"></circle><circle class="node" transform="rotate(49.80170201192087)" cx="148" r="7" stroke-width="0.5" stroke="grey" style="fill-opacity: 0.27; fill: #ffffff;"></circle><circle class="node" transform="rotate(-69.94647717042119)" cx="150" r="7" stroke-width="0.5" stroke="grey" style="fill-opacity: 0.27; fill: #ffffff;"></circle><circle class="node" transform="rotate(-69.94647717042119)" cx="150" r="7" stroke-width="0.5" stroke="grey" style="fill-opacity: 0.27; fill: #ffffff;"></circle><circle class="node" transform="rotate(49.80170201192087)" cx="150" r="7" stroke-width="0.5" stroke="grey" style="fill-opacity: 0.27; fill: #ffffff;"></circle><circle class="node" transform="rotate(-69.94647717042119)" cx="152" r="7" stroke-width="0.5" stroke="grey" style="fill-opacity: 0.27; fill: #ffffff;"></circle><circle class="node" transform="rotate(49.80170201192087)" cx="152" r="7" stroke-width="0.5" stroke="grey" style="fill-opacity: 0.27; fill: #ffffff;"></circle><circle class="node" transform="rotate(-69.94647717042119)" cx="154" r="7" stroke-width="0.5" stroke="grey" style="fill-opacity: 0.27; fill: #ffffff;"></circle><circle class="node" transform="rotate(49.80170201192087)" cx="156" r="7" stroke-width="0.5" stroke="grey" style="fill-opacity: 0.27; fill: #ffffff;"></circle><circle class="node" transform="rotate(49.80170201192087)" cx="156" r="7" stroke-width="0.5" stroke="grey" style="fill-opacity: 0.27; fill: #ffffff;"></circle><circle class="node" transform="rotate(-69.94647717042119)" cx="158" r="7" stroke-width="0.5" stroke="grey" style="fill-opacity: 0.9; fill: #808080;"></circle><circle class="node" transform="rotate(49.80170201192087)" cx="158" r="7" stroke-width="0.5" stroke="grey" style="fill-opacity: 0.27; fill: #ffffff;"></circle><circle class="node" transform="rotate(49.80170201192087)" cx="158" r="7" stroke-width="0.5" stroke="grey" style="fill-opacity: 0.27; fill: #ffffff;"></circle><circle class="node" transform="rotate(49.80170201192087)" cx="160" r="7" stroke-width="0.5" stroke="grey" style="fill-opacity: 0.27; fill: #ffffff;"></circle><circle class="node" transform="rotate(49.80170201192087)" cx="162" r="7" stroke-width="0.5" stroke="grey" style="fill-opacity: 0.9; fill: #808080;"></circle><circle class="node" transform="rotate(49.80170201192087)" cx="162" r="7" stroke-width="0.5" stroke="grey" style="fill-opacity: 0.27; fill: #ffffff;"></circle><circle class="node" transform="rotate(49.80170201192087)" cx="162" r="7" stroke-width="0.5" stroke="grey" style="fill-opacity: 0.27; fill: #ffffff;"></circle><circle class="node" transform="rotate(49.80170201192087)" cx="164" r="7" stroke-width="0.5" stroke="grey" style="fill-opacity: 0.27; fill: #ffffff;"></circle><circle class="node" transform="rotate(49.80170201192087)" cx="166" r="7" stroke-width="0.5" stroke="grey" style="fill-opacity: 0.27; fill: #ffffff;"></circle><circle class="node" transform="rotate(49.80170201192087)" cx="166" r="7" stroke-width="0.5" stroke="grey" style="fill-opacity: 0.27; fill: #ffffff;"></circle><circle class="node" transform="rotate(49.80170201192087)" cx="166" r="7" stroke-width="0.5" stroke="grey" style="fill-opacity: 0.27; fill: #ffffff;"></circle><circle class="node" transform="rotate(49.80170201192087)" cx="166" r="7" stroke-width="0.5" stroke="grey" style="fill-opacity: 0.27; fill: #ffffff;"></circle><circle class="node" transform="rotate(-69.94647717042119)" cx="168" r="7" stroke-width="0.5" stroke="grey" style="fill-opacity: 0.27; fill: #ffffff;"></circle><circle class="node" transform="rotate(49.80170201192087)" cx="168" r="7" stroke-width="0.5" stroke="grey" style="fill-opacity: 0.27; fill: #ffffff;"></circle><circle class="node" transform="rotate(49.80170201192087)" cx="170" r="7" stroke-width="0.5" stroke="grey" style="fill-opacity: 0.27; fill: #ffffff;"></circle><circle class="node" transform="rotate(49.80170201192087)" cx="170" r="7" stroke-width="0.5" stroke="grey" style="fill-opacity: 0.27; fill: #ffffff;"></circle><circle class="node" transform="rotate(49.80170201192087)" cx="170" r="7" stroke-width="0.5" stroke="grey" style="fill-opacity: 0.27; fill: #ffffff;"></circle><circle class="node" transform="rotate(49.80170201192087)" cx="170" r="7" stroke-width="0.5" stroke="grey" style="fill-opacity: 0.27; fill: #ffffff;"></circle><circle class="node" transform="rotate(49.80170201192087)" cx="174" r="7" stroke-width="0.5" stroke="grey" style="fill-opacity: 0.27; fill: #ffffff;"></circle><circle class="node" transform="rotate(-69.94647717042119)" cx="174" r="7" stroke-width="0.5" stroke="grey" style="fill-opacity: 0.27; fill: #ffffff;"></circle><circle class="node" transform="rotate(49.80170201192087)" cx="176" r="7" stroke-width="0.5" stroke="grey" style="fill-opacity: 0.27; fill: #ffffff;"></circle><circle class="node" transform="rotate(-69.94647717042119)" cx="180" r="7" stroke-width="0.5" stroke="grey" style="fill-opacity: 0.27; fill: #ffffff;"></circle><circle class="node" transform="rotate(49.80170201192087)" cx="180" r="7" stroke-width="0.5" stroke="grey" style="fill-opacity: 0.27; fill: #ffffff;"></circle><circle class="node" transform="rotate(-69.94647717042119)" cx="180" r="7" stroke-width="0.5" stroke="grey" style="fill-opacity: 0.27; fill: #ffffff;"></circle><circle class="node" transform="rotate(49.80170201192087)" cx="182" r="7" stroke-width="0.5" stroke="grey" style="fill-opacity: 0.27; fill: #ffffff;"></circle><circle class="node" transform="rotate(49.80170201192087)" cx="182" r="7" stroke-width="0.5" stroke="grey" style="fill-opacity: 0.27; fill: #ffffff;"></circle><circle class="node" transform="rotate(49.80170201192087)" cx="182" r="7" stroke-width="0.5" stroke="grey" style="fill-opacity: 0.9; fill: #808080;"></circle><circle class="node" transform="rotate(49.80170201192087)" cx="182" r="7" stroke-width="0.5" stroke="grey" style="fill-opacity: 0.27; fill: #ffffff;"></circle><circle class="node" transform="rotate(-69.94647717042119)" cx="184" r="7" stroke-width="0.5" stroke="grey" style="fill-opacity: 0.27; fill: #ffffff;"></circle><circle class="node" transform="rotate(49.80170201192087)" cx="186" r="7" stroke-width="0.5" stroke="grey" style="fill-opacity: 0.27; fill: #ffffff;"></circle><circle class="node" transform="rotate(-69.94647717042119)" cx="186" r="7" stroke-width="0.5" stroke="grey" style="fill-opacity: 0.9; fill: #808080;"></circle><circle class="node" transform="rotate(49.80170201192087)" cx="188" r="7" stroke-width="0.5" stroke="grey" style="fill-opacity: 0.27; fill: #ffffff;"></circle><circle class="node" transform="rotate(49.80170201192087)" cx="188" r="7" stroke-width="0.5" stroke="grey" style="fill-opacity: 0.27; fill: #ffffff;"></circle><circle class="node" transform="rotate(-69.94647717042119)" cx="190" r="7" stroke-width="0.5" stroke="grey" style="fill-opacity: 0.27; fill: #ffffff;"></circle><circle class="node" transform="rotate(49.80170201192087)" cx="192" r="7" stroke-width="0.5" stroke="grey" style="fill-opacity: 0.27; fill: #ffffff;"></circle><circle class="node" transform="rotate(49.80170201192087)" cx="194" r="7" stroke-width="0.5" stroke="grey" style="fill-opacity: 0.27; fill: #ffffff;"></circle><circle class="node" transform="rotate(-69.94647717042119)" cx="194" r="7" stroke-width="0.5" stroke="grey" style="fill-opacity: 0.27; fill: #ffffff;"></circle><circle class="node" transform="rotate(49.80170201192087)" cx="196" r="7" stroke-width="0.5" stroke="grey" style="fill-opacity: 0.9; fill: #808080;"></circle><circle class="node" transform="rotate(49.80170201192087)" cx="198" r="7" stroke-width="0.5" stroke="grey" style="fill-opacity: 0.27; fill: #ffffff;"></circle><circle class="node" transform="rotate(49.80170201192087)" cx="198" r="7" stroke-width="0.5" stroke="grey" style="fill-opacity: 0.27; fill: #ffffff;"></circle><circle class="node" transform="rotate(-69.94647717042119)" cx="202" r="7" stroke-width="0.5" stroke="grey" style="fill-opacity: 0.27; fill: #ffffff;"></circle><circle class="node" transform="rotate(49.80170201192087)" cx="202" r="7" stroke-width="0.5" stroke="grey" style="fill-opacity: 0.9; fill: #808080;"></circle><circle class="node" transform="rotate(49.80170201192087)" cx="202" r="7" stroke-width="0.5" stroke="grey" style="fill-opacity: 0.27; fill: #ffffff;"></circle><circle class="node" transform="rotate(49.80170201192087)" cx="206" r="7" stroke-width="0.5" stroke="grey" style="fill-opacity: 0.9; fill: #808080;"></circle><circle class="node" transform="rotate(49.80170201192087)" cx="206" r="7" stroke-width="0.5" stroke="grey" style="fill-opacity: 0.27; fill: #ffffff;"></circle><circle class="node" transform="rotate(49.80170201192087)" cx="206" r="7" stroke-width="0.5" stroke="grey" style="fill-opacity: 0.27; fill: #ffffff;"></circle><circle class="node" transform="rotate(49.80170201192087)" cx="208" r="7" stroke-width="0.5" stroke="grey" style="fill-opacity: 0.27; fill: #ffffff;"></circle><circle class="node" transform="rotate(49.80170201192087)" cx="208" r="7" stroke-width="0.5" stroke="grey" style="fill-opacity: 0.27; fill: #ffffff;"></circle><circle class="node" transform="rotate(-69.94647717042119)" cx="208" r="7" stroke-width="0.5" stroke="grey" style="fill-opacity: 0.27; fill: #ffffff;"></circle><circle class="node" transform="rotate(49.80170201192087)" cx="212" r="7" stroke-width="0.5" stroke="grey" style="fill-opacity: 0.27; fill: #ffffff;"></circle><circle class="node" transform="rotate(49.80170201192087)" cx="214" r="7" stroke-width="0.5" stroke="grey" style="fill-opacity: 0.27; fill: #ffffff;"></circle><circle class="node" transform="rotate(49.80170201192087)" cx="218" r="7" stroke-width="0.5" stroke="grey" style="fill-opacity: 0.27; fill: #ffffff;"></circle><circle class="node" transform="rotate(-69.94647717042119)" cx="218" r="7" stroke-width="0.5" stroke="grey" style="fill-opacity: 0.27; fill: #ffffff;"></circle><circle class="node" transform="rotate(49.80170201192087)" cx="218" r="7" stroke-width="0.5" stroke="grey" style="fill-opacity: 0.27; fill: #ffffff;"></circle><circle class="node" transform="rotate(49.80170201192087)" cx="220" r="7" stroke-width="0.5" stroke="grey" style="fill-opacity: 0.27; fill: #ffffff;"></circle><circle class="node" transform="rotate(49.80170201192087)" cx="222" r="7" stroke-width="0.5" stroke="grey" style="fill-opacity: 0.27; fill: #ffffff;"></circle><circle class="node" transform="rotate(-69.94647717042119)" cx="226" r="7" stroke-width="0.5" stroke="grey" style="fill-opacity: 0.27; fill: #ffffff;"></circle><circle class="node" transform="rotate(49.80170201192087)" cx="228" r="7" stroke-width="0.5" stroke="grey" style="fill-opacity: 0.27; fill: #ffffff;"></circle><circle class="node" transform="rotate(49.80170201192087)" cx="228" r="7" stroke-width="0.5" stroke="grey" style="fill-opacity: 0.27; fill: #ffffff;"></circle><circle class="node" transform="rotate(49.80170201192087)" cx="230" r="7" stroke-width="0.5" stroke="grey" style="fill-opacity: 0.27; fill: #ffffff;"></circle><circle class="node" transform="rotate(49.80170201192087)" cx="232" r="7" stroke-width="0.5" stroke="grey" style="fill-opacity: 0.27; fill: #ffffff;"></circle><circle class="node" transform="rotate(49.80170201192087)" cx="232" r="7" stroke-width="0.5" stroke="grey" style="fill-opacity: 0.27; fill: #ffffff;"></circle><circle class="node" transform="rotate(49.80170201192087)" cx="234" r="7" stroke-width="0.5" stroke="grey" style="fill-opacity: 0.27; fill: #ffffff;"></circle><circle class="node" transform="rotate(49.80170201192087)" cx="234" r="7" stroke-width="0.5" stroke="grey" style="fill-opacity: 0.9; fill: #808080;"></circle><circle class="node" transform="rotate(49.80170201192087)" cx="240" r="7" stroke-width="0.5" stroke="grey" style="fill-opacity: 0.9; fill: #808080;"></circle></g></svg>