<?xml version="1.0" standalone="no"?><!DOCTYPE svg PUBLIC "-//W3C//DTD SVG 1.1//EN" "http://www.w3.org/Graphics/SVG/1.1/DTD/svg11.dtd"><svg class="Hive Plot Module C" width="960" height="500" version="1.1" xmlns="http://www.w3.org/2000/svg" xmlns:xlink="http://www.w3.org/1999/xlink" style="background-color: rgb(245, 245, 245);"><defs class="svg-crowbar"><style type="text/css"><![CDATA[
.link { fill: none; stroke-width: 0.7px; opacity: 1; }
.node { stroke: #000000; stroke-width: 0.5px; opacity: 1; }
.axis { fill: ; stroke: #000000; stroke-width: 0.5px; }]]></style></defs><g transform="translate(480,250)"><line class="axis" transform="rotate(-110.05352282957881)" x1="40" x2="240"></line><line class="axis" transform="rotate(-69.94647717042119)" x1="40" x2="240"></line><line class="axis" transform="rotate(10.26761414789408)" x1="40" x2="240"></line><line class="axis" transform="rotate(49.80170201192087)" x1="40" x2="240"></line><line class="axis" transform="rotate(130.0157933302361)" x1="40" x2="240"></line><line class="axis" transform="rotate(170.12283898939376)" x1="40" x2="240"></line><circle class="node" transform="rotate(10.26761414789408)" cx="146" r="3" style="fill-opacity: 0.8; fill: #35978f;"></circle><circle class="node" transform="rotate(10.26761414789408)" cx="148" r="3" style="fill-opacity: 0.8; fill: #35978f;"></circle><circle class="node" transform="rotate(10.26761414789408)" cx="152" r="3" style="fill-opacity: 0.8; fill: #35978f;"></circle><circle class="node" transform="rotate(10.26761414789408)" cx="164" r="3" style="fill-opacity: 0.8; fill: #35978f;"></circle><circle class="node" transform="rotate(10.26761414789408)" cx="164" r="3" style="fill-opacity: 0.8; fill: #35978f;"></circle><circle class="node" transform="rotate(10.26761414789408)" cx="128" r="3" style="fill-opacity: 0.8; fill: #35978f;"></circle><circle class="node" transform="rotate(10.26761414789408)" cx="150" r="3" style="fill-opacity: 0.8; fill: #35978f;"></circle><circle class="node" transform="rotate(10.26761414789408)" cx="158" r="3" style="fill-opacity: 0.8; fill: #35978f;"></circle><circle class="node" transform="rotate(10.26761414789408)" cx="148" r="3" style="fill-opacity: 0.8; fill: #35978f;"></circle><circle class="node" transform="rotate(10.26761414789408)" cx="150" r="3" style="fill-opacity: 0.8; fill: #35978f;"></circle><circle class="node" transform="rotate(10.26761414789408)" cx="146" r="3" style="fill-opacity: 0.8; fill: #35978f;"></circle><circle class="node" transform="rotate(10.26761414789408)" cx="162" r="3" style="fill-opacity: 0.8; fill: #35978f;"></circle><circle class="node" transform="rotate(10.26761414789408)" cx="150" r="3" style="fill-opacity: 0.8; fill: #35978f;"></circle><circle class="node" transform="rotate(10.26761414789408)" cx="152" r="3" style="fill-opacity: 0.8; fill: #35978f;"></circle><circle class="node" transform="rotate(10.26761414789408)" cx="132" r="3" style="fill-opacity: 0.8; fill: #35978f;"></circle><circle class="node" transform="rotate(10.26761414789408)" cx="158" r="3" style="fill-opacity: 0.8; fill: #35978f;"></circle><circle class="node" transform="rotate(10.26761414789408)" cx="138" r="3" style="fill-opacity: 0.8; fill: #35978f;"></circle><circle class="node" transform="rotate(10.26761414789408)" cx="154" r="3" style="fill-opacity: 0.8; fill: #35978f;"></circle><circle class="node" transform="rotate(10.26761414789408)" cx="142" r="3" style="fill-opacity: 0.8; fill: #35978f;"></circle><circle class="node" transform="rotate(10.26761414789408)" cx="160" r="3" style="fill-opacity: 0.8; fill: #35978f;"></circle><circle class="node" transform="rotate(10.26761414789408)" cx="128" r="3" style="fill-opacity: 0.8; fill: #35978f;"></circle><circle class="node" transform="rotate(10.26761414789408)" cx="122" r="3" style="fill-opacity: 0.8; fill: #35978f;"></circle><circle class="node" transform="rotate(10.26761414789408)" cx="142" r="3" style="fill-opacity: 0.8; fill: #35978f;"></circle><circle class="node" transform="rotate(10.26761414789408)" cx="162" r="3" style="fill-opacity: 0.8; fill: #35978f;"></circle><circle class="node" transform="rotate(10.26761414789408)" cx="130" r="3" style="fill-opacity: 0.8; fill: #35978f;"></circle><circle class="node" transform="rotate(10.26761414789408)" cx="110" r="3" style="fill-opacity: 0.8; fill: #35978f;"></circle><circle class="node" transform="rotate(10.26761414789408)" cx="160" r="3" style="fill-opacity: 0.8; fill: #35978f;"></circle><circle class="node" transform="rotate(10.26761414789408)" cx="166" r="3" style="fill-opacity: 0.8; fill: #35978f;"></circle><circle class="node" transform="rotate(10.26761414789408)" cx="148" r="3" style="fill-opacity: 0.8; fill: #35978f;"></circle><circle class="node" transform="rotate(10.26761414789408)" cx="104" r="3" style="fill-opacity: 0.8; fill: #35978f;"></circle><circle class="node" transform="rotate(10.26761414789408)" cx="132" r="3" style="fill-opacity: 0.8; fill: #35978f;"></circle><circle class="node" transform="rotate(10.26761414789408)" cx="128" r="3" style="fill-opacity: 0.8; fill: #35978f;"></circle><circle class="node" transform="rotate(10.26761414789408)" cx="142" r="3" style="fill-opacity: 0.8; fill: #35978f;"></circle><circle class="node" transform="rotate(10.26761414789408)" cx="144" r="3" style="fill-opacity: 0.8; fill: #35978f;"></circle><circle class="node" transform="rotate(10.26761414789408)" cx="128" r="3" style="fill-opacity: 0.8; fill: #35978f;"></circle><circle class="node" transform="rotate(10.26761414789408)" cx="150" r="3" style="fill-opacity: 0.8; fill: #35978f;"></circle><circle class="node" transform="rotate(10.26761414789408)" cx="174" r="3" style="fill-opacity: 0.8; fill: #35978f;"></circle><circle class="node" transform="rotate(10.26761414789408)" cx="154" r="3" style="fill-opacity: 0.8; fill: #35978f;"></circle><circle class="node" transform="rotate(10.26761414789408)" cx="148" r="3" style="fill-opacity: 0.8; fill: #35978f;"></circle><circle class="node" transform="rotate(10.26761414789408)" cx="162" r="3" style="fill-opacity: 0.8; fill: #35978f;"></circle><circle class="node" transform="rotate(10.26761414789408)" cx="138" r="3" style="fill-opacity: 0.8; fill: #35978f;"></circle><circle class="node" transform="rotate(10.26761414789408)" cx="162" r="3" style="fill-opacity: 0.8; fill: #35978f;"></circle><circle class="node" transform="rotate(10.26761414789408)" cx="154" r="3" style="fill-opacity: 0.8; fill: #35978f;"></circle><circle class="node" transform="rotate(10.26761414789408)" cx="148" r="3" style="fill-opacity: 0.8; fill: #35978f;"></circle><circle class="node" transform="rotate(10.26761414789408)" cx="104" r="3" style="fill-opacity: 0.8; fill: #35978f;"></circle><circle class="node" transform="rotate(10.26761414789408)" cx="116" r="3" style="fill-opacity: 0.8; fill: #35978f;"></circle><circle class="node" transform="rotate(10.26761414789408)" cx="168" r="3" style="fill-opacity: 0.8; fill: #35978f;"></circle><circle class="node" transform="rotate(10.26761414789408)" cx="182" r="3" style="fill-opacity: 0.8; fill: #35978f;"></circle><circle class="node" transform="rotate(10.26761414789408)" cx="136" r="3" style="fill-opacity: 0.8; fill: #35978f;"></circle><circle class="node" transform="rotate(10.26761414789408)" cx="150" r="3" style="fill-opacity: 0.8; fill: #35978f;"></circle><circle class="node" transform="rotate(10.26761414789408)" cx="132" r="3" style="fill-opacity: 0.8; fill: #35978f;"></circle><circle class="node" transform="rotate(10.26761414789408)" cx="126" r="3" style="fill-opacity: 0.8; fill: #35978f;"></circle><circle class="node" transform="rotate(10.26761414789408)" cx="128" r="3" style="fill-opacity: 0.8; fill: #35978f;"></circle><circle class="node" transform="rotate(10.26761414789408)" cx="126" r="3" style="fill-opacity: 0.8; fill: #35978f;"></circle><circle class="node" transform="rotate(10.26761414789408)" cx="150" r="3" style="fill-opacity: 0.8; fill: #35978f;"></circle><circle class="node" transform="rotate(10.26761414789408)" cx="142" r="3" style="fill-opacity: 0.8; fill: #35978f;"></circle><circle class="node" transform="rotate(10.26761414789408)" cx="132" r="3" style="fill-opacity: 0.8; fill: #35978f;"></circle><circle class="node" transform="rotate(10.26761414789408)" cx="130" r="3" style="fill-opacity: 0.8; fill: #35978f;"></circle><circle class="node" transform="rotate(10.26761414789408)" cx="144" r="3" style="fill-opacity: 0.8; fill: #35978f;"></circle><circle class="node" transform="rotate(10.26761414789408)" cx="132" r="3" style="fill-opacity: 0.8; fill: #35978f;"></circle><circle class="node" transform="rotate(10.26761414789408)" cx="140" r="3" style="fill-opacity: 0.8; fill: #35978f;"></circle><circle class="node" transform="rotate(10.26761414789408)" cx="132" r="3" style="fill-opacity: 0.8; fill: #35978f;"></circle><circle class="node" transform="rotate(10.26761414789408)" cx="122" r="3" style="fill-opacity: 0.8; fill: #35978f;"></circle><circle class="node" transform="rotate(10.26761414789408)" cx="138" r="3" style="fill-opacity: 0.8; fill: #35978f;"></circle><circle class="node" transform="rotate(10.26761414789408)" cx="122" r="3" style="fill-opacity: 0.8; fill: #35978f;"></circle><circle class="node" transform="rotate(10.26761414789408)" cx="134" r="3" style="fill-opacity: 0.8; fill: #35978f;"></circle><circle class="node" transform="rotate(10.26761414789408)" cx="124" r="3" style="fill-opacity: 0.8; fill: #35978f;"></circle><circle class="node" transform="rotate(10.26761414789408)" cx="144" r="3" style="fill-opacity: 0.8; fill: #35978f;"></circle><circle class="node" transform="rotate(10.26761414789408)" cx="146" r="3" style="fill-opacity: 0.8; fill: #35978f;"></circle><circle class="node" transform="rotate(10.26761414789408)" cx="148" r="3" style="fill-opacity: 0.8; fill: #35978f;"></circle><circle class="node" transform="rotate(10.26761414789408)" cx="160" r="3" style="fill-opacity: 0.8; fill: #35978f;"></circle><circle class="node" transform="rotate(10.26761414789408)" cx="92" r="3" style="fill-opacity: 0.8; fill: #35978f;"></circle><circle class="node" transform="rotate(10.26761414789408)" cx="188" r="3" style="fill-opacity: 0.8; fill: #35978f;"></circle><circle class="node" transform="rotate(10.26761414789408)" cx="162" r="3" style="fill-opacity: 0.8; fill: #35978f;"></circle><circle class="node" transform="rotate(10.26761414789408)" cx="164" r="3" style="fill-opacity: 0.8; fill: #35978f;"></circle><circle class="node" transform="rotate(10.26761414789408)" cx="122" r="3" style="fill-opacity: 0.8; fill: #35978f;"></circle><circle class="node" transform="rotate(10.26761414789408)" cx="128" r="3" style="fill-opacity: 0.8; fill: #35978f;"></circle><circle class="node" transform="rotate(10.26761414789408)" cx="128" r="3" style="fill-opacity: 0.8; fill: #35978f;"></circle><circle class="node" transform="rotate(10.26761414789408)" cx="134" r="3" style="fill-opacity: 0.8; fill: #35978f;"></circle><circle class="node" transform="rotate(10.26761414789408)" cx="142" r="3" style="fill-opacity: 0.8; fill: #35978f;"></circle><circle class="node" transform="rotate(10.26761414789408)" cx="140" r="3" style="fill-opacity: 0.8; fill: #35978f;"></circle><circle class="node" transform="rotate(10.26761414789408)" cx="118" r="3" style="fill-opacity: 0.8; fill: #35978f;"></circle><circle class="node" transform="rotate(10.26761414789408)" cx="154" r="3" style="fill-opacity: 0.8; fill: #35978f;"></circle><circle class="node" transform="rotate(10.26761414789408)" cx="128" r="3" style="fill-opacity: 0.8; fill: #35978f;"></circle><circle class="node" transform="rotate(10.26761414789408)" cx="136" r="3" style="fill-opacity: 0.8; fill: #35978f;"></circle><circle class="node" transform="rotate(10.26761414789408)" cx="168" r="3" style="fill-opacity: 0.8; fill: #35978f;"></circle><circle class="node" transform="rotate(10.26761414789408)" cx="140" r="3" style="fill-opacity: 0.8; fill: #35978f;"></circle><circle class="node" transform="rotate(10.26761414789408)" cx="130" r="3" style="fill-opacity: 0.8; fill: #35978f;"></circle><circle class="node" transform="rotate(10.26761414789408)" cx="152" r="3" style="fill-opacity: 0.8; fill: #35978f;"></circle><circle class="node" transform="rotate(10.26761414789408)" cx="130" r="3" style="fill-opacity: 0.8; fill: #35978f;"></circle><circle class="node" transform="rotate(10.26761414789408)" cx="140" r="3" style="fill-opacity: 0.8; fill: #35978f;"></circle><circle class="node" transform="rotate(10.26761414789408)" cx="82" r="3" style="fill-opacity: 0.8; fill: #35978f;"></circle><circle class="node" transform="rotate(10.26761414789408)" cx="104" r="3" style="fill-opacity: 0.8; fill: #35978f;"></circle><circle class="node" transform="rotate(10.26761414789408)" cx="146" r="3" style="fill-opacity: 0.8; fill: #35978f;"></circle><circle class="node" transform="rotate(-110.05352282957881)" cx="146" r="3" style="fill-opacity: 0.8; fill: #35978f;"></circle><circle class="node" transform="rotate(-110.05352282957881)" cx="146" r="3" style="fill-opacity: 0.8; fill: #35978f;"></circle><circle class="node" transform="rotate(-110.05352282957881)" cx="160" r="3" style="fill-opacity: 0.8; fill: #35978f;"></circle><circle class="node" transform="rotate(-110.05352282957881)" cx="150" r="3" style="fill-opacity: 0.8; fill: #35978f;"></circle><circle class="node" transform="rotate(-110.05352282957881)" cx="144" r="3" style="fill-opacity: 0.8; fill: #35978f;"></circle><circle class="node" transform="rotate(-110.05352282957881)" cx="134" r="3" style="fill-opacity: 0.8; fill: #35978f;"></circle><circle class="node" transform="rotate(-110.05352282957881)" cx="136" r="3" style="fill-opacity: 0.8; fill: #35978f;"></circle><circle class="node" transform="rotate(-110.05352282957881)" cx="240" r="3" style="fill-opacity: 0.8; fill: #35978f;"></circle><circle class="node" transform="rotate(-110.05352282957881)" cx="142" r="3" style="fill-opacity: 0.8; fill: #35978f;"></circle><circle class="node" transform="rotate(-110.05352282957881)" cx="148" r="3" style="fill-opacity: 0.8; fill: #35978f;"></circle><circle class="node" transform="rotate(-110.05352282957881)" cx="152" r="3" style="fill-opacity: 0.8; fill: #35978f;"></circle><circle class="node" transform="rotate(-110.05352282957881)" cx="164" r="3" style="fill-opacity: 0.8; fill: #35978f;"></circle><circle class="node" transform="rotate(-110.05352282957881)" cx="144" r="3" style="fill-opacity: 0.8; fill: #35978f;"></circle><circle class="node" transform="rotate(-110.05352282957881)" cx="202" r="3" style="fill-opacity: 0.8; fill: #35978f;"></circle><circle class="node" transform="rotate(-110.05352282957881)" cx="150" r="3" style="fill-opacity: 0.8; fill: #35978f;"></circle><circle class="node" transform="rotate(-110.05352282957881)" cx="142" r="3" style="fill-opacity: 0.8; fill: #35978f;"></circle><circle class="node" transform="rotate(-110.05352282957881)" cx="192" r="3" style="fill-opacity: 0.8; fill: #35978f;"></circle><circle class="node" transform="rotate(-110.05352282957881)" cx="166" r="3" style="fill-opacity: 0.8; fill: #35978f;"></circle><circle class="node" transform="rotate(-110.05352282957881)" cx="152" r="3" style="fill-opacity: 0.8; fill: #35978f;"></circle><circle class="node" transform="rotate(-110.05352282957881)" cx="102" r="3" style="fill-opacity: 0.8; fill: #35978f;"></circle><circle class="node" transform="rotate(-110.05352282957881)" cx="126" r="3" style="fill-opacity: 0.8; fill: #35978f;"></circle><circle class="node" transform="rotate(-110.05352282957881)" cx="160" r="3" style="fill-opacity: 0.8; fill: #35978f;"></circle><circle class="node" transform="rotate(-110.05352282957881)" cx="142" r="3" style="fill-opacity: 0.8; fill: #35978f;"></circle><circle class="node" transform="rotate(-110.05352282957881)" cx="164" r="3" style="fill-opacity: 0.8; fill: #35978f;"></circle><circle class="node" transform="rotate(-110.05352282957881)" cx="118" r="3" style="fill-opacity: 0.8; fill: #35978f;"></circle><circle class="node" transform="rotate(-110.05352282957881)" cx="134" r="3" style="fill-opacity: 0.8; fill: #35978f;"></circle><circle class="node" transform="rotate(-110.05352282957881)" cx="156" r="3" style="fill-opacity: 0.8; fill: #35978f;"></circle><circle class="node" transform="rotate(-110.05352282957881)" cx="152" r="3" style="fill-opacity: 0.8; fill: #35978f;"></circle><circle class="node" transform="rotate(-110.05352282957881)" cx="98" r="3" style="fill-opacity: 0.8; fill: #35978f;"></circle><circle class="node" transform="rotate(-110.05352282957881)" cx="166" r="3" style="fill-opacity: 0.8; fill: #35978f;"></circle><circle class="node" transform="rotate(-110.05352282957881)" cx="164" r="3" style="fill-opacity: 0.8; fill: #35978f;"></circle><circle class="node" transform="rotate(-110.05352282957881)" cx="134" r="3" style="fill-opacity: 0.8; fill: #35978f;"></circle><circle class="node" transform="rotate(-110.05352282957881)" cx="164" r="3" style="fill-opacity: 0.8; fill: #35978f;"></circle><circle class="node" transform="rotate(-110.05352282957881)" cx="120" r="3" style="fill-opacity: 0.8; fill: #35978f;"></circle><circle class="node" transform="rotate(49.80170201192087)" cx="146" r="3" style="fill-opacity: 0.8; fill: #35978f;"></circle><circle class="node" transform="rotate(49.80170201192087)" cx="148" r="3" style="fill-opacity: 0.8; fill: #35978f;"></circle><circle class="node" transform="rotate(49.80170201192087)" cx="152" r="3" style="fill-opacity: 0.8; fill: #35978f;"></circle><circle class="node" transform="rotate(49.80170201192087)" cx="164" r="3" style="fill-opacity: 0.8; fill: #35978f;"></circle><circle class="node" transform="rotate(49.80170201192087)" cx="164" r="3" style="fill-opacity: 0.8; fill: #35978f;"></circle><circle class="node" transform="rotate(49.80170201192087)" cx="128" r="3" style="fill-opacity: 0.8; fill: #35978f;"></circle><circle class="node" transform="rotate(49.80170201192087)" cx="150" r="3" style="fill-opacity: 0.8; fill: #35978f;"></circle><circle class="node" transform="rotate(49.80170201192087)" cx="158" r="3" style="fill-opacity: 0.8; fill: #35978f;"></circle><circle class="node" transform="rotate(49.80170201192087)" cx="148" r="3" style="fill-opacity: 0.8; fill: #35978f;"></circle><circle class="node" transform="rotate(49.80170201192087)" cx="150" r="3" style="fill-opacity: 0.8; fill: #35978f;"></circle><circle class="node" transform="rotate(49.80170201192087)" cx="146" r="3" style="fill-opacity: 0.8; fill: #35978f;"></circle><circle class="node" transform="rotate(49.80170201192087)" cx="162" r="3" style="fill-opacity: 0.8; fill: #35978f;"></circle><circle class="node" transform="rotate(49.80170201192087)" cx="150" r="3" style="fill-opacity: 0.8; fill: #35978f;"></circle><circle class="node" transform="rotate(49.80170201192087)" cx="152" r="3" style="fill-opacity: 0.8; fill: #35978f;"></circle><circle class="node" transform="rotate(49.80170201192087)" cx="132" r="3" style="fill-opacity: 0.8; fill: #35978f;"></circle><circle class="node" transform="rotate(49.80170201192087)" cx="158" r="3" style="fill-opacity: 0.8; fill: #35978f;"></circle><circle class="node" transform="rotate(49.80170201192087)" cx="138" r="3" style="fill-opacity: 0.8; fill: #35978f;"></circle><circle class="node" transform="rotate(49.80170201192087)" cx="154" r="3" style="fill-opacity: 0.8; fill: #35978f;"></circle><circle class="node" transform="rotate(49.80170201192087)" cx="142" r="3" style="fill-opacity: 0.8; fill: #35978f;"></circle><circle class="node" transform="rotate(49.80170201192087)" cx="160" r="3" style="fill-opacity: 0.8; fill: #35978f;"></circle><circle class="node" transform="rotate(49.80170201192087)" cx="128" r="3" style="fill-opacity: 0.8; fill: #35978f;"></circle><circle class="node" transform="rotate(49.80170201192087)" cx="122" r="3" style="fill-opacity: 0.8; fill: #35978f;"></circle><circle class="node" transform="rotate(49.80170201192087)" cx="142" r="3" style="fill-opacity: 0.8; fill: #35978f;"></circle><circle class="node" transform="rotate(49.80170201192087)" cx="162" r="3" style="fill-opacity: 0.8; fill: #35978f;"></circle><circle class="node" transform="rotate(49.80170201192087)" cx="130" r="3" style="fill-opacity: 0.8; fill: #35978f;"></circle><circle class="node" transform="rotate(49.80170201192087)" cx="110" r="3" style="fill-opacity: 0.8; fill: #35978f;"></circle><circle class="node" transform="rotate(49.80170201192087)" cx="160" r="3" style="fill-opacity: 0.8; fill: #35978f;"></circle><circle class="node" transform="rotate(49.80170201192087)" cx="166" r="3" style="fill-opacity: 0.8; fill: #35978f;"></circle><circle class="node" transform="rotate(49.80170201192087)" cx="148" r="3" style="fill-opacity: 0.8; fill: #35978f;"></circle><circle class="node" transform="rotate(49.80170201192087)" cx="104" r="3" style="fill-opacity: 0.8; fill: #35978f;"></circle><circle class="node" transform="rotate(49.80170201192087)" cx="132" r="3" style="fill-opacity: 0.8; fill: #35978f;"></circle><circle class="node" transform="rotate(49.80170201192087)" cx="128" r="3" style="fill-opacity: 0.8; fill: #35978f;"></circle><circle class="node" transform="rotate(49.80170201192087)" cx="142" r="3" style="fill-opacity: 0.8; fill: #35978f;"></circle><circle class="node" transform="rotate(49.80170201192087)" cx="144" r="3" style="fill-opacity: 0.8; fill: #35978f;"></circle><circle class="node" transform="rotate(49.80170201192087)" cx="128" r="3" style="fill-opacity: 0.8; fill: #35978f;"></circle><circle class="node" transform="rotate(49.80170201192087)" cx="150" r="3" style="fill-opacity: 0.8; fill: #35978f;"></circle><circle class="node" transform="rotate(49.80170201192087)" cx="174" r="3" style="fill-opacity: 0.8; fill: #35978f;"></circle><circle class="node" transform="rotate(49.80170201192087)" cx="154" r="3" style="fill-opacity: 0.8; fill: #35978f;"></circle><circle class="node" transform="rotate(49.80170201192087)" cx="148" r="3" style="fill-opacity: 0.8; fill: #35978f;"></circle><circle class="node" transform="rotate(49.80170201192087)" cx="162" r="3" style="fill-opacity: 0.8; fill: #35978f;"></circle><circle class="node" transform="rotate(49.80170201192087)" cx="138" r="3" style="fill-opacity: 0.8; fill: #35978f;"></circle><circle class="node" transform="rotate(49.80170201192087)" cx="162" r="3" style="fill-opacity: 0.8; fill: #35978f;"></circle><circle class="node" transform="rotate(49.80170201192087)" cx="154" r="3" style="fill-opacity: 0.8; fill: #35978f;"></circle><circle class="node" transform="rotate(49.80170201192087)" cx="148" r="3" style="fill-opacity: 0.8; fill: #35978f;"></circle><circle class="node" transform="rotate(49.80170201192087)" cx="104" r="3" style="fill-opacity: 0.8; fill: #35978f;"></circle><circle class="node" transform="rotate(49.80170201192087)" cx="116" r="3" style="fill-opacity: 0.8; fill: #35978f;"></circle><circle class="node" transform="rotate(49.80170201192087)" cx="168" r="3" style="fill-opacity: 0.8; fill: #35978f;"></circle><circle class="node" transform="rotate(49.80170201192087)" cx="182" r="3" style="fill-opacity: 0.8; fill: #35978f;"></circle><circle class="node" transform="rotate(49.80170201192087)" cx="136" r="3" style="fill-opacity: 0.8; fill: #35978f;"></circle><circle class="node" transform="rotate(49.80170201192087)" cx="150" r="3" style="fill-opacity: 0.8; fill: #35978f;"></circle><circle class="node" transform="rotate(49.80170201192087)" cx="132" r="3" style="fill-opacity: 0.8; fill: #35978f;"></circle><circle class="node" transform="rotate(49.80170201192087)" cx="126" r="3" style="fill-opacity: 0.8; fill: #35978f;"></circle><circle class="node" transform="rotate(49.80170201192087)" cx="128" r="3" style="fill-opacity: 0.8; fill: #35978f;"></circle><circle class="node" transform="rotate(49.80170201192087)" cx="126" r="3" style="fill-opacity: 0.8; fill: #35978f;"></circle><circle class="node" transform="rotate(49.80170201192087)" cx="150" r="3" style="fill-opacity: 0.8; fill: #35978f;"></circle><circle class="node" transform="rotate(49.80170201192087)" cx="142" r="3" style="fill-opacity: 0.8; fill: #35978f;"></circle><circle class="node" transform="rotate(49.80170201192087)" cx="132" r="3" style="fill-opacity: 0.8; fill: #35978f;"></circle><circle class="node" transform="rotate(49.80170201192087)" cx="130" r="3" style="fill-opacity: 0.8; fill: #35978f;"></circle><circle class="node" transform="rotate(49.80170201192087)" cx="144" r="3" style="fill-opacity: 0.8; fill: #35978f;"></circle><circle class="node" transform="rotate(49.80170201192087)" cx="132" r="3" style="fill-opacity: 0.8; fill: #35978f;"></circle><circle class="node" transform="rotate(49.80170201192087)" cx="140" r="3" style="fill-opacity: 0.8; fill: #35978f;"></circle><circle class="node" transform="rotate(49.80170201192087)" cx="132" r="3" style="fill-opacity: 0.8; fill: #35978f;"></circle><circle class="node" transform="rotate(49.80170201192087)" cx="122" r="3" style="fill-opacity: 0.8; fill: #35978f;"></circle><circle class="node" transform="rotate(49.80170201192087)" cx="138" r="3" style="fill-opacity: 0.8; fill: #35978f;"></circle><circle class="node" transform="rotate(49.80170201192087)" cx="122" r="3" style="fill-opacity: 0.8; fill: #35978f;"></circle><circle class="node" transform="rotate(49.80170201192087)" cx="134" r="3" style="fill-opacity: 0.8; fill: #35978f;"></circle><circle class="node" transform="rotate(49.80170201192087)" cx="124" r="3" style="fill-opacity: 0.8; fill: #35978f;"></circle><circle class="node" transform="rotate(49.80170201192087)" cx="144" r="3" style="fill-opacity: 0.8; fill: #35978f;"></circle><circle class="node" transform="rotate(49.80170201192087)" cx="146" r="3" style="fill-opacity: 0.8; fill: #35978f;"></circle><circle class="node" transform="rotate(49.80170201192087)" cx="148" r="3" style="fill-opacity: 0.8; fill: #35978f;"></circle><circle class="node" transform="rotate(49.80170201192087)" cx="160" r="3" style="fill-opacity: 0.8; fill: #35978f;"></circle><circle class="node" transform="rotate(49.80170201192087)" cx="92" r="3" style="fill-opacity: 0.8; fill: #35978f;"></circle><circle class="node" transform="rotate(49.80170201192087)" cx="188" r="3" style="fill-opacity: 0.8; fill: #35978f;"></circle><circle class="node" transform="rotate(49.80170201192087)" cx="162" r="3" style="fill-opacity: 0.8; fill: #35978f;"></circle><circle class="node" transform="rotate(49.80170201192087)" cx="164" r="3" style="fill-opacity: 0.8; fill: #35978f;"></circle><circle class="node" transform="rotate(49.80170201192087)" cx="122" r="3" style="fill-opacity: 0.8; fill: #35978f;"></circle><circle class="node" transform="rotate(49.80170201192087)" cx="128" r="3" style="fill-opacity: 0.8; fill: #35978f;"></circle><circle class="node" transform="rotate(49.80170201192087)" cx="128" r="3" style="fill-opacity: 0.8; fill: #35978f;"></circle><circle class="node" transform="rotate(49.80170201192087)" cx="134" r="3" style="fill-opacity: 0.8; fill: #35978f;"></circle><circle class="node" transform="rotate(49.80170201192087)" cx="142" r="3" style="fill-opacity: 0.8; fill: #35978f;"></circle><circle class="node" transform="rotate(49.80170201192087)" cx="140" r="3" style="fill-opacity: 0.8; fill: #35978f;"></circle><circle class="node" transform="rotate(49.80170201192087)" cx="118" r="3" style="fill-opacity: 0.8; fill: #35978f;"></circle><circle class="node" transform="rotate(49.80170201192087)" cx="154" r="3" style="fill-opacity: 0.8; fill: #35978f;"></circle><circle class="node" transform="rotate(49.80170201192087)" cx="128" r="3" style="fill-opacity: 0.8; fill: #35978f;"></circle><circle class="node" transform="rotate(49.80170201192087)" cx="136" r="3" style="fill-opacity: 0.8; fill: #35978f;"></circle><circle class="node" transform="rotate(49.80170201192087)" cx="168" r="3" style="fill-opacity: 0.8; fill: #35978f;"></circle><circle class="node" transform="rotate(49.80170201192087)" cx="140" r="3" style="fill-opacity: 0.8; fill: #35978f;"></circle><circle class="node" transform="rotate(49.80170201192087)" cx="130" r="3" style="fill-opacity: 0.8; fill: #35978f;"></circle><circle class="node" transform="rotate(49.80170201192087)" cx="152" r="3" style="fill-opacity: 0.8; fill: #35978f;"></circle><circle class="node" transform="rotate(49.80170201192087)" cx="130" r="3" style="fill-opacity: 0.8; fill: #35978f;"></circle><circle class="node" transform="rotate(49.80170201192087)" cx="140" r="3" style="fill-opacity: 0.8; fill: #35978f;"></circle><circle class="node" transform="rotate(49.80170201192087)" cx="82" r="3" style="fill-opacity: 0.8; fill: #35978f;"></circle><circle class="node" transform="rotate(49.80170201192087)" cx="104" r="3" style="fill-opacity: 0.8; fill: #35978f;"></circle><circle class="node" transform="rotate(49.80170201192087)" cx="146" r="3" style="fill-opacity: 0.8; fill: #35978f;"></circle><circle class="node" transform="rotate(-69.94647717042119)" cx="146" r="3" style="fill-opacity: 0.8; fill: #35978f;"></circle><circle class="node" transform="rotate(-69.94647717042119)" cx="146" r="3" style="fill-opacity: 0.8; fill: #35978f;"></circle><circle class="node" transform="rotate(-69.94647717042119)" cx="160" r="3" style="fill-opacity: 0.8; fill: #35978f;"></circle><circle class="node" transform="rotate(-69.94647717042119)" cx="150" r="3" style="fill-opacity: 0.8; fill: #35978f;"></circle><circle class="node" transform="rotate(-69.94647717042119)" cx="144" r="3" style="fill-opacity: 0.8; fill: #35978f;"></circle><circle class="node" transform="rotate(-69.94647717042119)" cx="134" r="3" style="fill-opacity: 0.8; fill: #35978f;"></circle><circle class="node" transform="rotate(-69.94647717042119)" cx="136" r="3" style="fill-opacity: 0.8; fill: #35978f;"></circle><circle class="node" transform="rotate(-69.94647717042119)" cx="240" r="3" style="fill-opacity: 0.8; fill: #35978f;"></circle><circle class="node" transform="rotate(-69.94647717042119)" cx="142" r="3" style="fill-opacity: 0.8; fill: #35978f;"></circle><circle class="node" transform="rotate(-69.94647717042119)" cx="148" r="3" style="fill-opacity: 0.8; fill: #35978f;"></circle><circle class="node" transform="rotate(-69.94647717042119)" cx="152" r="3" style="fill-opacity: 0.8; fill: #35978f;"></circle><circle class="node" transform="rotate(-69.94647717042119)" cx="164" r="3" style="fill-opacity: 0.8; fill: #35978f;"></circle><circle class="node" transform="rotate(-69.94647717042119)" cx="144" r="3" style="fill-opacity: 0.8; fill: #35978f;"></circle><circle class="node" transform="rotate(-69.94647717042119)" cx="202" r="3" style="fill-opacity: 0.8; fill: #35978f;"></circle><circle class="node" transform="rotate(-69.94647717042119)" cx="150" r="3" style="fill-opacity: 0.8; fill: #35978f;"></circle><circle class="node" transform="rotate(-69.94647717042119)" cx="142" r="3" style="fill-opacity: 0.8; fill: #35978f;"></circle><circle class="node" transform="rotate(-69.94647717042119)" cx="192" r="3" style="fill-opacity: 0.8; fill: #35978f;"></circle><circle class="node" transform="rotate(-69.94647717042119)" cx="166" r="3" style="fill-opacity: 0.8; fill: #35978f;"></circle><circle class="node" transform="rotate(-69.94647717042119)" cx="152" r="3" style="fill-opacity: 0.8; fill: #35978f;"></circle><circle class="node" transform="rotate(-69.94647717042119)" cx="102" r="3" style="fill-opacity: 0.8; fill: #35978f;"></circle><circle class="node" transform="rotate(-69.94647717042119)" cx="126" r="3" style="fill-opacity: 0.8; fill: #35978f;"></circle><circle class="node" transform="rotate(-69.94647717042119)" cx="160" r="3" style="fill-opacity: 0.8; fill: #35978f;"></circle><circle class="node" transform="rotate(-69.94647717042119)" cx="142" r="3" style="fill-opacity: 0.8; fill: #35978f;"></circle><circle class="node" transform="rotate(-69.94647717042119)" cx="164" r="3" style="fill-opacity: 0.8; fill: #35978f;"></circle><circle class="node" transform="rotate(-69.94647717042119)" cx="118" r="3" style="fill-opacity: 0.8; fill: #35978f;"></circle><circle class="node" transform="rotate(-69.94647717042119)" cx="134" r="3" style="fill-opacity: 0.8; fill: #35978f;"></circle><circle class="node" transform="rotate(-69.94647717042119)" cx="156" r="3" style="fill-opacity: 0.8; fill: #35978f;"></circle><circle class="node" transform="rotate(-69.94647717042119)" cx="152" r="3" style="fill-opacity: 0.8; fill: #35978f;"></circle><circle class="node" transform="rotate(-69.94647717042119)" cx="98" r="3" style="fill-opacity: 0.8; fill: #35978f;"></circle><circle class="node" transform="rotate(-69.94647717042119)" cx="166" r="3" style="fill-opacity: 0.8; fill: #35978f;"></circle><circle class="node" transform="rotate(-69.94647717042119)" cx="164" r="3" style="fill-opacity: 0.8; fill: #35978f;"></circle><circle class="node" transform="rotate(-69.94647717042119)" cx="134" r="3" style="fill-opacity: 0.8; fill: #35978f;"></circle><circle class="node" transform="rotate(-69.94647717042119)" cx="164" r="3" style="fill-opacity: 0.8; fill: #35978f;"></circle><circle class="node" transform="rotate(-69.94647717042119)" cx="120" r="3" style="fill-opacity: 0.8; fill: #35978f;"></circle><path class="link" d="M151.5338358185861,27.449892570021753C141.2854451133987,61.27334656364706 113.96509140703793,84.7110260862506 91.65176976348063,108.46175869504393" style="fill: none; stroke-opacity: 1; stroke: #35978f;"></path><path class="link" d="M149.56586392483825,27.09340045872277C139.45056920283508,60.47758881606723 118.78051780451841,88.29036521665556 95.52437975348685,113.04464990751056" style="fill: none; stroke-opacity: 1; stroke: #35978f;"></path><path class="link" d="M149.56586392483825,27.09340045872277C139.45056920283508,60.47758881606723 113.96509140703793,84.7110260862506 91.65176976348063,108.46175869504393" style="fill: none; stroke-opacity: 1; stroke: #35978f;"></path><path class="link" d="M143.66194824359462,26.023924124825815C133.9459414711442,58.090315573327736 102.72909647958349,76.35923478197238 82.61567978679945,97.76834586595508" style="fill: none; stroke-opacity: 1; stroke: #35978f;"></path><path class="link" d="M52.12046673322862,-142.78465235280157C110.78789060210852,-104.06749394472422 151.51666806554687,-44.796197364450656 155.46977960608186,28.16287679261972" style="fill: none; stroke-opacity: 1; stroke: #35978f;"></path><path class="link" d="M151.5338358185861,27.449892570021753C141.2854451133987,61.27334656364706 130.01651273197285,96.64215652093378 104.56046973016805,123.7380627365994" style="fill: none; stroke-opacity: 1; stroke: #35978f;"></path><path class="link" d="M147.59789203109037,26.736908347423785C137.61569329227146,59.6818310684874 126.80622846698587,94.25593043399715 101.97872973683057,120.68280192828831" style="fill: none; stroke-opacity: 1; stroke: #35978f;"></path><path class="link" d="M159.4057233935776,28.875861015217687C148.62494875565318,64.45637755396639 113.96509140703793,84.7110260862506 91.65176976348063,108.46175869504393" style="fill: none; stroke-opacity: 1; stroke: #35978f;"></path><path class="link" d="M159.4057233935776,28.875861015217687C148.62494875565318,64.45637755396639 123.59594420199889,91.86970434706052 99.39698974349308,117.62754111997721" style="fill: none; stroke-opacity: 1; stroke: #35978f;"></path><path class="link" d="M159.4057233935776,28.875861015217687C148.62494875565318,64.45637755396639 118.78051780451841,88.29036521665556 95.52437975348685,113.04464990751056" style="fill: none; stroke-opacity: 1; stroke: #35978f;"></path><path class="link" d="M51.434671118317716,-140.90590692710683C109.3301551994492,-102.69818481387259 143.84493803691157,-42.52803547257974 147.59789203109037,26.736908347423785" style="fill: none; stroke-opacity: 1; stroke: #35978f;"></path><path class="link" d="M125.95020119986378,22.815495123134962C117.43205827607164,50.928495845109246 120.38565993701191,89.48347826012387 96.8152497501556,114.57228031166612" style="fill: none; stroke-opacity: 1; stroke: #35978f;"></path><path class="link" d="M40.46194127974327,-110.8459801159907C86.00638875690004,-80.78923872024643 136.1732080082763,-40.25987358070882 139.72600445609888,25.310939902227847" style="fill: none; stroke-opacity: 1; stroke: #35978f;"></path><path class="link" d="M155.46977960608186,28.16287679261972C144.95519693452593,62.86486205880673 120.38565993701191,89.48347826012387 96.8152497501556,114.57228031166612" style="fill: none; stroke-opacity: 1; stroke: #35978f;"></path><path class="link" d="M155.46977960608186,28.16287679261972C144.95519693452593,62.86486205880673 102.72909647958349,76.35923478197238 82.61567978679945,97.76834586595508" style="fill: none; stroke-opacity: 1; stroke: #35978f;"></path><path class="link" d="M114.14236983737655,20.67654245534106C106.42280281268992,46.15394935963025 73.83653809470063,54.88319999954265 59.3800198467621,70.27099859115522" style="fill: none; stroke-opacity: 1; stroke: #35978f;"></path><path class="link" d="M147.59789203109037,26.736908347423785C137.61569329227146,59.6818310684874 105.93938074457047,78.745460868909 85.19741978013693,100.82360667426617" style="fill: none; stroke-opacity: 1; stroke: #35978f;"></path><path class="link" d="M127.91817309361166,23.171987234433946C119.26693418663527,51.72425359268908 112.35994927454445,83.51791304278228 90.3608997668119,106.93412829088837" style="fill: none; stroke-opacity: 1; stroke: #35978f;"></path><path class="link" d="M157.43775149982974,28.519368903918703C146.79007284508955,63.660619806386556 121.99080206950539,90.67659130359219 98.10611974682435,116.09991071582166" style="fill: none; stroke-opacity: 1; stroke: #35978f;"></path><path class="link" d="M135.79006066860313,24.59795567962988C126.60643782888974,54.907284583008405 120.38565993701191,89.48347826012387 96.8152497501556,114.57228031166612" style="fill: none; stroke-opacity: 1; stroke: #35978f;"></path><path class="link" d="M135.79006066860313,24.59795567962988C126.60643782888974,54.907284583008405 102.72909647958349,76.35923478197238 82.61567978679945,97.76834586595508" style="fill: none; stroke-opacity: 1; stroke: #35978f;"></path><path class="link" d="M135.79006066860313,24.59795567962988C126.60643782888974,54.907284583008405 126.80622846698587,94.25593043399715 101.97872973683057,120.68280192828831" style="fill: none; stroke-opacity: 1; stroke: #35978f;"></path><path class="link" d="M56.23524042269404,-154.05712490697013C119.53430301806445,-112.28334872983403 161.10633060134097,-47.631399729289306 165.3096390748212,29.945337349114638" style="fill: none; stroke-opacity: 1; stroke: #35978f;"></path><path class="link" d="M46.6341018139414,-127.75468894724351C99.12600738083394,-93.11302089791114 143.84493803691157,-42.52803547257974 147.59789203109037,26.736908347423785" style="fill: none; stroke-opacity: 1; stroke: #35978f;"></path><path class="link" d="M179.08544233105633,32.44078212820752C166.97370786128937,72.41395502976471 120.38565993701191,89.48347826012387 96.8152497501556,114.57228031166612" style="fill: none; stroke-opacity: 1; stroke: #35978f;"></path><path class="link" d="M125.95020119986378,22.815495123134962C117.43205827607164,50.928495845109246 99.51881221459651,73.97300869503574 80.03393979346197,94.713085057644" style="fill: none; stroke-opacity: 1; stroke: #35978f;"></path><path class="link" d="M125.95020119986378,22.815495123134962C117.43205827607164,50.928495845109246 120.38565993701191,89.48347826012387 96.8152497501556,114.57228031166612" style="fill: none; stroke-opacity: 1; stroke: #35978f;"></path><path class="link" d="M159.4057233935776,28.875861015217687C148.62494875565318,64.45637755396639 130.01651273197285,96.64215652093378 104.56046973016805,123.7380627365994" style="fill: none; stroke-opacity: 1; stroke: #35978f;"></path><path class="link" d="M159.4057233935776,28.875861015217687C148.62494875565318,64.45637755396639 112.35994927454445,83.51791304278228 90.3608997668119,106.93412829088837" style="fill: none; stroke-opacity: 1; stroke: #35978f;"></path><path class="link" d="M137.75803256235102,24.954447790928864C128.44131373945336,55.70304233058824 118.78051780451841,88.29036521665556 95.52437975348685,113.04464990751056" style="fill: none; stroke-opacity: 1; stroke: #35978f;"></path><path class="link" d="M54.86364919287223,-150.2996340555806C116.6188322127458,-109.54473046813077 180.28565567292918,-53.30180445896661 184.98935801229993,33.510258462104474" style="fill: none; stroke-opacity: 1; stroke: #35978f;"></path><path class="link" d="M147.59789203109037,26.736908347423785C137.61569329227146,59.6818310684874 105.93938074457047,78.745460868909 85.19741978013693,100.82360667426617" style="fill: none; stroke-opacity: 1; stroke: #35978f;"></path><path class="link" d="M147.59789203109037,26.736908347423785C137.61569329227146,59.6818310684874 120.38565993701191,89.48347826012387 96.8152497501556,114.57228031166612" style="fill: none; stroke-opacity: 1; stroke: #35978f;"></path><path class="link" d="M108.23845415613295,19.60706612144411C100.91817508099906,43.76667611689076 99.51881221459651,73.97300869503574 80.03393979346197,94.713085057644" style="fill: none; stroke-opacity: 1; stroke: #35978f;"></path><path class="link" d="M102.33453847488933,18.537589787547155C95.4135473493082,41.37940287415126 105.93938074457047,78.745460868909 85.19741978013693,100.82360667426617" style="fill: none; stroke-opacity: 1; stroke: #35978f;"></path><path class="link" d="M50.748875503406815,-139.02716150141205C107.87241979678987,-101.32887568302095 88.22489532930577,-26.083861756515574 90.5267071124021,16.398637119753253" style="fill: none; stroke-opacity: 1; stroke: #35978f;"></path><path class="link" d="M125.95020119986378,22.815495123134962C117.43205827607164,50.928495845109246 102.72909647958349,76.35923478197238 82.61567978679945,97.76834586595508" style="fill: none; stroke-opacity: 1; stroke: #35978f;"></path><path class="link" d="M125.95020119986378,22.815495123134962C117.43205827607164,50.928495845109246 126.80622846698587,94.25593043399715 101.97872973683057,120.68280192828831" style="fill: none; stroke-opacity: 1; stroke: #35978f;"></path><path class="link" d="M125.95020119986378,22.815495123134962C117.43205827607164,50.928495845109246 93.09824368462253,69.20055652116247 74.870459806787,88.6025634410218" style="fill: none; stroke-opacity: 1; stroke: #35978f;"></path><path class="link" d="M125.95020119986378,22.815495123134962C117.43205827607164,50.928495845109246 110.75480714205095,82.32479999931397 89.07002977014315,105.40649788673282" style="fill: none; stroke-opacity: 1; stroke: #35978f;"></path><path class="link" d="M131.8541168811074,23.884971457031913C122.9366860077625,53.31576908784874 118.78051780451841,88.29036521665556 95.52437975348685,113.04464990751056" style="fill: none; stroke-opacity: 1; stroke: #35978f;"></path><path class="link" d="M147.59789203109037,26.736908347423785C137.61569329227146,59.6818310684874 118.78051780451841,88.29036521665556 95.52437975348685,113.04464990751056" style="fill: none; stroke-opacity: 1; stroke: #35978f;"></path><path class="link" d="M147.59789203109037,26.736908347423785C137.61569329227146,59.6818310684874 117.17537567202491,87.09725217318724 94.23350975681812,111.51701950335502" style="fill: none; stroke-opacity: 1; stroke: #35978f;"></path><path class="link" d="M141.69397634984676,25.66743201352683C132.11106556058058,57.2945578257479 88.28281728714207,65.62121739075751 70.99784981678077,84.01967222855515" style="fill: none; stroke-opacity: 1; stroke: #35978f;"></path><path class="link" d="M145.6299201373425,26.3804162361248C135.78081738170783,58.88607332090756 102.72909647958349,76.35923478197238 82.61567978679945,97.76834586595508" style="fill: none; stroke-opacity: 1; stroke: #35978f;"></path><path class="link" d="M145.6299201373425,26.3804162361248C135.78081738170783,58.88607332090756 126.80622846698587,94.25593043399715 101.97872973683057,120.68280192828831" style="fill: none; stroke-opacity: 1; stroke: #35978f;"></path><path class="link" d="M171.21355475606484,31.01481368301159C159.6342042190349,69.23092403944538 120.38565993701191,89.48347826012387 96.8152497501556,114.57228031166612" style="fill: none; stroke-opacity: 1; stroke: #35978f;"></path><path class="link" d="M53.49205796305043,-146.5421432041911C113.70336140742715,-106.8061122064275 147.68080305122922,-43.6621164185152 151.5338358185861,27.449892570021753" style="fill: none; stroke-opacity: 1; stroke: #35978f;"></path><path class="link" d="M125.95020119986378,22.815495123134962C117.43205827607164,50.928495845109246 107.54452287706397,79.93857391237734 86.48828977680567,102.35123707842173" style="fill: none; stroke-opacity: 1; stroke: #35978f;"></path><path class="link" d="M141.69397634984676,25.66743201352683C132.11106556058058,57.2945578257479 118.78051780451841,88.29036521665556 95.52437975348685,113.04464990751056" style="fill: none; stroke-opacity: 1; stroke: #35978f;"></path><path class="link" d="M141.69397634984676,25.66743201352683C132.11106556058058,57.2945578257479 83.46739088966159,62.041878260352554 67.12523982677455,79.4367810160885" style="fill: none; stroke-opacity: 1; stroke: #35978f;"></path><path class="link" d="M127.91817309361166,23.171987234433946C119.26693418663527,51.72425359268908 102.72909647958349,76.35923478197238 82.61567978679945,97.76834586595508" style="fill: none; stroke-opacity: 1; stroke: #35978f;"></path><path class="link" d="M135.79006066860313,24.59795567962988C126.60643782888974,54.907284583008405 104.33423861207699,77.55234782544069 83.9065497834682,99.29597627011063" style="fill: none; stroke-opacity: 1; stroke: #35978f;"></path><path class="link" d="M143.66194824359462,26.023924124825815C133.9459414711442,58.090315573327736 126.80622846698587,94.25593043399715 101.97872973683057,120.68280192828831" style="fill: none; stroke-opacity: 1; stroke: #35978f;"></path><path class="link" d="M143.66194824359462,26.023924124825815C133.9459414711442,58.090315573327736 118.78051780451841,88.29036521665556 95.52437975348685,113.04464990751056" style="fill: none; stroke-opacity: 1; stroke: #35978f;"></path><path class="link" d="M143.66194824359462,26.023924124825815C133.9459414711442,58.090315573327736 130.01651273197285,96.64215652093378 104.56046973016805,123.7380627365994" style="fill: none; stroke-opacity: 1; stroke: #35978f;"></path><path class="link" d="M143.66194824359462,26.023924124825815C133.9459414711442,58.090315573327736 102.72909647958349,76.35923478197238 82.61567978679945,97.76834586595508" style="fill: none; stroke-opacity: 1; stroke: #35978f;"></path><path class="link" d="M143.66194824359462,26.023924124825815C133.9459414711442,58.090315573327736 126.80622846698587,94.25593043399715 101.97872973683057,120.68280192828831" style="fill: none; stroke-opacity: 1; stroke: #35978f;"></path><path class="link" d="M143.66194824359462,26.023924124825815C133.9459414711442,58.090315573327736 83.46739088966159,62.041878260352554 67.12523982677455,79.4367810160885" style="fill: none; stroke-opacity: 1; stroke: #35978f;"></path><path class="link" d="M143.66194824359462,26.023924124825815C133.9459414711442,58.090315573327736 115.57023353953143,85.90413912971893 92.94263976014938,109.98938909919947" style="fill: none; stroke-opacity: 1; stroke: #35978f;"></path><path class="link" d="M41.14773689465417,-112.72472554168546C87.46412415955935,-82.15854785109808 105.48628789373517,-31.187226013225143 108.23845415613295,19.60706612144411" style="fill: none; stroke-opacity: 1; stroke: #35978f;"></path><path class="link" d="M123.98222930611591,22.45900301183598C115.59718236550802,50.13273809752941 120.38565993701191,89.48347826012387 96.8152497501556,114.57228031166612" style="fill: none; stroke-opacity: 1; stroke: #35978f;"></path><path class="link" d="M120.04628551862017,21.74601878923801C111.92743054438078,48.54122260236975 117.17537567202491,87.09725217318724 94.23350975681812,111.51701950335502" style="fill: none; stroke-opacity: 1; stroke: #35978f;"></path><path class="link" d="M151.5338358185861,27.449892570021753C141.2854451133987,61.27334656364706 113.96509140703793,84.7110260862506 91.65176976348063,108.46175869504393" style="fill: none; stroke-opacity: 1; stroke: #35978f;"></path><path class="link" d="M151.5338358185861,27.449892570021753C141.2854451133987,61.27334656364706 117.17537567202491,87.09725217318724 94.23350975681812,111.51701950335502" style="fill: none; stroke-opacity: 1; stroke: #35978f;"></path><path class="link" d="M133.82208877485527,24.241463568330897C124.77156191832611,54.11152683542858 120.38565993701191,89.48347826012387 96.8152497501556,114.57228031166612" style="fill: none; stroke-opacity: 1; stroke: #35978f;"></path><path class="link" d="M141.69397634984676,25.66743201352683C132.11106556058058,57.2945578257479 118.78051780451841,88.29036521665556 95.52437975348685,113.04464990751056" style="fill: none; stroke-opacity: 1; stroke: #35978f;"></path><path class="link" d="M141.69397634984676,25.66743201352683C132.11106556058058,57.2945578257479 121.99080206950539,90.67659130359219 98.10611974682435,116.09991071582166" style="fill: none; stroke-opacity: 1; stroke: #35978f;"></path><path class="link" d="M141.69397634984676,25.66743201352683C132.11106556058058,57.2945578257479 118.78051780451841,88.29036521665556 95.52437975348685,113.04464990751056" style="fill: none; stroke-opacity: 1; stroke: #35978f;"></path><path class="link" d="M80.68684764366273,14.616176563258335C75.2299123331084,32.62606765077311 130.01651273197285,96.64215652093378 104.56046973016805,123.7380627365994" style="fill: none; stroke-opacity: 1; stroke: #35978f;"></path><path class="link" d="M127.91817309361166,23.171987234433946C119.26693418663527,51.72425359268908 118.78051780451841,88.29036521665556 95.52437975348685,113.04464990751056" style="fill: none; stroke-opacity: 1; stroke: #35978f;"></path><path class="link" d="M127.91817309361166,23.171987234433946C119.26693418663527,51.72425359268908 97.91367008210301,72.77989565156741 78.74306979679322,93.18545465348843" style="fill: none; stroke-opacity: 1; stroke: #35978f;"></path><path class="link" d="M129.88614498735953,23.52847934573293C121.10181009719888,52.52001134026891 113.96509140703793,84.7110260862506 91.65176976348063,108.46175869504393" style="fill: none; stroke-opacity: 1; stroke: #35978f;"></path><path class="link" d="M129.88614498735953,23.52847934573293C121.10181009719888,52.52001134026891 102.72909647958349,76.35923478197238 82.61567978679945,97.76834586595508" style="fill: none; stroke-opacity: 1; stroke: #35978f;"></path><path class="link" d="M161.37369528732546,29.23235312651667C150.4598246662168,65.25213530154622 107.54452287706397,79.93857391237734 86.48828977680567,102.35123707842173" style="fill: none; stroke-opacity: 1; stroke: #35978f;"></path><path class="link" d="M159.4057233935776,28.875861015217687C148.62494875565318,64.45637755396639 120.38565993701191,89.48347826012387 96.8152497501556,114.57228031166612" style="fill: none; stroke-opacity: 1; stroke: #35978f;"></path><path class="link" d="M159.4057233935776,28.875861015217687C148.62494875565318,64.45637755396639 102.72909647958349,76.35923478197238 82.61567978679945,97.76834586595508" style="fill: none; stroke-opacity: 1; stroke: #35978f;"></path><path class="link" d="M159.4057233935776,28.875861015217687C148.62494875565318,64.45637755396639 126.80622846698587,94.25593043399715 101.97872973683057,120.68280192828831" style="fill: none; stroke-opacity: 1; stroke: #35978f;"></path><path class="link" d="M159.4057233935776,28.875861015217687C148.62494875565318,64.45637755396639 110.75480714205095,82.32479999931397 89.07002977014315,105.40649788673282" style="fill: none; stroke-opacity: 1; stroke: #35978f;"></path><path class="link" d="M159.4057233935776,28.875861015217687C148.62494875565318,64.45637755396639 134.83193912945333,100.22149565133874 108.43307972017428,128.32095394906605" style="fill: none; stroke-opacity: 1; stroke: #35978f;"></path><path class="link" d="M159.4057233935776,28.875861015217687C148.62494875565318,64.45637755396639 130.01651273197285,96.64215652093378 104.56046973016805,123.7380627365994" style="fill: none; stroke-opacity: 1; stroke: #35978f;"></path><path class="link" d="M159.4057233935776,28.875861015217687C148.62494875565318,64.45637755396639 139.6473655269338,103.8008347817437 112.3056897101805,132.9038451615327" style="fill: none; stroke-opacity: 1; stroke: #35978f;"></path><path class="link" d="M56.92103603760494,-155.93587033266488C120.99203842072377,-113.65265786068566 147.68080305122922,-43.6621164185152 151.5338358185861,27.449892570021753" style="fill: none; stroke-opacity: 1; stroke: #35978f;"></path><path class="link" d="M139.72600445609888,25.310939902227847C130.276189650017,56.49880007816807 105.93938074457047,78.745460868909 85.19741978013693,100.82360667426617" style="fill: none; stroke-opacity: 1; stroke: #35978f;"></path><path class="link" d="M139.72600445609888,25.310939902227847C130.276189650017,56.49880007816807 105.93938074457047,78.745460868909 85.19741978013693,100.82360667426617" style="fill: none; stroke-opacity: 1; stroke: #35978f;"></path><path class="link" d="M139.72600445609888,25.310939902227847C130.276189650017,56.49880007816807 130.01651273197285,96.64215652093378 104.56046973016805,123.7380627365994" style="fill: none; stroke-opacity: 1; stroke: #35978f;"></path><path class="link" d="M139.72600445609888,25.310939902227847C130.276189650017,56.49880007816807 130.01651273197285,96.64215652093378 104.56046973016805,123.7380627365994" style="fill: none; stroke-opacity: 1; stroke: #35978f;"></path><path class="link" d="M157.43775149982974,28.519368903918703C146.79007284508955,63.660619806386556 126.80622846698587,94.25593043399715 101.97872973683057,120.68280192828831" style="fill: none; stroke-opacity: 1; stroke: #35978f;"></path><path class="link" d="M157.43775149982974,28.519368903918703C146.79007284508955,63.660619806386556 110.75480714205095,82.32479999931397 89.07002977014315,105.40649788673282" style="fill: none; stroke-opacity: 1; stroke: #35978f;"></path><path class="link" d="M157.43775149982974,28.519368903918703C146.79007284508955,63.660619806386556 102.72909647958349,76.35923478197238 82.61567978679945,97.76834586595508" style="fill: none; stroke-opacity: 1; stroke: #35978f;"></path><path class="link" d="M120.04628551862017,21.74601878923801C111.92743054438078,48.54122260236975 102.72909647958349,76.35923478197238 82.61567978679945,97.76834586595508" style="fill: none; stroke-opacity: 1; stroke: #35978f;"></path><path class="link" d="M139.72600445609888,25.310939902227847C130.276189650017,56.49880007816807 146.06793405690777,108.57328695561696 117.46916969685546,139.01436677815488" style="fill: none; stroke-opacity: 1; stroke: #35978f;"></path><path class="link" d="M56.23524042269404,-154.05712490697013C119.53430301806445,-112.28334872983403 166.86012812281743,-49.3325211481925 171.21355475606484,31.01481368301159" style="fill: none; stroke-opacity: 1; stroke: #35978f;"></path><path class="link" d="M143.66194824359462,26.023924124825815C133.9459414711442,58.090315573327736 118.78051780451841,88.29036521665556 95.52437975348685,113.04464990751056" style="fill: none; stroke-opacity: 1; stroke: #35978f;"></path><path class="link" d="M143.66194824359462,26.023924124825815C133.9459414711442,58.090315573327736 83.46739088966159,62.041878260352554 67.12523982677455,79.4367810160885" style="fill: none; stroke-opacity: 1; stroke: #35978f;"></path><path class="link" d="M143.66194824359462,26.023924124825815C133.9459414711442,58.090315573327736 120.38565993701191,89.48347826012387 96.8152497501556,114.57228031166612" style="fill: none; stroke-opacity: 1; stroke: #35978f;"></path><path class="link" d="M143.66194824359462,26.023924124825815C133.9459414711442,58.090315573327736 133.22679699695985,99.02838260787043 107.14220972350553,126.79332354491049" style="fill: none; stroke-opacity: 1; stroke: #35978f;"></path><path class="link" d="M49.37728427358501,-135.26967065002253C104.95694899147122,-98.59025742131769 105.48628789373517,-31.187226013225143 108.23845415613295,19.60706612144411" style="fill: none; stroke-opacity: 1; stroke: #35978f;"></path><path class="link" d="M165.3096390748212,29.945337349114638C154.12957648734402,66.84365079670589 126.80622846698587,94.25593043399715 101.97872973683057,120.68280192828831" style="fill: none; stroke-opacity: 1; stroke: #35978f;"></path><path class="link" d="M165.3096390748212,29.945337349114638C154.12957648734402,66.84365079670589 150.88336045438825,112.15262608602193 121.34177968686168,143.59725799062153" style="fill: none; stroke-opacity: 1; stroke: #35978f;"></path><path class="link" d="M135.79006066860313,24.59795567962988C126.60643782888974,54.907284583008405 112.35994927454445,83.51791304278228 90.3608997668119,106.93412829088837" style="fill: none; stroke-opacity: 1; stroke: #35978f;"></path><path class="link" d="M135.79006066860313,24.59795567962988C126.60643782888974,54.907284583008405 118.78051780451841,88.29036521665556 95.52437975348685,113.04464990751056" style="fill: none; stroke-opacity: 1; stroke: #35978f;"></path><path class="link" d="M120.04628551862017,21.74601878923801C111.92743054438078,48.54122260236975 105.93938074457047,78.745460868909 85.19741978013693,100.82360667426617" style="fill: none; stroke-opacity: 1; stroke: #35978f;"></path><path class="link" d="M120.04628551862017,21.74601878923801C111.92743054438078,48.54122260236975 126.80622846698587,94.25593043399715 101.97872973683057,120.68280192828831" style="fill: none; stroke-opacity: 1; stroke: #35978f;"></path><path class="link" d="M120.04628551862017,21.74601878923801C111.92743054438078,48.54122260236975 102.72909647958349,76.35923478197238 82.61567978679945,97.76834586595508" style="fill: none; stroke-opacity: 1; stroke: #35978f;"></path><path class="link" d="M120.04628551862017,21.74601878923801C111.92743054438078,48.54122260236975 117.17537567202491,87.09725217318724 94.23350975681812,111.51701950335502" style="fill: none; stroke-opacity: 1; stroke: #35978f;"></path><path class="link" d="M120.04628551862017,21.74601878923801C111.92743054438078,48.54122260236975 123.59594420199889,91.86970434706052 99.39698974349308,117.62754111997721" style="fill: none; stroke-opacity: 1; stroke: #35978f;"></path><path class="link" d="M34.975576360456046,-95.81601671043263C74.34450553562544,-69.83476567343337 99.7324903722587,-29.48610459432195 102.33453847488933,18.537589787547155" style="fill: none; stroke-opacity: 1; stroke: #35978f;"></path><path class="link" d="M56.23524042269404,-154.05712490697013C119.53430301806445,-112.28334872983403 155.35253307986451,-45.93027831038612 159.4057233935776,28.875861015217687" style="fill: none; stroke-opacity: 1; stroke: #35978f;"></path><path class="link" d="M125.95020119986378,22.815495123134962C117.43205827607164,50.928495845109246 113.96509140703793,84.7110260862506 91.65176976348063,108.46175869504393" style="fill: none; stroke-opacity: 1; stroke: #35978f;"></path><path class="link" d="M125.95020119986378,22.815495123134962C117.43205827607164,50.928495845109246 115.57023353953143,85.90413912971893 92.94263976014938,109.98938909919947" style="fill: none; stroke-opacity: 1; stroke: #35978f;"></path><path class="link" d="M129.88614498735953,23.52847934573293C121.10181009719888,52.52001134026891 105.93938074457047,78.745460868909 85.19741978013693,100.82360667426617" style="fill: none; stroke-opacity: 1; stroke: #35978f;"></path><path class="link" d="M129.88614498735953,23.52847934573293C121.10181009719888,52.52001134026891 107.54452287706397,79.93857391237734 86.48828977680567,102.35123707842173" style="fill: none; stroke-opacity: 1; stroke: #35978f;"></path><path class="link" d="M129.88614498735953,23.52847934573293C121.10181009719888,52.52001134026891 120.38565993701191,89.48347826012387 96.8152497501556,114.57228031166612" style="fill: none; stroke-opacity: 1; stroke: #35978f;"></path><path class="link" d="M56.92103603760494,-155.93587033266488C120.99203842072377,-113.65265786068566 120.82974795100573,-35.72354979696698 123.98222930611591,22.45900301183598" style="fill: none; stroke-opacity: 1; stroke: #35978f;"></path><path class="link" d="M145.6299201373425,26.3804162361248C135.78081738170783,58.88607332090756 117.17537567202491,87.09725217318724 94.23350975681812,111.51701950335502" style="fill: none; stroke-opacity: 1; stroke: #35978f;"></path><path class="link" d="M145.6299201373425,26.3804162361248C135.78081738170783,58.88607332090756 120.38565993701191,89.48347826012387 96.8152497501556,114.57228031166612" style="fill: none; stroke-opacity: 1; stroke: #35978f;"></path><path class="link" d="M145.6299201373425,26.3804162361248C135.78081738170783,58.88607332090756 117.17537567202491,87.09725217318724 94.23350975681812,111.51701950335502" style="fill: none; stroke-opacity: 1; stroke: #35978f;"></path><path class="link" d="M45.9483061990305,-125.87594352154876C97.66827197817462,-91.74371176705951 141.92700552975276,-41.96099499961201 145.6299201373425,26.3804162361248" style="fill: none; stroke-opacity: 1; stroke: #35978f;"></path><path class="link" d="M139.72600445609888,25.310939902227847C130.276189650017,56.49880007816807 104.33423861207699,77.55234782544069 83.9065497834682,99.29597627011063" style="fill: none; stroke-opacity: 1; stroke: #35978f;"></path><path class="link" d="M139.72600445609888,25.310939902227847C130.276189650017,56.49880007816807 133.22679699695985,99.02838260787043 107.14220972350553,126.79332354491049" style="fill: none; stroke-opacity: 1; stroke: #35978f;"></path><path class="link" d="M145.6299201373425,26.3804162361248C135.78081738170783,58.88607332090756 130.01651273197285,96.64215652093378 104.56046973016805,123.7380627365994" style="fill: none; stroke-opacity: 1; stroke: #35978f;"></path><path class="link" d="M145.6299201373425,26.3804162361248C135.78081738170783,58.88607332090756 123.59594420199889,91.86970434706052 99.39698974349308,117.62754111997721" style="fill: none; stroke-opacity: 1; stroke: #35978f;"></path><path class="link" d="M145.6299201373425,26.3804162361248C135.78081738170783,58.88607332090756 104.33423861207699,77.55234782544069 83.9065497834682,99.29597627011063" style="fill: none; stroke-opacity: 1; stroke: #35978f;"></path><path class="link" d="M145.6299201373425,26.3804162361248C135.78081738170783,58.88607332090756 121.99080206950539,90.67659130359219 98.10611974682435,116.09991071582166" style="fill: none; stroke-opacity: 1; stroke: #35978f;"></path><path class="link" d="M145.6299201373425,26.3804162361248C135.78081738170783,58.88607332090756 65.81082743223317,48.917634782201056 52.9256698634184,62.632846570377474" style="fill: none; stroke-opacity: 1; stroke: #35978f;"></path><path class="link" d="M52.12046673322862,-142.78465235280157C110.78789060210852,-104.06749394472422 132.33734299395866,-39.12579263477336 135.79006066860313,24.59795567962988" style="fill: none; stroke-opacity: 1; stroke: #35978f;"></path><path class="link" d="M129.88614498735953,23.52847934573293C121.10181009719888,52.52001134026891 110.75480714205095,82.32479999931397 89.07002977014315,105.40649788673282" style="fill: none; stroke-opacity: 1; stroke: #35978f;"></path><path class="link" d="M129.88614498735953,23.52847934573293C121.10181009719888,52.52001134026891 139.6473655269338,103.8008347817437 112.3056897101805,132.9038451615327" style="fill: none; stroke-opacity: 1; stroke: #35978f;"></path><path class="link" d="M129.88614498735953,23.52847934573293C121.10181009719888,52.52001134026891 113.96509140703793,84.7110260862506 91.65176976348063,108.46175869504393" style="fill: none; stroke-opacity: 1; stroke: #35978f;"></path><path class="link" d="M157.43775149982974,28.519368903918703C146.79007284508955,63.660619806386556 118.78051780451841,88.29036521665556 95.52437975348685,113.04464990751056" style="fill: none; stroke-opacity: 1; stroke: #35978f;"></path><path class="link" d="M157.43775149982974,28.519368903918703C146.79007284508955,63.660619806386556 120.38565993701191,89.48347826012387 96.8152497501556,114.57228031166612" style="fill: none; stroke-opacity: 1; stroke: #35978f;"></path><path class="link" d="M157.43775149982974,28.519368903918703C146.79007284508955,63.660619806386556 133.22679699695985,99.02838260787043 107.14220972350553,126.79332354491049" style="fill: none; stroke-opacity: 1; stroke: #35978f;"></path><path class="link" d="M157.43775149982974,28.519368903918703C146.79007284508955,63.660619806386556 117.17537567202491,87.09725217318724 94.23350975681812,111.51701950335502" style="fill: none; stroke-opacity: 1; stroke: #35978f;"></path><path class="link" d="M54.86364919287223,-150.2996340555806C116.6188322127458,-109.54473046813077 122.74768045816455,-36.29059026993471 125.95020119986378,22.815495123134962" style="fill: none; stroke-opacity: 1; stroke: #35978f;"></path><path class="link" d="M129.88614498735953,23.52847934573293C121.10181009719888,52.52001134026891 120.38565993701191,89.48347826012387 96.8152497501556,114.57228031166612" style="fill: none; stroke-opacity: 1; stroke: #35978f;"></path><path class="link" d="M129.88614498735953,23.52847934573293C121.10181009719888,52.52001134026891 133.22679699695985,99.02838260787043 107.14220972350553,126.79332354491049" style="fill: none; stroke-opacity: 1; stroke: #35978f;"></path><path class="link" d="M129.88614498735953,23.52847934573293C121.10181009719888,52.52001134026891 117.17537567202491,87.09725217318724 94.23350975681812,111.51701950335502" style="fill: none; stroke-opacity: 1; stroke: #35978f;"></path><path class="link" d="M147.59789203109037,26.736908347423785C137.61569329227146,59.6818310684874 102.72909647958349,76.35923478197238 82.61567978679945,97.76834586595508" style="fill: none; stroke-opacity: 1; stroke: #35978f;"></path><path class="link" d="M147.59789203109037,26.736908347423785C137.61569329227146,59.6818310684874 117.17537567202491,87.09725217318724 94.23350975681812,111.51701950335502" style="fill: none; stroke-opacity: 1; stroke: #35978f;"></path><path class="link" d="M147.59789203109037,26.736908347423785C137.61569329227146,59.6818310684874 118.78051780451841,88.29036521665556 95.52437975348685,113.04464990751056" style="fill: none; stroke-opacity: 1; stroke: #35978f;"></path><path class="link" d="M147.59789203109037,26.736908347423785C137.61569329227146,59.6818310684874 128.41137059947937,95.44904347746547 103.2695997334993,122.21043233244386" style="fill: none; stroke-opacity: 1; stroke: #35978f;"></path><path class="link" d="M147.59789203109037,26.736908347423785C137.61569329227146,59.6818310684874 120.38565993701191,89.48347826012387 96.8152497501556,114.57228031166612" style="fill: none; stroke-opacity: 1; stroke: #35978f;"></path><path class="link" d="M147.59789203109037,26.736908347423785C137.61569329227146,59.6818310684874 128.41137059947937,95.44904347746547 103.2695997334993,122.21043233244386" style="fill: none; stroke-opacity: 1; stroke: #35978f;"></path><path class="link" d="M33.60398513063424,-92.05852585904312C71.42903473030681,-67.09614741173009 99.7324903722587,-29.48610459432195 102.33453847488933,18.537589787547155" style="fill: none; stroke-opacity: 1; stroke: #35978f;"></path><path class="link" d="M127.91817309361166,23.171987234433946C119.26693418663527,51.72425359268908 105.93938074457047,78.745460868909 85.19741978013693,100.82360667426617" style="fill: none; stroke-opacity: 1; stroke: #35978f;"></path><path class="link" d="M127.91817309361166,23.171987234433946C119.26693418663527,51.72425359268908 102.72909647958349,76.35923478197238 82.61567978679945,97.76834586595508" style="fill: none; stroke-opacity: 1; stroke: #35978f;"></path><path class="link" d="M127.91817309361166,23.171987234433946C119.26693418663527,51.72425359268908 113.96509140703793,84.7110260862506 91.65176976348063,108.46175869504393" style="fill: none; stroke-opacity: 1; stroke: #35978f;"></path><path class="link" d="M116.11034173112442,21.033034566640044C108.25767872325355,46.94970710721009 101.12395434708999,75.16612173850406 81.3248097901307,96.24071546179954" style="fill: none; stroke-opacity: 1; stroke: #35978f;"></path><path class="link" d="M137.75803256235102,24.954447790928864C128.44131373945336,55.70304233058824 102.72909647958349,76.35923478197238 82.61567978679945,97.76834586595508" style="fill: none; stroke-opacity: 1; stroke: #35978f;"></path><path class="link" d="M137.75803256235102,24.954447790928864C128.44131373945336,55.70304233058824 118.78051780451841,88.29036521665556 95.52437975348685,113.04464990751056" style="fill: none; stroke-opacity: 1; stroke: #35978f;"></path><path class="link" d="M149.56586392483825,27.09340045872277C139.45056920283508,60.47758881606723 113.96509140703793,84.7110260862506 91.65176976348063,108.46175869504393" style="fill: none; stroke-opacity: 1; stroke: #35978f;"></path><path class="link" d="M149.56586392483825,27.09340045872277C139.45056920283508,60.47758881606723 118.78051780451841,88.29036521665556 95.52437975348685,113.04464990751056" style="fill: none; stroke-opacity: 1; stroke: #35978f;"></path><path class="link" d="M149.56586392483825,27.09340045872277C139.45056920283508,60.47758881606723 121.99080206950539,90.67659130359219 98.10611974682435,116.09991071582166" style="fill: none; stroke-opacity: 1; stroke: #35978f;"></path><path class="link" d="M149.56586392483825,27.09340045872277C139.45056920283508,60.47758881606723 118.78051780451841,88.29036521665556 95.52437975348685,113.04464990751056" style="fill: none; stroke-opacity: 1; stroke: #35978f;"></path><path class="link" d="M149.56586392483825,27.09340045872277C139.45056920283508,60.47758881606723 102.72909647958349,76.35923478197238 82.61567978679945,97.76834586595508" style="fill: none; stroke-opacity: 1; stroke: #35978f;"></path><path class="link" d="M149.56586392483825,27.09340045872277C139.45056920283508,60.47758881606723 109.14966500955745,81.13168695584565 87.77915977347442,103.87886748257728" style="fill: none; stroke-opacity: 1; stroke: #35978f;"></path><path class="link" d="M149.56586392483825,27.09340045872277C139.45056920283508,60.47758881606723 113.96509140703793,84.7110260862506 91.65176976348063,108.46175869504393" style="fill: none; stroke-opacity: 1; stroke: #35978f;"></path><path class="link" d="M149.56586392483825,27.09340045872277C139.45056920283508,60.47758881606723 110.75480714205095,82.32479999931397 89.07002977014315,105.40649788673282" style="fill: none; stroke-opacity: 1; stroke: #35978f;"></path><path class="link" d="M151.5338358185861,27.449892570021753C141.2854451133987,61.27334656364706 120.38565993701191,89.48347826012387 96.8152497501556,114.57228031166612" style="fill: none; stroke-opacity: 1; stroke: #35978f;"></path><path class="link" d="M151.5338358185861,27.449892570021753C141.2854451133987,61.27334656364706 118.78051780451841,88.29036521665556 95.52437975348685,113.04464990751056" style="fill: none; stroke-opacity: 1; stroke: #35978f;"></path><path class="link" d="M151.5338358185861,27.449892570021753C141.2854451133987,61.27334656364706 146.06793405690777,108.57328695561696 117.46916969685546,139.01436677815488" style="fill: none; stroke-opacity: 1; stroke: #35978f;"></path><path class="link" d="M151.5338358185861,27.449892570021753C141.2854451133987,61.27334656364706 102.72909647958349,76.35923478197238 82.61567978679945,97.76834586595508" style="fill: none; stroke-opacity: 1; stroke: #35978f;"></path><path class="link" d="M151.5338358185861,27.449892570021753C141.2854451133987,61.27334656364706 113.96509140703793,84.7110260862506 91.65176976348063,108.46175869504393" style="fill: none; stroke-opacity: 1; stroke: #35978f;"></path><path class="link" d="M151.5338358185861,27.449892570021753C141.2854451133987,61.27334656364706 121.99080206950539,90.67659130359219 98.10611974682435,116.09991071582166" style="fill: none; stroke-opacity: 1; stroke: #35978f;"></path><path class="link" d="M133.82208877485527,24.241463568330897C124.77156191832611,54.11152683542858 109.14966500955745,81.13168695584565 87.77915977347442,103.87886748257728" style="fill: none; stroke-opacity: 1; stroke: #35978f;"></path><path class="link" d="M133.82208877485527,24.241463568330897C124.77156191832611,54.11152683542858 121.99080206950539,90.67659130359219 98.10611974682435,116.09991071582166" style="fill: none; stroke-opacity: 1; stroke: #35978f;"></path><path class="link" d="M123.98222930611591,22.45900301183598C115.59718236550802,50.13273809752941 126.80622846698587,94.25593043399715 101.97872973683057,120.68280192828831" style="fill: none; stroke-opacity: 1; stroke: #35978f;"></path><path class="link" d="M123.98222930611591,22.45900301183598C115.59718236550802,50.13273809752941 102.72909647958349,76.35923478197238 82.61567978679945,97.76834586595508" style="fill: none; stroke-opacity: 1; stroke: #35978f;"></path><path class="link" d="M123.98222930611591,22.45900301183598C115.59718236550802,50.13273809752941 128.41137059947937,95.44904347746547 103.2695997334993,122.21043233244386" style="fill: none; stroke-opacity: 1; stroke: #35978f;"></path><path class="link" d="M102.33453847488933,18.537589787547155C95.4135473493082,41.37940287415126 102.72909647958349,76.35923478197238 82.61567978679945,97.76834586595508" style="fill: none; stroke-opacity: 1; stroke: #35978f;"></path><path class="link" d="M102.33453847488933,18.537589787547155C95.4135473493082,41.37940287415126 93.09824368462253,69.20055652116247 74.870459806787,88.6025634410218" style="fill: none; stroke-opacity: 1; stroke: #35978f;"></path><path class="link" d="M102.33453847488933,18.537589787547155C95.4135473493082,41.37940287415126 102.72909647958349,76.35923478197238 82.61567978679945,97.76834586595508" style="fill: none; stroke-opacity: 1; stroke: #35978f;"></path><path class="link" d="M161.37369528732546,29.23235312651667C150.4598246662168,65.25213530154622 126.80622846698587,94.25593043399715 101.97872973683057,120.68280192828831" style="fill: none; stroke-opacity: 1; stroke: #35978f;"></path><path class="link" d="M161.37369528732546,29.23235312651667C150.4598246662168,65.25213530154622 118.78051780451841,88.29036521665556 95.52437975348685,113.04464990751056" style="fill: none; stroke-opacity: 1; stroke: #35978f;"></path><path class="link" d="M161.37369528732546,29.23235312651667C150.4598246662168,65.25213530154622 118.78051780451841,88.29036521665556 95.52437975348685,113.04464990751056" style="fill: none; stroke-opacity: 1; stroke: #35978f;"></path><path class="link" d="M161.37369528732546,29.23235312651667C150.4598246662168,65.25213530154622 130.01651273197285,96.64215652093378 104.56046973016805,123.7380627365994" style="fill: none; stroke-opacity: 1; stroke: #35978f;"></path><path class="link" d="M161.37369528732546,29.23235312651667C150.4598246662168,65.25213530154622 120.38565993701191,89.48347826012387 96.8152497501556,114.57228031166612" style="fill: none; stroke-opacity: 1; stroke: #35978f;"></path><path class="link" d="M161.37369528732546,29.23235312651667C150.4598246662168,65.25213530154622 117.17537567202491,87.09725217318724 94.23350975681812,111.51701950335502" style="fill: none; stroke-opacity: 1; stroke: #35978f;"></path><path class="link" d="M161.37369528732546,29.23235312651667C150.4598246662168,65.25213530154622 117.17537567202491,87.09725217318724 94.23350975681812,111.51701950335502" style="fill: none; stroke-opacity: 1; stroke: #35978f;"></path><path class="link" d="M161.37369528732546,29.23235312651667C150.4598246662168,65.25213530154622 128.41137059947937,95.44904347746547 103.2695997334993,122.21043233244386" style="fill: none; stroke-opacity: 1; stroke: #35978f;"></path><path class="link" d="M161.37369528732546,29.23235312651667C150.4598246662168,65.25213530154622 121.99080206950539,90.67659130359219 98.10611974682435,116.09991071582166" style="fill: none; stroke-opacity: 1; stroke: #35978f;"></path><path class="link" d="M45.9483061990305,-125.87594352154876C97.66827197817462,-91.74371176705951 126.5835454724822,-37.42467121587017 129.88614498735953,23.52847934573293" style="fill: none; stroke-opacity: 1; stroke: #35978f;"></path><path class="link" d="M161.37369528732546,29.23235312651667C150.4598246662168,65.25213530154622 118.78051780451841,88.29036521665556 95.52437975348685,113.04464990751056" style="fill: none; stroke-opacity: 1; stroke: #35978f;"></path><path class="link" d="M161.37369528732546,29.23235312651667C150.4598246662168,65.25213530154622 121.99080206950539,90.67659130359219 98.10611974682435,116.09991071582166" style="fill: none; stroke-opacity: 1; stroke: #35978f;"></path><path class="link" d="M161.37369528732546,29.23235312651667C150.4598246662168,65.25213530154622 118.78051780451841,88.29036521665556 95.52437975348685,113.04464990751056" style="fill: none; stroke-opacity: 1; stroke: #35978f;"></path><path class="link" d="M161.37369528732546,29.23235312651667C150.4598246662168,65.25213530154622 112.35994927454445,83.51791304278228 90.3608997668119,106.93412829088837" style="fill: none; stroke-opacity: 1; stroke: #35978f;"></path><path class="link" d="M161.37369528732546,29.23235312651667C150.4598246662168,65.25213530154622 115.57023353953143,85.90413912971893 92.94263976014938,109.98938909919947" style="fill: none; stroke-opacity: 1; stroke: #35978f;"></path><path class="link" d="M161.37369528732546,29.23235312651667C150.4598246662168,65.25213530154622 121.99080206950539,90.67659130359219 98.10611974682435,116.09991071582166" style="fill: none; stroke-opacity: 1; stroke: #35978f;"></path><path class="link" d="M161.37369528732546,29.23235312651667C150.4598246662168,65.25213530154622 131.62165486446634,97.83526956440211 105.8513397268368,125.26569314075495" style="fill: none; stroke-opacity: 1; stroke: #35978f;"></path></g></svg>