<?xml version="1.0" standalone="no"?><!DOCTYPE svg PUBLIC "-//W3C//DTD SVG 1.1//EN" "http://www.w3.org/Graphics/SVG/1.1/DTD/svg11.dtd"><svg class="Hive Plot Module 3" width="600" height="500" version="1.1" xmlns="http://www.w3.org/2000/svg" xmlns:xlink="http://www.w3.org/1999/xlink" style="background-color: white;"><defs><style type="text/css"><![CDATA[]]></style></defs><g transform="translate(300,250)"><line class="axis" transform="rotate(-110.05352282957881)" x1="40" x2="240" stroke-width="0.7" stroke="black"></line><line class="axis" transform="rotate(-69.94647717042119)" x1="40" x2="240" stroke-width="0.7" stroke="black"></line><line class="axis" transform="rotate(10.26761414789408)" x1="40" x2="240" stroke-width="0.7" stroke="black"></line><line class="axis" transform="rotate(49.80170201192087)" x1="40" x2="240" stroke-width="0.7" stroke="black"></line><line class="axis" transform="rotate(130.0157933302361)" x1="40" x2="240" stroke-width="0.7" stroke="black"></line><line class="axis" transform="rotate(170.12283898939376)" x1="40" x2="240" stroke-width="0.7" stroke="black"></line><path class="link" d="M159.4057233935776,28.875861015217687C148.62494875565318,64.45637755396639 107.54452287706397,79.93857391237734 86.48828977680567,102.35123707842173" style="fill: none; stroke-opacity: 0.8; stroke: rgb(53, 151, 143); stroke-width: 0.8px;"></path><path class="link" d="M131.8541168811074,23.884971457031913C122.9366860077625,53.31576908784874 130.01651273197285,96.64215652093378 104.56046973016805,123.7380627365994" style="fill: none; stroke-opacity: 0.8; stroke: rgb(53, 151, 143); stroke-width: 0.8px;"></path><path class="link" d="M147.59789203109037,26.736908347423785C137.61569329227146,59.6818310684874 166.93478177932317,124.08375652070511 134.2504796535491,158.873562032177" style="fill: none; stroke-opacity: 0.8; stroke: rgb(53, 151, 143); stroke-width: 0.8px;"></path><path class="link" d="M204.66907694977866,37.07517957509431C190.8270946986164,82.75880574830252 120.38565993701191,89.48347826012387 96.8152497501556,114.57228031166612" style="fill: none; stroke-opacity: 0.8; stroke: rgb(53, 151, 143); stroke-width: 0.8px;"></path><path class="link" d="M114.14236983737655,20.67654245534106C106.42280281268992,46.15394935963025 96.30852794960953,71.5867826080991 77.45219980012448,91.65782424933289" style="fill: none; stroke-opacity: 0.8; stroke: rgb(53, 151, 143); stroke-width: 0.8px;"></path><path class="link" d="M118.0783136248723,21.389526677939028C110.09255463381717,47.745464854789915 93.09824368462253,69.20055652116247 74.870459806787,88.6025634410218" style="fill: none; stroke-opacity: 0.8; stroke: rgb(53, 151, 143); stroke-width: 0.8px;"></path><path class="link" d="M102.33453847488933,18.537589787547155C95.4135473493082,41.37940287415126 96.30852794960953,71.5867826080991 77.45219980012448,91.65782424933289" style="fill: none; stroke-opacity: 0.8; stroke: rgb(53, 151, 143); stroke-width: 0.8px;"></path><path class="link" d="M118.0783136248723,21.389526677939028C110.09255463381717,47.745464854789915 83.46739088966159,62.041878260352554 67.12523982677455,79.4367810160885" style="fill: none; stroke-opacity: 0.8; stroke: rgb(53, 151, 143); stroke-width: 0.8px;"></path><path class="link" d="M131.8541168811074,23.884971457031913C122.9366860077625,53.31576908784874 118.78051780451841,88.29036521665556 95.52437975348685,113.04464990751056" style="fill: none; stroke-opacity: 0.8; stroke: rgb(53, 151, 143); stroke-width: 0.8px;"></path><path class="link" d="M145.6299201373425,26.3804162361248C135.78081738170783,58.88607332090756 107.54452287706397,79.93857391237734 86.48828977680567,102.35123707842173" style="fill: none; stroke-opacity: 0.8; stroke: rgb(53, 151, 143); stroke-width: 0.8px;"></path><path class="link" d="M131.8541168811074,23.884971457031913C122.9366860077625,53.31576908784874 118.78051780451841,88.29036521665556 95.52437975348685,113.04464990751056" style="fill: none; stroke-opacity: 0.8; stroke: rgb(53, 151, 143); stroke-width: 0.8px;"></path><path class="link" d="M145.6299201373425,26.3804162361248C135.78081738170783,58.88607332090756 107.54452287706397,79.93857391237734 86.48828977680567,102.35123707842173" style="fill: none; stroke-opacity: 0.8; stroke: rgb(53, 151, 143); stroke-width: 0.8px;"></path><path class="link" d="M159.4057233935776,28.875861015217687C148.62494875565318,64.45637755396639 120.38565993701191,89.48347826012387 96.8152497501556,114.57228031166612" style="fill: none; stroke-opacity: 0.8; stroke: rgb(53, 151, 143); stroke-width: 0.8px;"></path><path class="link" d="M147.59789203109037,26.736908347423785C137.61569329227146,59.6818310684874 130.01651273197285,96.64215652093378 104.56046973016805,123.7380627365994" style="fill: none; stroke-opacity: 0.8; stroke: rgb(53, 151, 143); stroke-width: 0.8px;"></path><path class="link" d="M147.59789203109037,26.736908347423785C137.61569329227146,59.6818310684874 101.12395434708999,75.16612173850406 81.3248097901307,96.24071546179954" style="fill: none; stroke-opacity: 0.8; stroke: rgb(53, 151, 143); stroke-width: 0.8px;"></path><path class="link" d="M123.98222930611591,22.45900301183598C115.59718236550802,50.13273809752941 120.38565993701191,89.48347826012387 96.8152497501556,114.57228031166612" style="fill: none; stroke-opacity: 0.8; stroke: rgb(53, 151, 143); stroke-width: 0.8px;"></path><path class="link" d="M153.501807712334,27.806384681320736C143.1203210239623,62.069104311226894 113.96509140703793,84.7110260862506 91.65176976348063,108.46175869504393" style="fill: none; stroke-opacity: 0.8; stroke: rgb(53, 151, 143); stroke-width: 0.8px;"></path><path class="link" d="M139.72600445609888,25.310939902227847C130.276189650017,56.49880007816807 125.20108633449237,93.06281739052883 100.68785974016183,119.15517152413275" style="fill: none; stroke-opacity: 0.8; stroke: rgb(53, 151, 143); stroke-width: 0.8px;"></path><path class="link" d="M153.501807712334,27.806384681320736C143.1203210239623,62.069104311226894 187.80162950173857,139.59422608579325 151.03178961024273,178.73275728619913" style="fill: none; stroke-opacity: 0.8; stroke: rgb(53, 151, 143); stroke-width: 0.8px;"></path><path class="link" d="M230.25271156850098,41.709577021981104C214.68048153594347,93.10365646684033 125.20108633449237,93.06281739052883 100.68785974016183,119.15517152413275" style="fill: none; stroke-opacity: 0.8; stroke: rgb(53, 151, 143); stroke-width: 0.8px;"></path><path class="link" d="M131.8541168811074,23.884971457031913C122.9366860077625,53.31576908784874 86.67767515464857,64.42810434728919 69.70697982011204,82.4920418243996" style="fill: none; stroke-opacity: 0.8; stroke: rgb(53, 151, 143); stroke-width: 0.8px;"></path><path class="link" d="M106.27048226238507,19.250574010145126C99.08329917043545,42.97091836931093 107.54452287706397,79.93857391237734 86.48828977680567,102.35123707842173" style="fill: none; stroke-opacity: 0.8; stroke: rgb(53, 151, 143); stroke-width: 0.8px;"></path><path class="link" d="M153.501807712334,27.806384681320736C143.1203210239623,62.069104311226894 86.67767515464857,64.42810434728919 69.70697982011204,82.4920418243996" style="fill: none; stroke-opacity: 0.8; stroke: rgb(53, 151, 143); stroke-width: 0.8px;"></path><path class="link" d="M106.27048226238507,19.250574010145126C99.08329917043545,42.97091836931093 125.20108633449237,93.06281739052883 100.68785974016183,119.15517152413275" style="fill: none; stroke-opacity: 0.8; stroke: rgb(53, 151, 143); stroke-width: 0.8px;"></path><path class="link" d="M159.4057233935776,28.875861015217687C148.62494875565318,64.45637755396639 113.96509140703793,84.7110260862506 91.65176976348063,108.46175869504393" style="fill: none; stroke-opacity: 0.8; stroke: rgb(53, 151, 143); stroke-width: 0.8px;"></path><path class="link" d="M139.72600445609888,25.310939902227847C130.276189650017,56.49880007816807 130.01651273197285,96.64215652093378 104.56046973016805,123.7380627365994" style="fill: none; stroke-opacity: 0.8; stroke: rgb(53, 151, 143); stroke-width: 0.8px;"></path><path class="link" d="M137.75803256235102,24.954447790928864C128.44131373945336,55.70304233058824 113.96509140703793,84.7110260862506 91.65176976348063,108.46175869504393" style="fill: none; stroke-opacity: 0.8; stroke: rgb(53, 151, 143); stroke-width: 0.8px;"></path><path class="link" d="M139.72600445609888,25.310939902227847C130.276189650017,56.49880007816807 112.35994927454445,83.51791304278228 90.3608997668119,106.93412829088837" style="fill: none; stroke-opacity: 0.8; stroke: rgb(53, 151, 143); stroke-width: 0.8px;"></path><path class="link" d="M133.82208877485527,24.241463568330897C124.77156191832611,54.11152683542858 99.51881221459651,73.97300869503574 80.03393979346197,94.713085057644" style="fill: none; stroke-opacity: 0.8; stroke: rgb(53, 151, 143); stroke-width: 0.8px;"></path><path class="link" d="M122.01425741236804,22.102510900536995C113.76230645494441,49.336980349949584 109.14966500955745,81.13168695584565 87.77915977347442,103.87886748257728" style="fill: none; stroke-opacity: 0.8; stroke: rgb(53, 151, 143); stroke-width: 0.8px;"></path><path class="link" d="M131.8541168811074,23.884971457031913C122.9366860077625,53.31576908784874 83.46739088966159,62.041878260352554 67.12523982677455,79.4367810160885" style="fill: none; stroke-opacity: 0.8; stroke: rgb(53, 151, 143); stroke-width: 0.8px;"></path><path class="link" d="M102.33453847488933,18.537589787547155C95.4135473493082,41.37940287415126 107.54452287706397,79.93857391237734 86.48828977680567,102.35123707842173" style="fill: none; stroke-opacity: 0.8; stroke: rgb(53, 151, 143); stroke-width: 0.8px;"></path><path class="link" d="M153.501807712334,27.806384681320736C143.1203210239623,62.069104311226894 191.01191376672554,141.98045217272988 153.61352960358022,181.78801809451022" style="fill: none; stroke-opacity: 0.8; stroke: rgb(53, 151, 143); stroke-width: 0.8px;"></path><path class="link" d="M234.18865535599673,42.42256124457907C218.35023335707072,94.695171962 125.20108633449237,93.06281739052883 100.68785974016183,119.15517152413275" style="fill: none; stroke-opacity: 0.8; stroke: rgb(53, 151, 143); stroke-width: 0.8px;"></path><path class="link" d="M114.14236983737655,20.67654245534106C106.42280281268992,46.15394935963025 144.4627919244143,107.38017391214865 116.17829970018673,137.48673637399935" style="fill: none; stroke-opacity: 0.8; stroke: rgb(53, 151, 143); stroke-width: 0.8px;"></path><path class="link" d="M177.11747043730844,32.08429001690854C165.13883195072574,71.61819728218488 93.09824368462253,69.20055652116247 74.870459806787,88.6025634410218" style="fill: none; stroke-opacity: 0.8; stroke: rgb(53, 151, 143); stroke-width: 0.8px;"></path><path class="link" d="M86.48828977680567,102.35123707842173C31.191314816867653,130.31923066069348 -29.3980183895133,124.5783147853983 -82.30383898290023,98.03100575163347" style="fill: none; stroke-opacity: 0.8; stroke: rgb(53, 151, 143); stroke-width: 0.8px;"></path><path class="link" d="M137.75803256235102,24.954447790928864C128.44131373945336,55.70304233058824 117.17537567202491,87.09725217318724 94.23350975681812,111.51701950335502" style="fill: none; stroke-opacity: 0.8; stroke: rgb(53, 151, 143); stroke-width: 0.8px;"></path><path class="link" d="M143.66194824359462,26.023924124825815C133.9459414711442,58.090315573327736 112.35994927454445,83.51791304278228 90.3608997668119,106.93412829088837" style="fill: none; stroke-opacity: 0.8; stroke: rgb(53, 151, 143); stroke-width: 0.8px;"></path><path class="link" d="M159.4057233935776,28.875861015217687C148.62494875565318,64.45637755396639 109.14966500955745,81.13168695584565 87.77915977347442,103.87886748257728" style="fill: none; stroke-opacity: 0.8; stroke: rgb(53, 151, 143); stroke-width: 0.8px;"></path><path class="link" d="M133.82208877485527,24.241463568330897C124.77156191832611,54.11152683542858 130.01651273197285,96.64215652093378 104.56046973016805,123.7380627365994" style="fill: none; stroke-opacity: 0.8; stroke: rgb(53, 151, 143); stroke-width: 0.8px;"></path><path class="link" d="M139.72600445609888,25.310939902227847C130.276189650017,56.49880007816807 109.14966500955745,81.13168695584565 87.77915977347442,103.87886748257728" style="fill: none; stroke-opacity: 0.8; stroke: rgb(53, 151, 143); stroke-width: 0.8px;"></path><path class="link" d="M133.82208877485527,24.241463568330897C124.77156191832611,54.11152683542858 113.96509140703793,84.7110260862506 91.65176976348063,108.46175869504393" style="fill: none; stroke-opacity: 0.8; stroke: rgb(53, 151, 143); stroke-width: 0.8px;"></path><path class="link" d="M153.501807712334,27.806384681320736C143.1203210239623,62.069104311226894 192.61705589921905,143.1735652161982 154.90439960024895,183.31564849866578" style="fill: none; stroke-opacity: 0.8; stroke: rgb(53, 151, 143); stroke-width: 0.8px;"></path><path class="link" d="M236.1566272497446,42.779053355878055C220.18510926763435,95.49092970957983 125.20108633449237,93.06281739052883 100.68785974016183,119.15517152413275" style="fill: none; stroke-opacity: 0.8; stroke: rgb(53, 151, 143); stroke-width: 0.8px;"></path><path class="link" d="M145.6299201373425,26.3804162361248C135.78081738170783,58.88607332090756 136.43708126194682,101.41460869480706 109.72394971684301,129.84858435322158" style="fill: none; stroke-opacity: 0.8; stroke: rgb(53, 151, 143); stroke-width: 0.8px;"></path><path class="link" d="M167.2776109685691,30.30182946041362C155.96445239790765,67.63940854428571 118.78051780451841,88.29036521665556 95.52437975348685,113.04464990751056" style="fill: none; stroke-opacity: 0.8; stroke: rgb(53, 151, 143); stroke-width: 0.8px;"></path><path class="link" d="M74.870459806787,88.6025634410218C27.001436707139163,112.81366236298838 -26.64195416549643,112.89909777426722 -74.58785407825333,88.84059896241783" style="fill: none; stroke-opacity: 0.8; stroke: rgb(53, 151, 143); stroke-width: 0.8px;"></path><path class="link" d="M-82.30383898290023,98.03100575163347C-102.74039851788335,76.34402735241622 -106.58283606330212,45.78317438430039 -114.28062265444753,19.898223179764926" style="fill: none; stroke-opacity: 0.8; stroke: rgb(53, 151, 143); stroke-width: 0.8px;"></path><path class="link" d="M-74.58785407825333,88.84059896241783C-93.10848615683179,69.1867747881272 -117.60864669054028,50.519364837848705 -126.10275603249383,21.956660060430263" style="fill: none; stroke-opacity: 0.8; stroke: rgb(53, 151, 143); stroke-width: 0.8px;"></path><path class="link" d="M86.48828977680567,102.35123707842173C31.191314816867653,130.31923066069348 -26.64195416549643,112.89909777426722 -74.58785407825333,88.84059896241783" style="fill: none; stroke-opacity: 0.8; stroke: rgb(53, 151, 143); stroke-width: 0.8px;"></path><path class="link" d="M67.12523982677455,79.4367810160885C24.208184633986836,101.14328349785166 -26.64195416549643,112.89909777426722 -74.58785407825333,88.84059896241783" style="fill: none; stroke-opacity: 0.8; stroke: rgb(53, 151, 143); stroke-width: 0.8px;"></path><path class="link" d="M100.68785974016183,119.15517152413275C36.312276950980255,151.71492524677748 -26.64195416549643,112.89909777426722 -74.58785407825333,88.84059896241783" style="fill: none; stroke-opacity: 0.8; stroke: rgb(53, 151, 143); stroke-width: 0.8px;"></path><path class="link" d="M91.65176976348063,108.46175869504393C33.05348286563587,138.0994832374513 -26.64195416549643,112.89909777426722 -74.58785407825333,88.84059896241783" style="fill: none; stroke-opacity: 0.8; stroke: rgb(53, 151, 143); stroke-width: 0.8px;"></path><path class="link" d="M77.45219980012448,91.65782424933289C27.932520731523272,116.70378865136729 -26.64195416549643,112.89909777426722 -74.58785407825333,88.84059896241783" style="fill: none; stroke-opacity: 0.8; stroke: rgb(53, 151, 143); stroke-width: 0.8px;"></path><circle class="node" transform="rotate(10.26761414789408)" cx="116" r="5" stroke-width="0.4" stroke="grey" style="fill-opacity: 0.8; fill: rgb(235, 171, 33);"></circle><circle class="node" transform="rotate(10.26761414789408)" cx="180" r="5" stroke-width="0.4" stroke="grey" style="fill-opacity: 0.8; fill: rgb(235, 171, 33);"></circle><circle class="node" transform="rotate(130.0157933302361)" cx="116" r="5" stroke-width="0.4" stroke="grey" style="fill-opacity: 0.8; fill: rgb(53, 151, 143);"></circle><circle class="node" transform="rotate(10.26761414789408)" cx="170" r="5" stroke-width="0.4" stroke="grey" style="fill-opacity: 0.8; fill: rgb(53, 151, 143);"></circle><circle class="node" transform="rotate(10.26761414789408)" cx="240" r="5" stroke-width="0.4" stroke="grey" style="fill-opacity: 0.8; fill: rgb(53, 151, 143);"></circle><circle class="node" transform="rotate(10.26761414789408)" cx="134" r="5" stroke-width="0.4" stroke="grey" style="fill-opacity: 0.8; fill: rgb(53, 151, 143);"></circle><circle class="node" transform="rotate(130.0157933302361)" cx="128" r="5" stroke-width="0.4" stroke="grey" style="fill-opacity: 0.8; fill: rgb(53, 151, 143);"></circle><circle class="node" transform="rotate(10.26761414789408)" cx="238" r="5" stroke-width="0.4" stroke="grey" style="fill-opacity: 0.8; fill: rgb(53, 151, 143);"></circle><circle class="node" transform="rotate(10.26761414789408)" cx="104" r="5" stroke-width="0.4" stroke="grey" style="fill-opacity: 0.8; fill: rgb(53, 151, 143);"></circle><circle class="node" transform="rotate(10.26761414789408)" cx="134" r="5" stroke-width="0.4" stroke="grey" style="fill-opacity: 0.8; fill: rgb(53, 151, 143);"></circle><circle class="node" transform="rotate(10.26761414789408)" cx="124" r="5" stroke-width="0.4" stroke="grey" style="fill-opacity: 0.8; fill: rgb(53, 151, 143);"></circle><circle class="node" transform="rotate(10.26761414789408)" cx="104" r="5" stroke-width="0.4" stroke="grey" style="fill-opacity: 0.8; fill: rgb(53, 151, 143);"></circle><circle class="node" transform="rotate(10.26761414789408)" cx="156" r="5" stroke-width="0.4" stroke="grey" style="fill-opacity: 0.8; fill: rgb(53, 151, 143);"></circle><circle class="node" transform="rotate(10.26761414789408)" cx="108" r="5" stroke-width="0.4" stroke="grey" style="fill-opacity: 0.8; fill: rgb(53, 151, 143);"></circle><circle class="node" transform="rotate(10.26761414789408)" cx="142" r="5" stroke-width="0.4" stroke="grey" style="fill-opacity: 0.8; fill: rgb(53, 151, 143);"></circle><circle class="node" transform="rotate(10.26761414789408)" cx="148" r="5" stroke-width="0.4" stroke="grey" style="fill-opacity: 0.8; fill: rgb(53, 151, 143);"></circle><circle class="node" transform="rotate(10.26761414789408)" cx="120" r="5" stroke-width="0.4" stroke="grey" style="fill-opacity: 0.8; fill: rgb(53, 151, 143);"></circle><circle class="node" transform="rotate(10.26761414789408)" cx="162" r="5" stroke-width="0.4" stroke="grey" style="fill-opacity: 0.8; fill: rgb(53, 151, 143);"></circle><circle class="node" transform="rotate(10.26761414789408)" cx="140" r="5" stroke-width="0.4" stroke="grey" style="fill-opacity: 0.8; fill: rgb(53, 151, 143);"></circle><circle class="node" transform="rotate(10.26761414789408)" cx="136" r="5" stroke-width="0.4" stroke="grey" style="fill-opacity: 0.8; fill: rgb(53, 151, 143);"></circle><circle class="node" transform="rotate(10.26761414789408)" cx="146" r="5" stroke-width="0.4" stroke="grey" style="fill-opacity: 0.8; fill: rgb(53, 151, 143);"></circle><circle class="node" transform="rotate(10.26761414789408)" cx="142" r="5" stroke-width="0.4" stroke="grey" style="fill-opacity: 0.8; fill: rgb(53, 151, 143);"></circle><circle class="node" transform="rotate(10.26761414789408)" cx="126" r="5" stroke-width="0.4" stroke="grey" style="fill-opacity: 0.8; fill: rgb(53, 151, 143);"></circle><circle class="node" transform="rotate(10.26761414789408)" cx="150" r="5" stroke-width="0.4" stroke="grey" style="fill-opacity: 0.8; fill: rgb(53, 151, 143);"></circle><circle class="node" transform="rotate(10.26761414789408)" cx="208" r="5" stroke-width="0.4" stroke="grey" style="fill-opacity: 0.8; fill: rgb(53, 151, 143);"></circle><circle class="node" transform="rotate(10.26761414789408)" cx="134" r="5" stroke-width="0.4" stroke="grey" style="fill-opacity: 0.8; fill: rgb(53, 151, 143);"></circle><circle class="node" transform="rotate(-110.05352282957881)" cx="160" r="5" stroke-width="0.4" stroke="grey" style="fill-opacity: 0.8; fill: rgb(53, 151, 143);"></circle><circle class="node" transform="rotate(10.26761414789408)" cx="156" r="5" stroke-width="0.4" stroke="grey" style="fill-opacity: 0.8; fill: rgb(53, 151, 143);"></circle><circle class="node" transform="rotate(10.26761414789408)" cx="234" r="5" stroke-width="0.4" stroke="grey" style="fill-opacity: 0.8; fill: rgb(53, 151, 143);"></circle><circle class="node" transform="rotate(49.80170201192087)" cx="116" r="5" stroke-width="0.4" stroke="grey" style="fill-opacity: 0.8; fill: rgb(235, 171, 33);"></circle><circle class="node" transform="rotate(49.80170201192087)" cx="180" r="5" stroke-width="0.4" stroke="grey" style="fill-opacity: 0.8; fill: rgb(235, 171, 33);"></circle><circle class="node" transform="rotate(170.12283898939376)" cx="116" r="5" stroke-width="0.4" stroke="grey" style="fill-opacity: 0.8; fill: rgb(53, 151, 143);"></circle><circle class="node" transform="rotate(49.80170201192087)" cx="170" r="5" stroke-width="0.4" stroke="grey" style="fill-opacity: 0.8; fill: rgb(53, 151, 143);"></circle><circle class="node" transform="rotate(49.80170201192087)" cx="240" r="5" stroke-width="0.4" stroke="grey" style="fill-opacity: 0.8; fill: rgb(53, 151, 143);"></circle><circle class="node" transform="rotate(49.80170201192087)" cx="134" r="5" stroke-width="0.4" stroke="grey" style="fill-opacity: 0.8; fill: rgb(53, 151, 143);"></circle><circle class="node" transform="rotate(170.12283898939376)" cx="128" r="5" stroke-width="0.4" stroke="grey" style="fill-opacity: 0.8; fill: rgb(53, 151, 143);"></circle><circle class="node" transform="rotate(49.80170201192087)" cx="238" r="5" stroke-width="0.4" stroke="grey" style="fill-opacity: 0.8; fill: rgb(53, 151, 143);"></circle><circle class="node" transform="rotate(49.80170201192087)" cx="104" r="5" stroke-width="0.4" stroke="grey" style="fill-opacity: 0.8; fill: rgb(53, 151, 143);"></circle><circle class="node" transform="rotate(49.80170201192087)" cx="134" r="5" stroke-width="0.4" stroke="grey" style="fill-opacity: 0.8; fill: rgb(53, 151, 143);"></circle><circle class="node" transform="rotate(49.80170201192087)" cx="124" r="5" stroke-width="0.4" stroke="grey" style="fill-opacity: 0.8; fill: rgb(53, 151, 143);"></circle><circle class="node" transform="rotate(49.80170201192087)" cx="104" r="5" stroke-width="0.4" stroke="grey" style="fill-opacity: 0.8; fill: rgb(53, 151, 143);"></circle><circle class="node" transform="rotate(49.80170201192087)" cx="156" r="5" stroke-width="0.4" stroke="grey" style="fill-opacity: 0.8; fill: rgb(53, 151, 143);"></circle><circle class="node" transform="rotate(49.80170201192087)" cx="108" r="5" stroke-width="0.4" stroke="grey" style="fill-opacity: 0.8; fill: rgb(53, 151, 143);"></circle><circle class="node" transform="rotate(49.80170201192087)" cx="142" r="5" stroke-width="0.4" stroke="grey" style="fill-opacity: 0.8; fill: rgb(53, 151, 143);"></circle><circle class="node" transform="rotate(49.80170201192087)" cx="148" r="5" stroke-width="0.4" stroke="grey" style="fill-opacity: 0.8; fill: rgb(53, 151, 143);"></circle><circle class="node" transform="rotate(49.80170201192087)" cx="120" r="5" stroke-width="0.4" stroke="grey" style="fill-opacity: 0.8; fill: rgb(53, 151, 143);"></circle><circle class="node" transform="rotate(49.80170201192087)" cx="162" r="5" stroke-width="0.4" stroke="grey" style="fill-opacity: 0.8; fill: rgb(53, 151, 143);"></circle><circle class="node" transform="rotate(49.80170201192087)" cx="140" r="5" stroke-width="0.4" stroke="grey" style="fill-opacity: 0.8; fill: rgb(53, 151, 143);"></circle><circle class="node" transform="rotate(49.80170201192087)" cx="136" r="5" stroke-width="0.4" stroke="grey" style="fill-opacity: 0.8; fill: rgb(53, 151, 143);"></circle><circle class="node" transform="rotate(49.80170201192087)" cx="146" r="5" stroke-width="0.4" stroke="grey" style="fill-opacity: 0.8; fill: rgb(53, 151, 143);"></circle><circle class="node" transform="rotate(49.80170201192087)" cx="142" r="5" stroke-width="0.4" stroke="grey" style="fill-opacity: 0.8; fill: rgb(53, 151, 143);"></circle><circle class="node" transform="rotate(49.80170201192087)" cx="126" r="5" stroke-width="0.4" stroke="grey" style="fill-opacity: 0.8; fill: rgb(53, 151, 143);"></circle><circle class="node" transform="rotate(49.80170201192087)" cx="150" r="5" stroke-width="0.4" stroke="grey" style="fill-opacity: 0.8; fill: rgb(53, 151, 143);"></circle><circle class="node" transform="rotate(49.80170201192087)" cx="208" r="5" stroke-width="0.4" stroke="grey" style="fill-opacity: 0.8; fill: rgb(53, 151, 143);"></circle><circle class="node" transform="rotate(49.80170201192087)" cx="134" r="5" stroke-width="0.4" stroke="grey" style="fill-opacity: 0.8; fill: rgb(53, 151, 143);"></circle><circle class="node" transform="rotate(-69.94647717042119)" cx="160" r="5" stroke-width="0.4" stroke="grey" style="fill-opacity: 0.8; fill: rgb(53, 151, 143);"></circle><circle class="node" transform="rotate(49.80170201192087)" cx="156" r="5" stroke-width="0.4" stroke="grey" style="fill-opacity: 0.8; fill: rgb(53, 151, 143);"></circle><circle class="node" transform="rotate(49.80170201192087)" cx="234" r="5" stroke-width="0.4" stroke="grey" style="fill-opacity: 0.8; fill: rgb(53, 151, 143);"></circle></g></svg>